{
.appVersion = "3309";
.formatVersion = 3;
DisplayStrings = (
"/s_la_uMatra-beng",
"/ha_rVocalicMatra-beng",
"/h_na-beng"
);
axes = (
{
name = Weight;
tag = wght;
}
);
customParameters = (
{
name = openTypeOS2VendorID;
value = GOOG;
},
{
name = glyphOrder;
value = (
.notdef,
NULL,
CR,
zerowidthnonjoiner,
zerowidthjoiner,
space,
"anji-beng",
"candrabindu-beng",
"anusvara-beng",
"visarga-beng",
"a-beng",
"aa-beng",
"i-beng",
"ii-beng",
"u-beng",
"uu-beng",
"rVocalic-beng",
"lVocalic-beng",
"e-beng",
"ai-beng",
"o-beng",
"au-beng",
"ka-beng",
"kha-beng",
"ga-beng",
"gha-beng",
"nga-beng",
"ca-beng",
"cha-beng",
"ja-beng",
"jha-beng",
"nya-beng",
"tta-beng",
"ttha-beng",
"dda-beng",
"ddha-beng",
"nna-beng",
"ta-beng",
"tha-beng",
"da-beng",
"dha-beng",
"na-beng",
"pa-beng",
"pha-beng",
"ba-beng",
"bha-beng",
"ma-beng",
"ya-beng",
"ra-beng",
"la-beng",
"sha-beng",
"ssa-beng",
"sa-beng",
"ha-beng",
"nukta-beng",
"avagraha-beng",
"aaMatra-beng",
"iMatra-beng",
"iiMatra-beng",
"uMatra-beng",
"uuMatra-beng",
"rVocalicMatra-beng",
"rrVocalicMatra-beng",
"eMatra-beng",
"aiMatra-beng",
"oMatra-beng",
"auMatra-beng",
"halant-beng",
"taKhanda-beng",
"auLength-beng",
"rra-beng",
"rha-beng",
"yya-beng",
"rrVocalic-beng",
"llVocalic-beng",
"lVocalicMatra-beng",
"llVocalicMatra-beng",
"zero-beng",
"one-beng",
"two-beng",
"three-beng",
"four-beng",
"five-beng",
"six-beng",
"seven-beng",
"eight-beng",
"nine-beng",
"ramiddlediagonal-beng",
"ralowerdiagonal-beng",
"rupeeMark-beng",
"rupeeSign-beng",
"oneNumr-beng",
"twoNumr-beng",
"threeNumr-beng",
"fourNumr-beng",
"oneLessNumr-beng",
"sixteenDnom-beng",
"isshar-beng",
"ganda-beng",
"vedicAnusvara-beng",
"abbreviation-beng",
"sandhi-beng",
"sandhi-bengdummymarkbeng",
"#non-unicodeMarks",
"reph-beng",
"ya-beng.pstf",
"#PrecomposedConjuncts",
"k_ma-beng",
"k_ssa-beng",
"k_ss_ma-beng",
"k_sa-beng",
"ng_ka-beng",
"ng_ga-beng",
"c_nya-beng",
"j_ja-beng",
"j_j_ba-beng",
"j_nya-beng",
"j_ra-beng",
"ny_ca-beng",
"ny_c_ba-beng",
"ny_cha-beng",

glyphs = (
{
glyphname = .notdef;
lastChange = "2024-10-24 11:30:26 +0000";
layers = (
{
background = {
shapes = (
{
closed = 1;
nodes = (
(505,0,l),
(505,714,l),
(94,714,l),
(94,0,l)
);
},
{
closed = 1;
nodes = (
(145,663,l),
(454,663,l),
(454,51,l),
(145,51,l)
);
}
);
};
layerId = UUID0;
shapes = (
{
closed = 1;
nodes = (
(505,0,l),
(505,714,l),
(94,714,l),
(94,0,l)
);
},
{
closed = 1;
nodes = (
(145,663,l),
(454,663,l),
(454,51,l),
(145,51,l)
);
}
);
width = 600;
},
{
background = {
shapes = (
{
closed = 1;
nodes = (
(505,0,l),
(505,714,l),
(94,714,l),
(94,0,l)
);
},
{
closed = 1;
nodes = (
(145,663,l),
(454,663,l),
(454,51,l),
(145,51,l)
);
}
);
};
layerId = "28FB090A-653E-4199-B7BE-FAE23D31B682";
shapes = (
{
closed = 1;
nodes = (
(505,0,l),
(505,714,l),
(94,714,l),
(94,0,l)
);
},
{
closed = 1;
nodes = (
(145,663,l),
(454,663,l),
(454,51,l),
(145,51,l)
);
}
);
width = 600;
},
{
background = {
shapes = (
{
closed = 1;
nodes = (
(505,0,l),
(505,714,l),
(94,714,l),
(94,0,l)
);
},
{
closed = 1;
nodes = (
(145,663,l),
(454,663,l),
(454,51,l),
(145,51,l)
);
}
);
};
layerId = "F455777D-7EDD-47E2-866A-D8A5173CE243";
shapes = (
{
closed = 1;
nodes = (
(505,0,l),
(505,714,l),
(94,714,l),
(94,0,l)
);
},
{
closed = 1;
nodes = (
(145,663,l),
(454,663,l),
(454,51,l),
(145,51,l)
);
}
);
width = 600;
}
);
},
{
glyphname = zerowidthnonjoiner;
lastChange = "2024-10-24 11:30:26 +0000";
layers = (
{
background = {
shapes = (
{
closed = 1;
nodes = (
(146,751,l),
(109,788,l),
(0,680,l),
(-109,788,l),
(-146,752,l),
(-36,646,l),
(-146,539,l),
(-109,503,l),
(-26,585,l),
(-26,-165,l),
(26,-165,l),
(26,585,l),
(109,503,l),
(146,539,l),
(36,646,l)
);
}
);
};
layerId = UUID0;
shapes = (
{
closed = 1;
nodes = (
(146,751,l),
(109,788,l),
(0,680,l),
(-109,788,l),
(-146,752,l),
(-36,646,l),
(-146,539,l),
(-109,503,l),
(-26,585,l),
(-26,-165,l),
(26,-165,l),
(26,585,l),
(109,503,l),
(146,539,l),
(36,646,l)
);
}
);
width = 0;
},
{
background = {
shapes = (
{
closed = 1;
nodes = (
(146,751,l),
(109,788,l),
(0,680,l),
(-109,788,l),
(-146,752,l),
(-36,646,l),
(-146,539,l),
(-109,503,l),
(-26,585,l),
(-26,-165,l),
(26,-165,l),
(26,585,l),
(109,503,l),
(146,539,l),
(36,646,l)
);
}
);
};
layerId = "28FB090A-653E-4199-B7BE-FAE23D31B682";
shapes = (
{
closed = 1;
nodes = (
(146,751,l),
(109,788,l),
(0,680,l),
(-109,788,l),
(-146,752,l),
(-36,646,l),
(-146,539,l),
(-109,503,l),
(-26,585,l),
(-26,-165,l),
(26,-165,l),
(26,585,l),
(109,503,l),
(146,539,l),
(36,646,l)
);
}
);
width = 0;
},
{
background = {
shapes = (
{
closed = 1;
nodes = (
(146,751,l),
(109,788,l),
(0,680,l),
(-109,788,l),
(-146,752,l),
(-36,646,l),
(-146,539,l),
(-109,503,l),
(-26,585,l),
(-26,-165,l),
(26,-165,l),
(26,585,l),
(109,503,l),
(146,539,l),
(36,646,l)
);
}
);
};
layerId = "F455777D-7EDD-47E2-866A-D8A5173CE243";
shapes = (
{
closed = 1;
nodes = (
(146,751,l),
(109,788,l),
(0,680,l),
(-109,788,l),
(-146,752,l),
(-36,646,l),
(-146,539,l),
(-109,503,l),
(-26,585,l),
(-26,-165,l),
(26,-165,l),
(26,585,l),
(109,503,l),
(146,539,l),
(36,646,l)
);
}
);
width = 0;
}
);
unicode = 8204;
},
{
glyphname = zerowidthjoiner;
lastChange = "2024-10-24 11:30:26 +0000";
layers = (
{
background = {
shapes = (
{
closed = 1;
nodes = (
(26,-166,l),
(26,788,l),
(-26,788,l),
(-26,-166,l)
);
}
);
};
layerId = UUID0;
shapes = (
{
closed = 1;
nodes = (
(26,-166,l),
(26,788,l),
(-26,788,l),
(-26,-166,l)
);
}
);
width = 0;
},
{
background = {
shapes = (
{
closed = 1;
nodes = (
(26,-166,l),
(26,788,l),
(-26,788,l),
(-26,-166,l)
);
}
);
};
layerId = "28FB090A-653E-4199-B7BE-FAE23D31B682";
shapes = (
{
closed = 1;
nodes = (
(26,-166,l),
(26,788,l),
(-26,788,l),
(-26,-166,l)
);
}
);
width = 0;
},
{
background = {
shapes = (
{
closed = 1;
nodes = (
(26,-166,l),
(26,788,l),
(-26,788,l),
(-26,-166,l)
);
}
);
};
layerId = "F455777D-7EDD-47E2-866A-D8A5173CE243";
shapes = (
{
closed = 1;
nodes = (
(26,-166,l),
(26,788,l),
(-26,788,l),
(-26,-166,l)
);
}
);
width = 0;
}
);
unicode = 8205;
},
{
color = 5;
glyphname = "anji-beng";
lastChange = "2024-11-28 18:19:52 +0000";
layers = (
{
anchors = (
{
name = top_candrabindu;
pos = (280,622);
},
{
name = top_vedic;
pos = (270,622);
}
);
background = {
anchors = (
{
name = top_candrabindu;
pos = (229,622);
}
);
shapes = (
{
closed = 1;
nodes = (
(488,-10,o),
(502,-8,o),
(513,-6,c),
(506,64,l),
(502,63,o),
(489,61,o),
(480,61,cs),
(455,61,o),
(444,74,o),
(444,111,cs),
(444,465,ls),
(444,580,o),
(384,632,o),
(280,632,cs),
(159,632,o),
(52,538,o),
(52,416,cs),
(52,311,o),
(121,247,o),
(223,247,cs),
(293,247,o),
(328,280,o),
(328,335,cs),
(328,377,o),
(298,406,o),
(252,406,cs),
(210,406,o),
(179,375,o),
(179,331,cs),
(179,291,o),
(205,255,o),
(245,255,c),
(229,322,l),
(177,322,o),
(134,344,o),
(134,411,cs),
(134,494,o),
(205,560,o),
(280,560,cs),
(348,560,o),
(365,523,o),
(365,458,cs),
(365,121,ls),
(365,31,o),
(395,-10,o),
(475,-10,cs)
);
}
);
};
layerId = UUID0;
shapes = (
{
closed = 1;
nodes = (
(488,-10,o),
(502,-8,o),
(513,-6,c),
(506,64,l),
(502,63,o),
(489,61,o),
(480,61,cs),
(455,61,o),
(444,74,o),
(444,111,cs),
(444,465,ls),
(444,580,o),
(384,632,o),
(280,632,cs),
(159,632,o),
(52,538,o),
(52,416,cs),
(52,311,o),
(121,247,o),
(223,247,cs),
(293,247,o),
(328,280,o),
(328,335,cs),
(328,377,o),
(298,406,o),
(252,406,cs),
(210,406,o),
(179,375,o),
(179,331,cs),
(179,291,o),
(205,255,o),
(245,255,c),
(229,322,l),
(177,322,o),
(134,344,o),
(134,411,cs),
(134,494,o),
(205,560,o),
(280,560,cs),
(348,560,o),
(365,523,o),
(365,458,cs),
(365,121,ls),
(365,31,o),
(395,-10,o),
(475,-10,cs)
);
}
);
width = 540;
},
{
anchors = (
{
name = top_candrabindu;
pos = (262,607);
},
{
name = top_vedic;
pos = (250,607);
}
);
background = {
anchors = (
{
name = top_candrabindu;
pos = (232,622);
}
);
shapes = (
{
closed = 1;
nodes = (
(439,1,o),
(455,4,o),
(462,7,c),
(458,28,l),
(448,24,o),
(438,22,o),
(428,22,cs),
(404,22,o),
(393,35,o),
(393,69,cs),
(393,456,ls),
(393,555,o),
(356,617,o),
(262,617,cs),
(158,617,o),
(68,519,o),
(68,411,cs),
(68,314,o),
(131,270,o),
(222,270,cs),
(269,270,o),
(291,290,o),
(291,321,cs),
(291,345,o),
(275,362,o),
(247,362,cs),
(221,362,o),
(204,345,o),
(204,322,cs),
(204,298,o),
(222,281,o),
(245,281,c),
(225,291,l),
(151,291,o),
(89,318,o),
(89,410,cs),
(89,508,o),
(172,596,o),
(262,596,cs),
(352,596,o),
(372,537,o),
(372,445,cs),
(372,70,ls),
(372,26,o),
(387,1,o),
(428,1,cs)
);
}
);
};
layerId = "28FB090A-653E-4199-B7BE-FAE23D31B682";
shapes = (
{
closed = 1;
nodes = (
(439,1,o),
(455,4,o),
(462,7,c),
(458,28,l),
(448,24,o),
(438,22,o),
(428,22,cs),
(404,22,o),
(393,35,o),
(393,69,cs),
(393,456,ls),
(393,555,o),
(356,617,o),
(262,617,cs),
(158,617,o),
(68,519,o),
(68,411,cs),
(68,314,o),
(131,270,o),
(222,270,cs),
(269,270,o),
(291,290,o),
(291,321,cs),
(291,345,o),
(275,362,o),
(247,362,cs),
(221,362,o),
(204,345,o),
(204,322,cs),
(204,298,o),
(222,281,o),
(245,281,c),
(225,291,l),
(151,291,o),
(89,318,o),
(89,410,cs),
(89,508,o),
(172,596,o),
(262,596,cs),
(352,596,o),
(372,537,o),
(372,445,cs),
(372,70,ls),
(372,26,o),
(387,1,o),
(428,1,cs)
);
}
);
width = 500;
},
{
anchors = (
{
name = top_candrabindu;
pos = (320,635);
},
{
name = top_vedic;
pos = (304,635);
}
);
background = {
anchors = (
{
name = top_candrabindu;
pos = (320,635);
}
);
shapes = (
{
closed = 1;
nodes = (
(548,-10,o),
(573,-9,o),
(597,-6,c),
(590,128,l),
(583,127,o),
(573,126,o),
(565,126,cs),
(539,126,o),
(526,139,o),
(526,176,cs),
(526,446,ls),
(526,590,o),
(443,645,o),
(320,645,cs),
(170,645,o),
(43,542,o),
(43,395,cs),
(43,284,o),
(115,217,o),
(212,217,cs),
(292,217,o),
(332,258,o),
(332,325,cs),
(332,388,o),
(293,421,o),
(238,421,cs),
(185,421,o),
(151,384,o),
(151,324,cs),
(151,268,o),
(185,227,o),
(237,227,c),
(278,350,l),
(231,350,o),
(212,368,o),
(212,409,cs),
(212,473,o),
(254,513,o),
(304,513,cs),
(355,513,o),
(360,483,o),
(360,433,cs),
(360,167,ls),
(360,48,o),
(410,-10,o),
(526,-10,cs)
);
}
);
};
layerId = "F455777D-7EDD-47E2-866A-D8A5173CE243";
shapes = (
{
closed = 1;
nodes = (
(548,-10,o),
(573,-9,o),
(597,-6,c),
(590,128,l),
(583,127,o),
(573,126,o),
(565,126,cs),
(539,126,o),
(526,139,o),
(526,176,cs),
(526,446,ls),
(526,590,o),
(443,645,o),
(320,645,cs),
(170,645,o),
(43,542,o),
(43,395,cs),
(43,284,o),
(115,217,o),
(212,217,cs),
(292,217,o),
(332,258,o),
(332,325,cs),
(332,388,o),
(293,421,o),
(238,421,cs),
(185,421,o),
(151,384,o),
(151,324,cs),
(151,268,o),
(185,227,o),
(237,227,c),
(278,350,l),
(231,350,o),
(212,368,o),
(212,409,cs),
(212,473,o),
(254,513,o),
(304,513,cs),
(355,513,o),
(360,483,o),
(360,433,cs),
(360,167,ls),
(360,48,o),
(410,-10,o),
(526,-10,cs)
);
}
);
width = 609;
}
);
script = bengali;
unicode = 2432;
},
{
category = Mark;
color = 5;
glyphname = "candrabindu-beng";
lastChange = "2024-10-24 11:30:26 +0000";
layers = (
{
anchors = (
{
name = _top_candrabindu;
pos = (0,622);
}
);
background = {
anchors = (
{
name = _top_candrabindu;
pos = (0,622);
}
);
shapes = (
{
closed = 1;
nodes = (
(117,685,o),
(168,760,o),
(177,861,c),
(107,870,l),
(100,792,o),
(66,751,o),
(0,751,cs),
(-71,751,o),
(-99,795,o),
(-106,869,c),
(-175,860,l),
(-165,760,o),
(-112,685,o),
(4,685,cs)
);
},
{
closed = 1;
nodes = (
(30,790,o),
(44,812,o),
(44,833,cs),
(44,854,o),
(30,876,o),
(0,876,cs),
(-30,876,o),
(-44,854,o),
(-44,833,cs),
(-44,812,o),
(-30,790,o),
(0,790,cs)
);
}
);
};
layerId = UUID0;
shapes = (
{
closed = 1;
nodes = (
(117,685,o),
(168,760,o),
(177,861,c),
(107,870,l),
(100,792,o),
(66,751,o),
(0,751,cs),
(-71,751,o),
(-99,795,o),
(-106,869,c),
(-175,860,l),
(-165,760,o),
(-112,685,o),
(4,685,cs)
);
},
{
closed = 1;
nodes = (
(30,790,o),
(44,812,o),
(44,833,cs),
(44,854,o),
(30,876,o),
(0,876,cs),
(-30,876,o),
(-44,854,o),
(-44,833,cs),
(-44,812,o),
(-30,790,o),
(0,790,cs)
);
}
);
width = 0;
},
{
anchors = (
{
name = _top_candrabindu;
pos = (0,607);
}
);
background = {
anchors = (
{
name = _top_candrabindu;
pos = (0,607);
}
);
shapes = (
{
closed = 1;
nodes = (
(85,690,o),
(137,745,o),
(146,842,c),
(126,844,l),
(115,755,o),
(74,711,o),
(0,711,cs),
(-79,711,o),
(-115,758,o),
(-126,844,c),
(-146,841,l),
(-136,754,o),
(-94,690,o),
(0,690,cs)
);
},
{
closed = 1;
nodes = (
(17,790,o),
(27,802,o),
(27,817,cs),
(27,831,o),
(17,843,o),
(0,843,cs),
(-17,843,o),
(-27,831,o),
(-27,817,cs),
(-27,802,o),
(-17,790,o),
(0,790,cs)
);
}
);
};
layerId = "28FB090A-653E-4199-B7BE-FAE23D31B682";
shapes = (
{
closed = 1;
nodes = (
(85,690,o),
(137,745,o),
(146,842,c),
(126,844,l),
(115,755,o),
(74,711,o),
(0,711,cs),
(-79,711,o),
(-115,758,o),
(-126,844,c),
(-146,841,l),
(-136,754,o),
(-94,690,o),
(0,690,cs)
);
},
{
closed = 1;
nodes = (
(17,790,o),
(27,802,o),
(27,817,cs),
(27,831,o),
(17,843,o),
(0,843,cs),
(-17,843,o),
(-27,831,o),
(-27,817,cs),
(-27,802,o),
(-17,790,o),
(0,790,cs)
);
}
);
width = 0;
},
{
anchors = (
{
name = _top_candrabindu;
pos = (0,635);
}
);
background = {
anchors = (
{
name = _top_candrabindu;
pos = (0,635);
}
);
shapes = (
{
closed = 1;
nodes = (
(154,671,o),
(214,764,o),
(225,887,c),
(100,898,l),
(93,814,o),
(60,775,o),
(2,775,cs),
(-67,775,o),
(-89,820,o),
(-96,897,c),
(-222,886,l),
(-208,759,o),
(-143,671,o),
(6,671,cs)
);
},
{
closed = 1;
nodes = (
(37,800,o),
(57,827,o),
(57,856,cs),
(57,885,o),
(37,912,o),
(0,912,cs),
(-37,912,o),
(-57,885,o),
(-57,856,cs),
(-57,827,o),
(-37,800,o),
(0,800,cs)
);
}
);
};
layerId = "F455777D-7EDD-47E2-866A-D8A5173CE243";
shapes = (
{
closed = 1;
nodes = (
(151,666,o),
(214,764,o),
(221,872,c),
(100,883,l),
(93,814,o),
(60,775,o),
(2,775,cs),
(-67,775,o),
(-89,820,o),
(-96,882,c),
(-218,871,l),
(-208,759,o),
(-140,666,o),
(6,666,cs)
);
},
{
closed = 1;
nodes = (
(37,800,o),
(57,827,o),
(57,856,cs),
(57,885,o),
(37,912,o),
(0,912,cs),
(-37,912,o),
(-57,885,o),
(-57,856,cs),
(-57,827,o),
(-37,800,o),
(0,800,cs)
);
}
);
width = 0;
}
);
production = uni0981;
script = bengali;
subCategory = Nonspacing;
unicode = 2433;
},
{
color = 5;
glyphname = "anusvara-beng";
lastChange = "2024-11-28 18:19:52 +0000";
layers = (
{
anchors = (
{
name = top_vedic;
pos = (219,622);
}
);
background = {
shapes = (
{
closed = 1;
nodes = (
(424,-8,l),
(359,110,o),
(249,238,o),
(123,314,c),
(73,250,l),
(206,168,o),
(276,85,o),
(359,-41,c)
);
},
{
closed = 1;
nodes = (
(299,349,o),
(360,403,o),
(360,486,cs),
(360,569,o),
(299,622,o),
(219,622,cs),
(139,622,o),
(78,568,o),
(78,486,cs),
(78,403,o),
(139,349,o),
(219,349,cs)
);
},
{
closed = 1;
nodes = (
(177,414,o),
(147,442,o),
(147,486,cs),
(147,529,o),
(177,557,o),
(219,557,cs),
(261,557,o),
(291,530,o),
(291,486,cs),
(291,442,o),
(261,414,o),
(219,414,cs)
);
}
);
};
layerId = UUID0;
shapes = (
{
closed = 1;
nodes = (
(424,-8,l),
(359,110,o),
(249,238,o),
(123,314,c),
(73,250,l),
(206,168,o),
(276,85,o),
(359,-41,c)
);
},
{
closed = 1;
nodes = (
(299,349,o),
(360,403,o),
(360,486,cs),
(360,569,o),
(299,622,o),
(219,622,cs),
(139,622,o),
(78,568,o),
(78,486,cs),
(78,403,o),
(139,349,o),
(219,349,cs)
);
},
{
closed = 1;
nodes = (
(177,414,o),
(147,442,o),
(147,486,cs),
(147,529,o),
(177,557,o),
(219,557,cs),
(261,557,o),
(291,530,o),
(291,486,cs),
(291,442,o),
(261,414,o),
(219,414,cs)
);
}
);
width = 438;
},
{
anchors = (
{
name = top_vedic;
pos = (211,607);
}
);
background = {
shapes = (
{
closed = 1;
nodes = (
(403,-24,l),
(318,116,o),
(214,229,o),
(84,310,c),
(72,291,l),
(201,210,o),
(289,116,o),
(386,-33,c)
);
},
{
closed = 1;
nodes = (
(285,359,o),
(336,407,o),
(336,483,cs),
(336,559,o),
(285,607,o),
(210,607,cs),
(135,607,o),
(84,559,o),
(84,483,cs),
(84,407,o),
(135,359,o),
(210,359,cs)
);
},
{
closed = 1;
nodes = (
(149,380,o),
(105,418,o),
(105,483,cs),
(105,548,o),
(149,586,o),
(210,586,cs),
(271,586,o),
(315,548,o),
(315,483,cs),
(315,418,o),
(271,380,o),
(210,380,cs)
);
}
);
};
layerId = "28FB090A-653E-4199-B7BE-FAE23D31B682";
shapes = (
{
closed = 1;
nodes = (
(403,-24,l),
(318,116,o),
(214,229,o),
(84,310,c),
(72,291,l),
(201,210,o),
(289,116,o),
(386,-33,c)
);
},
{
closed = 1;
nodes = (
(285,359,o),
(336,407,o),
(336,483,cs),
(336,559,o),
(285,607,o),
(210,607,cs),
(135,607,o),
(84,559,o),
(84,483,cs),
(84,407,o),
(135,359,o),
(210,359,cs)
);
},
{
closed = 1;
nodes = (
(149,380,o),
(105,418,o),
(105,483,cs),
(105,548,o),
(149,586,o),
(210,586,cs),
(271,586,o),
(315,548,o),
(315,483,cs),
(315,418,o),
(271,380,o),
(210,380,cs)
);
}
);
width = 422;
},
{
anchors = (
{
name = top_vedic;
pos = (225,635);
}
);
background = {
shapes = (
{
closed = 1;
nodes = (
(437,17,l),
(366,140,o),
(255,253,o),
(149,319,c),
(55,204,l),
(161,139,o),
(254,45,o),
(324,-52,c)
);
},
{
closed = 1;
nodes = (
(319,336,o),
(391,394,o),
(391,486,cs),
(391,576,o),
(319,635,o),
(225,635,cs),
(132,635,o),
(60,575,o),
(60,486,cs),
(60,394,o),
(132,336,o),
(225,336,cs)
);
},
{
closed = 1;
nodes = (
(199,440,o),
(180,459,o),
(180,486,cs),
(180,511,o),
(199,530,o),
(225,530,cs),
(252,530,o),
(272,511,o),
(272,486,cs),
(272,459,o),
(252,440,o),
(225,440,cs)
);
}
);
};
layerId = "F455777D-7EDD-47E2-866A-D8A5173CE243";
shapes = (
{
closed = 1;
nodes = (
(437,17,l),
(366,140,o),
(255,253,o),
(149,319,c),
(55,204,l),
(161,139,o),
(254,45,o),
(324,-52,c)
);
},
{
closed = 1;
nodes = (
(319,336,o),
(391,394,o),
(391,486,cs),
(391,576,o),
(319,635,o),
(225,635,cs),
(132,635,o),
(60,575,o),
(60,486,cs),
(60,394,o),
(132,336,o),
(225,336,cs)
);
},
{
closed = 1;
nodes = (
(199,440,o),
(180,459,o),
(180,486,cs),
(180,511,o),
(199,530,o),
(225,530,cs),
(252,530,o),
(272,511,o),
(272,486,cs),
(272,459,o),
(252,440,o),
(225,440,cs)
);
}
);
width = 451;
}
);
script = bengali;
unicode = 2434;
},
{
color = 5;
glyphname = "visarga-beng";
lastChange = "2024-11-28 18:19:52 +0000";
layers = (
{
anchors = (
{
name = top_vedic;
pos = (219,622);
}
);
background = {
shapes = (
{
closed = 1;
nodes = (
(299,0,o),
(360,54,o),
(360,137,cs),
(360,220,o),
(299,273,o),
(219,273,cs),
(139,273,o),
(78,219,o),
(78,137,cs),
(78,54,o),
(139,0,o),
(219,0,cs)
);
},
{
closed = 1;
nodes = (
(177,65,o),
(147,93,o),
(147,137,cs),
(147,180,o),
(177,208,o),
(219,208,cs),
(261,208,o),
(291,181,o),
(291,137,cs),
(291,93,o),
(261,65,o),
(219,65,cs)
);
},
{
closed = 1;
nodes = (
(299,349,o),
(360,403,o),
(360,486,cs),
(360,569,o),
(299,622,o),
(219,622,cs),
(139,622,o),
(78,568,o),
(78,486,cs),
(78,403,o),
(139,349,o),
(219,349,cs)
);
},
{
closed = 1;
nodes = (
(177,414,o),
(147,442,o),
(147,486,cs),
(147,529,o),
(177,557,o),
(219,557,cs),
(261,557,o),
(291,530,o),
(291,486,cs),
(291,442,o),
(261,414,o),
(219,414,cs)
);
}
);
};
layerId = UUID0;
shapes = (
{
closed = 1;
nodes = (
(299,0,o),
(360,54,o),
(360,137,cs),
(360,220,o),
(299,273,o),
(219,273,cs),
(139,273,o),
(78,219,o),
(78,137,cs),
(78,54,o),
(139,0,o),
(219,0,cs)
);
},
{
closed = 1;
nodes = (
(177,65,o),
(147,93,o),
(147,137,cs),
(147,180,o),
(177,208,o),
(219,208,cs),
(261,208,o),
(291,181,o),
(291,137,cs),
(291,93,o),
(261,65,o),
(219,65,cs)
);
},
{
closed = 1;
nodes = (
(299,349,o),
(360,403,o),
(360,486,cs),
(360,569,o),
(299,622,o),
(219,622,cs),
(139,622,o),
(78,568,o),
(78,486,cs),
(78,403,o),
(139,349,o),
(219,349,cs)
);
},
{
closed = 1;
nodes = (
(177,414,o),
(147,442,o),
(147,486,cs),
(147,529,o),
(177,557,o),
(219,557,cs),
(261,557,o),
(291,530,o),
(291,486,cs),
(291,442,o),
(261,414,o),
(219,414,cs)
);
}
);
width = 438;
},
{
anchors = (
{
name = top_vedic;
pos = (211,607);
}
);
background = {
shapes = (
{
closed = 1;
nodes = (
(285,359,o),
(336,407,o),
(336,483,cs),
(336,559,o),
(285,607,o),
(210,607,cs),
(135,607,o),
(84,559,o),
(84,483,cs),
(84,407,o),
(135,359,o),
(210,359,cs)
);
},
{
closed = 1;
nodes = (
(285,0,o),
(336,48,o),
(336,124,cs),
(336,200,o),
(285,248,o),
(210,248,cs),
(135,248,o),
(84,200,o),
(84,124,cs),
(84,48,o),
(135,0,o),
(210,0,cs)
);
},
{
closed = 1;
nodes = (
(149,21,o),
(105,59,o),
(105,124,cs),
(105,189,o),
(149,227,o),
(210,227,cs),
(271,227,o),
(315,189,o),
(315,124,cs),
(315,59,o),
(271,21,o),
(210,21,cs)
);
},
{
closed = 1;
nodes = (
(149,380,o),
(105,418,o),
(105,483,cs),
(105,548,o),
(149,586,o),
(210,586,cs),
(271,586,o),
(315,548,o),
(315,483,cs),
(315,418,o),
(271,380,o),
(210,380,cs)
);
}
);
};
layerId = "28FB090A-653E-4199-B7BE-FAE23D31B682";
shapes = (
{
closed = 1;
nodes = (
(285,359,o),
(336,407,o),
(336,483,cs),
(336,559,o),
(285,607,o),
(210,607,cs),
(135,607,o),
(84,559,o),
(84,483,cs),
(84,407,o),
(135,359,o),
(210,359,cs)
);
},
{
closed = 1;
nodes = (
(285,0,o),
(336,48,o),
(336,124,cs),
(336,200,o),
(285,248,o),
(210,248,cs),
(135,248,o),
(84,200,o),
(84,124,cs),
(84,48,o),
(135,0,o),
(210,0,cs)
);
},
{
closed = 1;
nodes = (
(149,21,o),
(105,59,o),
(105,124,cs),
(105,189,o),
(149,227,o),
(210,227,cs),
(271,227,o),
(315,189,o),
(315,124,cs),
(315,59,o),
(271,21,o),
(210,21,cs)
);
},
{
closed = 1;
nodes = (
(149,380,o),
(105,418,o),
(105,483,cs),
(105,548,o),
(149,586,o),
(210,586,cs),
(271,586,o),
(315,548,o),
(315,483,cs),
(315,418,o),
(271,380,o),
(210,380,cs)
);
}
);
width = 422;
},
{
anchors = (
{
name = top_vedic;
pos = (225,635);
}
);
background = {
shapes = (
{
closed = 1;
nodes = (
(319,336,o),
(391,394,o),
(391,486,cs),
(391,576,o),
(319,635,o),
(225,635,cs),
(132,635,o),
(60,575,o),
(60,486,cs),
(60,394,o),
(132,336,o),
(225,336,cs)
);
},
{
closed = 1;
nodes = (
(319,0,o),
(391,58,o),
(391,150,cs),
(391,240,o),
(319,299,o),
(225,299,cs),
(132,299,o),
(60,239,o),
(60,150,cs),
(60,58,o),
(132,0,o),
(225,0,cs)
);
},
{
closed = 1;
nodes = (
(199,105,o),
(180,123,o),
(180,150,cs),
(180,175,o),
(199,194,o),
(225,194,cs),
(252,194,o),
(272,175,o),
(272,150,cs),
(272,123,o),
(252,105,o),
(225,105,cs)
);
},
{
closed = 1;
nodes = (
(199,440,o),
(180,459,o),
(180,486,cs),
(180,511,o),
(199,530,o),
(225,530,cs),
(252,530,o),
(272,511,o),
(272,486,cs),
(272,459,o),
(252,440,o),
(225,440,cs)
);
}
);
};
layerId = "F455777D-7EDD-47E2-866A-D8A5173CE243";
shapes = (
{
closed = 1;
nodes = (
(319,336,o),
(391,394,o),
(391,486,cs),
(391,576,o),
(319,635,o),
(225,635,cs),
(132,635,o),
(60,575,o),
(60,486,cs),
(60,394,o),
(132,336,o),
(225,336,cs)
);
},
{
closed = 1;
nodes = (
(319,0,o),
(391,58,o),
(391,150,cs),
(391,240,o),
(319,299,o),
(225,299,cs),
(132,299,o),
(60,239,o),
(60,150,cs),
(60,58,o),
(132,0,o),
(225,0,cs)
);
},
{
closed = 1;
nodes = (
(199,105,o),
(180,123,o),
(180,150,cs),
(180,175,o),
(199,194,o),
(225,194,cs),
(252,194,o),
(272,175,o),
(272,150,cs),
(272,123,o),
(252,105,o),
(225,105,cs)
);
},
{
closed = 1;
nodes = (
(199,440,o),
(180,459,o),
(180,486,cs),
(180,511,o),
(199,530,o),
(225,530,cs),
(252,530,o),
(272,511,o),
(272,486,cs),
(272,459,o),
(252,440,o),
(225,440,cs)
);
}
);
width = 451;
}
);
script = bengali;
unicode = 2435;
},
{
category = Letter;
color = 5;
glyphname = "a-beng";
lastChange = "2024-11-28 18:19:52 +0000";
layers = (
{
anchors = (
{
name = top_candrabindu;
pos = (756,622);
},
{
name = top_vedic;
pos = (446,622);
}
);
background = {
anchors = (
{
name = Anchor8;
pos = (446,622);
},
{
name = top_candrabindu;
pos = (756,622);
}
);
shapes = (
{
closed = 1;
nodes = (
(798,0,l),
(798,551,l),
(903,551,l),
(903,622,l),
(-10,622,l),
(-10,551,l),
(721,551,l),
(721,194,ls),
(721,153,o),
(723,127,o),
(726,88,c),
(735,88,l),
(707,149,o),
(637,216,o),
(573,246,c),
(545,181,l),
(612,141,o),
(679,81,o),
(721,0,c)
);
},
{
closed = 1;
nodes = (
(533,91,o),
(606,185,o),
(606,294,cs),
(606,415,o),
(530,500,o),
(403,500,cs),
(324,500,o),
(277,459,o),
(277,401,cs),
(277,355,o),
(309,317,o),
(360,317,cs),
(410,317,o),
(439,349,o),
(439,401,cs),
(439,429,o),
(432,448,o),
(423,461,c),
(338,461,o),
(294,417,o),
(294,388,c),
(358,384,l),
(358,417,o),
(379,430,o),
(420,430,cs),
(485,430,o),
(530,377,o),
(530,300,cs),
(530,225,o),
(486,167,o),
(380,167,cs),
(245,167,o),
(158,257,o),
(105,484,c),
(32,467,l),
(103,170,o),
(236,91,o),
(384,91,cs)
);
},
{
closed = 1;
nodes = (
(428,468,l),
(422,525,o),
(393,559,o),
(321,589,c),
(248,556,l),
(311,542,o),
(342,508,o),
(349,465,c)
);
}
);
};
layerId = UUID0;
shapes = (
{
closed = 1;
nodes = (
(798,0,l),
(798,551,l),
(903,551,l),
(903,622,l),
(-10,622,l),
(-10,551,l),
(721,551,l),
(721,194,ls),
(721,153,o),
(723,127,o),
(726,88,c),
(735,88,l),
(707,149,o),
(637,216,o),
(573,246,c),
(545,181,l),
(612,141,o),
(679,81,o),
(721,0,c)
);
},
{
closed = 1;
nodes = (
(533,91,o),
(606,185,o),
(606,294,cs),
(606,415,o),
(530,500,o),
(403,500,cs),
(324,500,o),
(277,459,o),
(277,401,cs),
(277,355,o),
(309,317,o),
(360,317,cs),
(410,317,o),
(439,349,o),
(439,401,cs),
(439,429,o),
(432,448,o),
(423,461,c),
(338,461,o),
(294,417,o),
(294,388,c),
(358,384,l),
(358,417,o),
(379,430,o),
(420,430,cs),
(485,430,o),
(530,377,o),
(530,300,cs),
(530,225,o),
(486,167,o),
(380,167,cs),
(245,167,o),
(158,257,o),
(105,484,c),
(32,467,l),
(103,170,o),
(236,91,o),
(384,91,cs)
);
},
{
closed = 1;
nodes = (
(428,468,l),
(422,525,o),
(393,559,o),
(321,589,c),
(248,556,l),
(311,542,o),
(342,508,o),
(349,465,c)
);
}
);
width = 893;
},
{
anchors = (
{
name = top_candrabindu;
pos = (706,607);
},
{
name = top_vedic;
pos = (411,607);
}
);
background = {
anchors = (
{
name = Anchor8;
pos = (421,607);
},
{
name = top_candrabindu;
pos = (695,607);
}
);
shapes = (
{
closed = 1;
nodes = (
(717,0,l),
(717,586,l),
(833,586,l),
(833,607,l),
(-10,607,l),
(-10,586,l),
(696,586,l),
(696,166,ls),
(696,91,o),
(697,73,o),
(702,16,c),
(707,15,l),
(669,117,o),
(604,183,o),
(536,226,c),
(525,207,l),
(599,164,o),
(659,91,o),
(696,0,c)
);
},
{
closed = 1;
nodes = (
(488,122,o),
(563,191,o),
(563,306,cs),
(563,414,o),
(488,495,o),
(370,495,cs),
(306,495,o),
(272,466,o),
(272,431,cs),
(272,403,o),
(292,385,o),
(321,385,cs),
(350,385,o),
(369,404,o),
(369,432,cs),
(369,466,o),
(351,486,o),
(351,487,c),
(301,485,o),
(287,454,o),
(287,435,c),
(305,435,l),
(305,462,o),
(332,474,o),
(373,474,cs),
(476,474,o),
(541,404,o),
(541,306,cs),
(541,220,o),
(492,143,o),
(366,143,cs),
(248,143,o),
(134,212,o),
(56,478,c),
(34,472,l),
(119,187,o),
(240,122,o),
(368,122,cs)
);
},
{
closed = 1;
nodes = (
(354,490,l),
(332,536,o),
(294,581,o),
(228,600,c),
(212,587,l),
(272,573,o),
(315,529,o),
(332,487,c)
);
}
);
};
layerId = "28FB090A-653E-4199-B7BE-FAE23D31B682";
shapes = (
{
closed = 1;
nodes = (
(717,0,l),
(717,586,l),
(833,586,l),
(833,607,l),
(-10,607,l),
(-10,586,l),
(696,586,l),
(696,166,ls),
(696,91,o),
(697,73,o),
(702,16,c),
(707,15,l),
(669,117,o),
(604,183,o),
(536,226,c),
(525,207,l),
(599,164,o),
(659,91,o),
(696,0,c)
);
},
{
closed = 1;
nodes = (
(488,122,o),
(563,191,o),
(563,306,cs),
(563,414,o),
(488,495,o),
(370,495,cs),
(306,495,o),
(272,466,o),
(272,431,cs),
(272,403,o),
(292,385,o),
(321,385,cs),
(350,385,o),
(369,404,o),
(369,432,cs),
(369,466,o),
(351,486,o),
(350,487,c),
(301,485,o),
(287,454,o),
(287,435,c),
(305,435,l),
(305,462,o),
(332,474,o),
(373,474,cs),
(476,474,o),
(541,404,o),
(541,306,cs),
(541,220,o),
(492,143,o),
(366,143,cs),
(248,143,o),
(134,212,o),
(56,478,c),
(34,472,l),
(119,187,o),
(240,122,o),
(368,122,cs)
);
},
{
closed = 1;
nodes = (
(354,490,l),
(332,536,o),
(294,581,o),
(228,600,c),
(212,587,l),
(272,573,o),
(315,529,o),
(332,487,c)
);
}
);
width = 823;
},
{
anchors = (
{
name = top_candrabindu;
pos = (783,635);
},
{
name = top_vedic;
pos = (466,635);
}
);
background = {
anchors = (
{
name = Anchor8;
pos = (476,635);
},
{
name = top_candrabindu;
pos = (783,635);
}
);
shapes = (
{
closed = 1;
nodes = (
(870,0,l),
(870,505,l),
(949,505,l),
(949,635,l),
(-10,635,l),
(-10,505,l),
(711,505,l),
(711,230,ls),
(711,199,o),
(714,160,o),
(717,133,c),
(736,133,l),
(702,182,o),
(644,227,o),
(592,248,c),
(524,141,l),
(598,113,o),
(656,77,o),
(712,0,c)
);
},
{
closed = 1;
nodes = (
(584,30,o),
(648,157,o),
(648,259,cs),
(648,376,o),
(574,474,o),
(429,474,cs),
(325,474,o),
(266,420,o),
(266,348,cs),
(266,285,o),
(312,242,o),
(373,242,cs),
(428,242,o),
(469,279,o),
(469,332,cs),
(469,361,o),
(463,400,o),
(459,412,c),
(334,412,o),
(305,370,o),
(305,332,c),
(414,309,l),
(414,328,o),
(425,348,o),
(449,348,cs),
(480,348,o),
(498,324,o),
(498,281,cs),
(498,219,o),
(453,180,o),
(379,180,cs),
(258,180,o),
(200,275,o),
(160,466,c),
(15,434,l),
(73,152,o),
(201,30,o),
(393,30,cs)
);
},
{
closed = 1;
nodes = (
(459,418,l),
(451,475,o),
(423,518,o),
(358,549,c),
(221,513,l),
(284,498,o),
(319,459,o),
(324,415,c)
);
}
);
};
layerId = "F455777D-7EDD-47E2-866A-D8A5173CE243";
shapes = (
{
closed = 1;
nodes = (
(870,0,l),
(870,505,l),
(943,505,l),
(943,635,l),
(-10,635,l),
(-10,505,l),
(711,505,l),
(711,230,ls),
(711,199,o),
(714,160,o),
(717,133,c),
(736,133,l),
(702,182,o),
(644,227,o),
(592,248,c),
(524,141,l),
(598,113,o),
(656,77,o),
(712,0,c)
);
},
{
closed = 1;
nodes = (
(584,30,o),
(648,157,o),
(648,259,cs),
(648,376,o),
(574,474,o),
(429,474,cs),
(325,474,o),
(266,420,o),
(266,348,cs),
(266,285,o),
(312,242,o),
(373,242,cs),
(428,242,o),
(469,279,o),
(469,332,cs),
(469,361,o),
(463,400,o),
(459,412,c),
(334,412,o),
(305,370,o),
(305,332,c),
(414,309,l),
(414,328,o),
(425,348,o),
(449,348,cs),
(480,348,o),
(498,324,o),
(498,281,cs),
(498,219,o),
(453,180,o),
(379,180,cs),
(258,180,o),
(200,275,o),
(160,466,c),
(15,434,l),
(73,152,o),
(201,30,o),
(393,30,cs)
);
},
{
closed = 1;
nodes = (
(459,418,l),
(451,475,o),
(423,518,o),
(358,549,c),
(221,513,l),
(284,498,o),
(319,459,o),
(324,415,c)
);
}
);
width = 933;
}
);
script = bengali;
subCategory = Spacing;
unicode = 2437;
},
{
category = Letter;
color = 5;
glyphname = "i-beng";
lastChange = "2024-11-28 18:22:33 +0000";
layers = (
{
anchors = (
{
name = top_candrabindu;
pos = (285,648);
},
{
name = top_vedic;
pos = (285,622);
}
);
background = {
anchors = (
{
name = Anchor8;
pos = (265,622);
}
);
shapes = (
{
closed = 1;
nodes = (
(430,617,l),
(426,728,o),
(366,776,o),
(256,776,cs),
(175,776,ls),
(95,776,o),
(65,802,o),
(65,869,cs),
(65,879,o),
(66,891,o),
(69,907,c),
(-5,912,l),
(-8,893,o),
(-10,876,o),
(-10,861,cs),
(-10,749,o),
(65,704,o),
(186,704,cs),
(276,704,ls),
(337,704,o),
(358,682,o),
(358,617,c)
);
},
{
ref = "ha-beng";
}
);
};
layerId = UUID0;
shapes = (
{
closed = 1;
nodes = (
(430,617,l),
(426,728,o),
(366,776,o),
(256,776,cs),
(175,776,ls),
(95,776,o),
(65,802,o),
(65,869,cs),
(65,879,o),
(66,891,o),
(69,907,c),
(-5,912,l),
(-8,893,o),
(-10,876,o),
(-10,861,cs),
(-10,749,o),
(65,704,o),
(186,704,cs),
(276,704,ls),
(337,704,o),
(358,682,o),
(358,617,c)
);
},
{
ref = "ha-beng";
}
);
width = 534;
},
{
anchors = (
{
name = top_candrabindu;
pos = (251,635);
},
{
name = top_vedic;
pos = (251,607);
}
);
background = {
anchors = (
{
name = Anchor8;
pos = (257,622);
}
);
shapes = (
{
closed = 1;
nodes = (
(388,602,l),
(387,701,o),
(337,739,o),
(251,739,cs),
(151,739,ls),
(60,739,o),
(17,758,o),
(17,847,cs),
(17,862,o),
(19,881,o),
(21,895,c),
(0,897,l),
(-2,883,o),
(-4,863,o),
(-4,847,cs),
(-4,742,o),
(51,718,o),
(152,718,cs),
(251,718,ls),
(340,718,o),
(365,679,o),
(367,602,c)
);
},
{
alignment = -1;
ref = "ha-beng";
}
);
};
layerId = "28FB090A-653E-4199-B7BE-FAE23D31B682";
shapes = (
{
closed = 1;
nodes = (
(388,602,l),
(388,701,o),
(337,739,o),
(251,739,cs),
(151,739,ls),
(60,739,o),
(17,758,o),
(17,847,cs),
(17,862,o),
(19,881,o),
(21,895,c),
(0,897,l),
(-2,883,o),
(-4,863,o),
(-4,847,cs),
(-4,742,o),
(51,718,o),
(152,718,cs),
(251,718,ls),
(340,718,o),
(367,679,o),
(367,602,c)
);
},
{
alignment = -1;
ref = "ha-beng";
}
);
width = 499;
},
{
anchors = (
{
name = top_candrabindu;
pos = (382,675);
},
{
name = top_vedic;
pos = (295,635);
}
);
background = {
anchors = (
{
name = Anchor8;
pos = (295,635);
}
);
shapes = (
{
closed = 1;
nodes = (
(505,626,l),
(505,762,o),
(417,823,o),
(298,823,cs),
(212,823,ls),
(169,823,o),
(146,838,o),
(146,879,cs),
(146,885,o),
(147,895,o),
(149,905,c),
(-5,915,l),
(-9,897,o),
(-11,882,o),
(-11,864,cs),
(-11,742,o),
(77,685,o),
(217,685,cs),
(287,685,ls),
(333,685,o),
(349,667,o),
(349,626,c)
);
},
{
alignment = -1;
ref = "ha-beng";
}
);
};
layerId = "F455777D-7EDD-47E2-866A-D8A5173CE243";
shapes = (
{
closed = 1;
nodes = (
(505,626,l),
(505,762,o),
(417,823,o),
(298,823,cs),
(212,823,ls),
(169,823,o),
(146,838,o),
(146,879,cs),
(146,885,o),
(147,895,o),
(149,905,c),
(-5,915,l),
(-9,897,o),
(-11,882,o),
(-11,864,cs),
(-11,742,o),
(77,685,o),
(217,685,cs),
(287,685,ls),
(333,685,o),
(349,667,o),
(349,626,c)
);
},
{
alignment = -1;
ref = "ha-beng";
}
);
width = 561;
}
);
script = bengali;
subCategory = Spacing;
unicode = 2439;
},
{
category = Letter;
color = 5;
glyphname = "ii-beng";
lastChange = "2024-11-28 18:19:52 +0000";
layers = (
{
anchors = (
{
name = top_vedic;
pos = (360,622);
}
);
associatedMasterId = UUID0;
background = {
shapes = (
{
closed = 1;
nodes = (
(306.55,64.77,o),
(351.02,98.38,o),
(408.36,187.38,cs),
(462.71,268.7,o),
(514.76,314.61,o),
(581.1,345.9,c),
(549.81,376.6,l),
(515.15,321.99,o),
(491.34,254.06,o),
(491.34,183.45,cs),
(491.34,120.7,o),
(503.9,49.09,o),
(525.07,-11.27,c),
(658.02,16.71,l),
(638.9,75.07,o),
(629.12,130.9,o),
(629.12,186.97,cs),
(629.12,255.5,o),
(639.24,315.33,o),
(669.53,373.96,c),
(565.59,464.8,l),
(469.87,419.22,o),
(393.91,344,o),
(339.15,264.29,c),
(418.99,267.92,l),
(419.99,278.19,o),
(420.99,293.85,o),
(420.99,307.34,cs),
(403.91,413.85,o),
(333.64,477.43,o),
(211.76,477.43,cs),
(125.29,477.43,o),
(46.53,444.6,o),
(46.53,357.62,cs),
(46.53,333.74,o),
(52.36,304.08,o),
(64.14,279.74,c),
(186.16,301.01,l),
(181.99,311.35,o),
(179.82,320.47,o),
(179.82,332.81,cs),
(179.82,353.27,o),
(193.94,368.78,o),
(221.08,368.78,cs),
(269.46,368.78,o),
(294.82,325.25,o),
(294.82,280.72,cs),
(294.82,250.5,o),
(286.26,231.21,o),
(270.19,212.63,cs),
(249.39,188.15,o),
(235.49,181.03,o),
(219.59,181.03,cs),
(197.86,181.03,o),
(181.86,194.64,o),
(159.52,229.93,c),
(67.36,174.02,l),
(108.58,105.14,o),
(161.56,64.77,o),
(232.74,64.77,cs)
);
},
{
closed = 1;
nodes = (
(-10,622,l),
(-10,510.13,l),
(731.94,510.13,l),
(731.94,622,l)
);
},
{
closed = 1;
nodes = (
(262.38,428.35,l),
(255.16,485.35,o),
(226.38,521.18,o),
(151.99,551.79,c),
(104.77,561.35,l),
(35.63,516.96,l),
(98.63,502.35,o),
(133.07,468.96,o),
(138.85,425.35,c)
);
},
{
closed = 1;
nodes = (
(612.22,622,l),
(609,689.81,o),
(595.56,732.13,o),
(565.24,758.4,cs),
(532.36,787.01,o),
(492.75,796.01,o),
(415.65,796.01,cs),
(285.89,796.01,ls),
(230.87,796.01,o),
(207.19,801.74,o),
(191.24,816.64,cs),
(177.85,828.59,o),
(172.85,846.71,o),
(172.85,873.88,cs),
(172.85,881.44,o),
(173.85,892.22,o),
(176.24,905.78,c),
(46.73,913.83,l),
(43.12,891.78,o),
(41.12,873.56,o),
(41.12,855.34,cs),
(41.12,801.34,o),
(55.46,761.17,o),
(84.14,734.17,cs),
(120.8,697.58,o),
(174.61,684.36,o),
(279.08,684.36,cs),
(415.69,684.36,ls),
(464.37,684.36,o),
(479.66,666.02,o),
(482.27,622,c)
);
}
);
};
layerId = "ce1cc9a6-4a4a-4490-9721-f75e5b1629d9";
name = "Bold Semi (intermediate)";
shapes = (
{
closed = 1;
nodes = (
(292,65,o),
(331,96,o),
(396,192,cs),
(464,292,o),
(526,334,o),
(610,364,c),
(530,368,l),
(502,318,o),
(487,260,o),
(487,197,cs),
(487,132,o),
(499,63,o),
(523,-11,c),
(653,16,l),
(630,84,o),
(620,144,o),
(620,193,cs),
(620,259,o),
(632,315,o),
(662,364,c),
(560,464,l),
(458,421,o),
(380,351,o),
(334,282,c),
(408,254,l),
(410,268,o),
(411,289,o),
(411,307,c),
(404,406,o),
(326,484,o),
(204,484,cs),
(127,484,o),
(42,451,o),
(42,367,cs),
(42,343,o),
(46,316,o),
(55,293,c),
(178,311,l),
(174,322,o),
(172,333,o),
(172,342,cs),
(172,364,o),
(188,379,o),
(216,379,cs),
(267,379,o),
(297,328,o),
(297,283,cs),
(297,258,o),
(288,234,o),
(270,215,cs),
(251,194,o),
(234,181,o),
(213,181,cs),
(191,181,o),
(175,194,o),
(150,234,c),
(58,178,l),
(102,104,o),
(148,65,o),
(219,65,cs)
);
},
{
closed = 1;
nodes = (
(-10,622,l),
(-10,512,l),
(731,512,l),
(731,622,l)
);
},
{
closed = 1;
nodes = (
(264,431,l),
(258,488,o),
(229,522,o),
(153,553,c),
(107,564,l),
(32,520,l),
(95,505,o),
(127,472,o),
(134,428,c)
);
},
{
closed = 1;
nodes = (
(610,622,l),
(608,684,o),
(594,724,o),
(569,749,cs),
(537,780,o),
(496,790,o),
(417,790,cs),
(271,790,ls),
(220,790,o),
(202,797,o),
(188,810,cs),
(173,824,o),
(168,847,o),
(168,875,cs),
(168,883,o),
(169,892,o),
(170,904,c),
(45,912,l),
(41,888,o),
(40,874,o),
(40,854,cs),
(40,805,o),
(51,767,o),
(76,739,cs),
(112,699,o),
(173,680,o),
(274,680,cs),
(416,680,ls),
(467,680,o),
(483,663,o),
(485,622,c)
);
}
);
width = 721;
},
{
anchors = (
{
name = top_candrabindu;
pos = (345,648);
},
{
name = top_vedic;
pos = (344,622);
}
);
background = {
anchors = (
{
name = Anchor8;
pos = (344,622);
}
);
shapes = (
{
closed = 1;
nodes = (
(607,12,l),
(584,83,o),
(573,137,o),
(573,201,cs),
(573,286,o),
(587,344,o),
(618,417,c),
(542,486,l),
(424,423,o),
(370,349,o),
(325,276,c),
(383,287,l),
(384,293,o),
(385,305,o),
(385,313,cs),
(385,425,o),
(309,500,o),
(199,500,cs),
(115,500,o),
(61,458,o),
(61,401,cs),
(61,361,o),
(86,326,o),
(135,326,cs),
(182,326,o),
(211,355,o),
(211,402,cs),
(211,430,o),
(207,449,o),
(204,462,c),
(113,462,o),
(69,418,o),
(69,389,c),
(133,385,l),
(133,418,o),
(154,431,o),
(210,431,cs),
(280,431,o),
(318,386,o),
(318,325,cs),
(318,286,o),
(307,255,o),
(288,229,cs),
(258,189,o),
(233,177,o),
(206,177,cs),
(175,177,o),
(150,190,o),
(125,232,c),
(65,199,l),
(105,129,o),
(156,103,o),
(207,103,cs),
(260,103,o),
(307,135,o),
(362,213,cs),
(456,348,o),
(505,375,o),
(575,413,c),
(530,405,l),
(506,348,o),
(495,287,o),
(495,217,cs),
(495,139,o),
(509,68,o),
(533,-7,c)
);
},
{
closed = 1;
nodes = (
(204,469,l),
(198,526,o),
(169,560,o),
(97,590,c),
(24,557,l),
(87,543,o),
(118,509,o),
(125,466,c)
);
},
{
closed = 1;
nodes = (
(699,551,l),
(699,622,l),
(-10,622,l),
(-10,551,l)
);
},
{
closed = 1;
nodes = (
(550,617,l),
(546,728,o),
(486,776,o),
(376,776,cs),
(246,776,ls),
(166,776,o),
(121,802,o),
(121,869,cs),
(121,879,o),
(122,891,o),
(125,907,c),
(51,912,l),
(48,893,o),
(46,876,o),
(46,859,cs),
(46,749,o),
(131,704,o),
(262,704,cs),
(396,704,ls),
(457,704,o),
(478,682,o),
(478,617,c)
);
}
);
};
guides = (
{
angle = 90;
pos = (61,401);
}
);
layerId = UUID0;
shapes = (
{
closed = 1;
nodes = (
(607,12,l),
(584,83,o),
(573,137,o),
(573,201,cs),
(573,286,o),
(587,344,o),
(618,417,c),
(542,486,l),
(433,423,o),
(370,355,o),
(322,285,c),
(383,287,l),
(384,293,o),
(385,305,o),
(385,313,cs),
(385,425,o),
(309,500,o),
(199,500,cs),
(115,500,o),
(61,458,o),
(61,401,cs),
(61,361,o),
(86,326,o),
(135,326,cs),
(182,326,o),
(211,355,o),
(211,402,cs),
(211,430,o),
(207,449,o),
(204,462,c),
(113,462,o),
(69,418,o),
(69,389,c),
(133,385,l),
(133,418,o),
(154,431,o),
(210,431,cs),
(280,431,o),
(318,386,o),
(318,325,cs),
(318,286,o),
(307,255,o),
(288,229,cs),
(258,189,o),
(233,177,o),
(206,177,cs),
(175,177,o),
(150,190,o),
(125,232,c),
(65,199,l),
(105,129,o),
(156,103,o),
(207,103,cs),
(260,103,o),
(307,135,o),
(362,213,cs),
(456,348,o),
(505,375,o),
(575,413,c),
(530,405,l),
(506,348,o),
(495,287,o),
(495,217,cs),
(495,139,o),
(509,68,o),
(533,-7,c)
);
},
{
closed = 1;
nodes = (
(204,469,l),
(198,526,o),
(169,560,o),
(97,590,c),
(34,557,l),
(97,543,o),
(128,509,o),
(135,466,c)
);
},
{
closed = 1;
nodes = (
(699,551,l),
(699,622,l),
(-10,622,l),
(-10,551,l)
);
},
{
closed = 1;
nodes = (
(550,617,l),
(546,728,o),
(486,776,o),
(376,776,cs),
(246,776,ls),
(166,776,o),
(121,802,o),
(121,869,cs),
(121,879,o),
(122,891,o),
(125,907,c),
(51,912,l),
(48,893,o),
(46,876,o),
(46,859,cs),
(46,749,o),
(131,704,o),
(262,704,cs),
(396,704,ls),
(457,704,o),
(478,682,o),
(478,617,c)
);
}
);
width = 689;
},
{
anchors = (
{
name = top_vedic;
pos = (344,622);
}
);
associatedMasterId = UUID0;
background = {
anchors = (
{
name = Anchor8;
pos = (344,622);
}
);
shapes = (
{
closed = 1;
nodes = (
(273,91,o),
(301,124,o),
(362,213,cs),
(456,348,o),
(505,375,o),
(575,413,c),
(537,401,l),
(506,347,o),
(495,287,o),
(495,217,cs),
(495,139,o),
(510,68,o),
(533,-7,c),
(608,10,l),
(584,83,o),
(573,137,o),
(573,201,cs),
(573,286,o),
(588,344,o),
(625,413,c),
(554,477,l),
(429,418,o),
(375,344,o),
(330,271,c),
(383,285,l),
(384,291,o),
(385,303,o),
(385,311,cs),
(385,423,o),
(319,500,o),
(202,500,cs),
(132,500,o),
(63,469,o),
(63,393,cs),
(63,374,o),
(67,348,o),
(80,320,c),
(152,337,l),
(146,351,o),
(142,365,o),
(142,381,cs),
(142,410,o),
(161,431,o),
(204,431,cs),
(278,431,o),
(318,371,o),
(318,310,cs),
(318,281,o),
(307,255,o),
(283,223,cs),
(250,179,o),
(230,167,o),
(208,167,cs),
(182,167,o),
(166,180,o),
(140,222,c),
(82,185,l),
(122,121,o),
(164,91,o),
(212,91,cs)
);
},
{
closed = 1;
nodes = (
(-10,622,l),
(-10,551,l),
(699,551,l),
(699,622,l)
);
},
{
closed = 1;
nodes = (
(227,468,l),
(221,525,o),
(191,559,o),
(116,589,c),
(70,601,l),
(46,556,l),
(109,542,o),
(141,508,o),
(148,465,c)
);
},
{
closed = 1;
nodes = (
(550,622,l),
(548,677,o),
(537,712,o),
(514,734,cs),
(486,762,o),
(447,771,o),
(376,771,cs),
(256,771,ls),
(190,771,o),
(159,781,o),
(140,802,cs),
(126,817,o),
(121,840,o),
(121,869,cs),
(121,879,o),
(122,891,o),
(125,907,c),
(51,912,l),
(48,893,o),
(46,876,o),
(46,859,cs),
(46,805,o),
(64,763,o),
(100,736,cs),
(133,711,o),
(174,699,o),
(262,699,cs),
(398,699,ls),
(454,699,o),
(476,677,o),
(478,622,c)
);
}
);
};
layerId = "3447090B-B6CD-4EF3-98C1-C05F8B15B112";
name = "7 May 24 at 23:12";
shapes = (
{
closed = 1;
nodes = (
(273,91,o),
(301,124,o),
(362,213,cs),
(456,348,o),
(505,375,o),
(575,413,c),
(537,401,l),
(506,347,o),
(495,287,o),
(495,217,cs),
(495,139,o),
(510,68,o),
(533,-7,c),
(608,10,l),
(584,83,o),
(573,137,o),
(573,201,cs),
(573,286,o),
(588,344,o),
(625,413,c),
(554,477,l),
(429,418,o),
(375,344,o),
(330,271,c),
(383,285,l),
(384,291,o),
(385,303,o),
(385,311,cs),
(385,423,o),
(319,500,o),
(202,500,cs),
(132,500,o),
(63,469,o),
(63,393,cs),
(63,374,o),
(67,348,o),
(80,320,c),
(152,337,l),
(146,351,o),
(142,365,o),
(142,381,cs),
(142,410,o),
(161,431,o),
(204,431,cs),
(278,431,o),
(318,371,o),
(318,310,cs),
(318,281,o),
(307,255,o),
(283,223,cs),
(250,179,o),
(230,167,o),
(208,167,cs),
(182,167,o),
(166,180,o),
(140,222,c),
(82,185,l),
(122,121,o),
(164,91,o),
(212,91,cs)
);
},
{
closed = 1;
nodes = (
(-10,622,l),
(-10,551,l),
(699,551,l),
(699,622,l)
);
},
{
closed = 1;
nodes = (
(227,468,l),
(221,525,o),
(191,559,o),
(116,589,c),
(70,601,l),
(46,556,l),
(109,542,o),
(141,508,o),
(148,465,c)
);
},
{
closed = 1;
nodes = (
(550,622,l),
(548,677,o),
(537,712,o),
(514,734,cs),
(486,762,o),
(447,771,o),
(376,771,cs),
(256,771,ls),
(190,771,o),
(159,781,o),
(140,802,cs),
(126,817,o),
(121,840,o),
(121,869,cs),
(121,879,o),
(122,891,o),
(125,907,c),
(51,912,l),
(48,893,o),
(46,876,o),
(46,859,cs),
(46,805,o),
(64,763,o),
(100,736,cs),
(133,711,o),
(174,699,o),
(262,699,cs),
(398,699,ls),
(454,699,o),
(476,677,o),
(478,622,c)
);
}
);
width = 689;
},
{
anchors = (
{
name = top_vedic;
pos = (344,622);
}
);
associatedMasterId = UUID0;
background = {
anchors = (
{
name = Anchor8;
pos = (344,622);
}
);
shapes = (
{
closed = 1;
nodes = (
(273,91,o),
(301,124,o),
(362,213,cs),
(456,348,o),
(505,375,o),
(575,413,c),
(537,401,l),
(506,347,o),
(495,287,o),
(495,217,cs),
(495,139,o),
(510,68,o),
(533,-7,c),
(608,10,l),
(584,83,o),
(573,137,o),
(573,201,cs),
(573,286,o),
(588,344,o),
(625,413,c),
(554,477,l),
(429,418,o),
(375,344,o),
(330,271,c),
(383,285,l),
(384,291,o),
(385,303,o),
(385,311,cs),
(385,423,o),
(319,500,o),
(202,500,cs),
(132,500,o),
(63,469,o),
(63,393,cs),
(63,374,o),
(67,348,o),
(80,320,c),
(152,337,l),
(146,351,o),
(142,365,o),
(142,381,cs),
(142,410,o),
(161,431,o),
(204,431,cs),
(278,431,o),
(318,371,o),
(318,310,cs),
(318,281,o),
(307,255,o),
(283,223,cs),
(250,179,o),
(230,167,o),
(208,167,cs),
(182,167,o),
(166,180,o),
(140,222,c),
(82,185,l),
(122,121,o),
(164,91,o),
(212,91,cs)
);
},
{
closed = 1;
nodes = (
(-10,622,l),
(-10,551,l),
(699,551,l),
(699,622,l)
);
},
{
closed = 1;
nodes = (
(227,468,l),
(221,525,o),
(191,559,o),
(116,589,c),
(70,601,l),
(46,556,l),
(109,542,o),
(141,508,o),
(148,465,c)
);
},
{
closed = 1;
nodes = (
(550,622,l),
(548,677,o),
(537,712,o),
(514,734,cs),
(486,762,o),
(447,771,o),
(376,771,cs),
(256,771,ls),
(190,771,o),
(159,781,o),
(140,802,cs),
(126,817,o),
(121,840,o),
(121,869,cs),
(121,879,o),
(122,891,o),
(125,907,c),
(51,912,l),
(48,893,o),
(46,876,o),
(46,859,cs),
(46,805,o),
(64,763,o),
(100,736,cs),
(133,711,o),
(174,699,o),
(262,699,cs),
(398,699,ls),
(454,699,o),
(476,677,o),
(478,622,c)
);
}
);
};
layerId = "615B6F79-A753-439E-8090-DAD56F090233";
name = "9 May 24 at 16:04";
shapes = (
{
closed = 1;
nodes = (
(607,12,l),
(584,83,o),
(573,137,o),
(573,201,cs),
(573,286,o),
(588,344,o),
(625,413,c),
(549,482,l),
(424,423,o),
(370,349,o),
(325,276,c),
(383,287,l),
(384,293,o),
(385,305,o),
(385,313,cs),
(385,425,o),
(309,500,o),
(199,500,cs),
(132,500,o),
(63,460,o),
(63,384,cs),
(63,340,o),
(87,301,o),
(139,301,cs),
(176,301,o),
(203,324,o),
(203,362,cs),
(203,399,o),
(180,421,o),
(144,421,cs),
(112,421,o),
(87,395,o),
(87,369,c),
(142,381,l),
(142,411,o),
(166,431,o),
(210,431,cs),
(280,431,o),
(318,386,o),
(318,325,cs),
(318,286,o),
(307,255,o),
(283,223,cs),
(250,179,o),
(232,167,o),
(208,167,cs),
(182,167,o),
(163,179,o),
(140,222,c),
(80,189,l),
(114,117,o),
(162,93,o),
(208,93,cs),
(261,93,o),
(301,124,o),
(362,213,cs),
(456,348,o),
(505,375,o),
(575,413,c),
(537,401,l),
(506,347,o),
(495,287,o),
(495,217,cs),
(495,139,o),
(509,68,o),
(533,-7,c)
);
},
{
closed = 1;
nodes = (
(227,468,l),
(221,525,o),
(191,559,o),
(116,589,c),
(70,601,l),
(46,556,l),
(109,542,o),
(141,508,o),
(148,465,c)
);
},
{
closed = 1;
nodes = (
(699,551,l),
(699,622,l),
(-10,622,l),
(-10,551,l)
);
},
{
closed = 1;
nodes = (
(550,617,l),
(546,728,o),
(486,776,o),
(376,776,cs),
(246,776,ls),
(166,776,o),
(121,802,o),
(121,869,cs),
(121,879,o),
(122,891,o),
(125,907,c),
(51,912,l),
(48,893,o),
(46,876,o),
(46,859,cs),
(46,749,o),
(131,704,o),
(262,704,cs),
(396,704,ls),
(457,704,o),
(476,682,o),
(478,617,c)
);
}
);
width = 689;
},
{
anchors = (
{
name = top_candrabindu;
pos = (322,635);
},
{
name = top_vedic;
pos = (321,607);
}
);
background = {
anchors = (
{
name = Anchor8;
pos = (332,607);
}
);
shapes = (
{
closed = 1;
nodes = (
(564,3,l),
(539,85,o),
(524,150,o),
(524,227,cs),
(524,298,o),
(535,368,o),
(576,467,c),
(559,481,l),
(470,428,o),
(385,345,o),
(341,273,c),
(351,275,l),
(354,293,o),
(356,316,o),
(356,336,cs),
(356,425,o),
(302,500,o),
(191,500,cs),
(123,500,o),
(91,471,o),
(91,438,cs),
(91,416,o),
(107,400,o),
(132,400,cs),
(164,400,o),
(177,420,o),
(177,449,cs),
(177,471,o),
(173,484,o),
(171,492,c),
(116,491,o),
(101,459,o),
(101,440,c),
(118,439,l),
(118,461,o),
(139,479,o),
(197,479,cs),
(301,479,o),
(335,406,o),
(335,338,cs),
(335,278,o),
(320,244,o),
(300,218,cs),
(266,171,o),
(240,157,o),
(206,157,cs),
(172,157,o),
(140,169,o),
(109,228,c),
(90,218,l),
(123,153,o),
(165,136,o),
(206,136,cs),
(242,136,o),
(280,154,o),
(316,206,cs),
(420,355,o),
(484,412,o),
(566,464,c),
(557,470,l),
(520,383,o),
(503,306,o),
(503,227,cs),
(503,147,o),
(520,78,o),
(543,-2,c)
);
},
{
closed = 1;
nodes = (
(169,490,l),
(147,538,o),
(110,585,o),
(43,605,c),
(28,591,l),
(88,577,o),
(130,531,o),
(148,487,c)
);
},
{
closed = 1;
nodes = (
(652,586,l),
(652,607,l),
(-10,607,l),
(-10,586,l)
);
},
{
closed = 1;
nodes = (
(514,602,l),
(513,701,o),
(463,739,o),
(377,739,cs),
(219,739,ls),
(128,739,o),
(85,758,o),
(85,847,cs),
(85,862,o),
(87,881,o),
(89,895,c),
(68,897,l),
(66,883,o),
(64,863,o),
(64,847,cs),
(64,742,o),
(119,718,o),
(220,718,cs),
(377,718,ls),
(466,718,o),
(491,679,o),
(493,602,c)
);
}
);
};
layerId = "28FB090A-653E-4199-B7BE-FAE23D31B682";
shapes = (
{
closed = 1;
nodes = (
(564,3,l),
(539,85,o),
(524,150,o),
(524,227,cs),
(524,298,o),
(535,368,o),
(576,467,c),
(559,481,l),
(470,428,o),
(385,345,o),
(341,273,c),
(351,275,l),
(354,293,o),
(356,316,o),
(356,336,cs),
(356,425,o),
(302,500,o),
(191,500,cs),
(123,500,o),
(91,471,o),
(91,438,cs),
(91,416,o),
(107,400,o),
(132,400,cs),
(164,400,o),
(177,420,o),
(177,449,cs),
(177,471,o),
(173,484,o),
(169,492,c),
(116,492,o),
(101,459,o),
(101,440,c),
(118,439,l),
(118,461,o),
(139,479,o),
(197,479,cs),
(301,479,o),
(335,406,o),
(335,338,cs),
(335,278,o),
(320,245,o),
(300,218,cs),
(265,171,o),
(240,157,o),
(206,157,cs),
(172,157,o),
(140,169,o),
(109,228,c),
(90,218,l),
(123,153,o),
(165,136,o),
(206,136,cs),
(242,136,o),
(280,154,o),
(316,206,cs),
(420,355,o),
(484,412,o),
(566,464,c),
(557,470,l),
(520,383,o),
(503,306,o),
(503,227,cs),
(503,147,o),
(520,78,o),
(543,-2,c)
);
},
{
closed = 1;
nodes = (
(169,490,l),
(147,538,o),
(110,585,o),
(43,605,c),
(30,591,l),
(90,577,o),
(132,531,o),
(150,487,c)
);
},
{
closed = 1;
nodes = (
(652,586,l),
(652,607,l),
(-10,607,l),
(-10,586,l)
);
},
{
closed = 1;
nodes = (
(514,602,l),
(514,701,o),
(463,739,o),
(377,739,cs),
(219,739,ls),
(128,739,o),
(85,758,o),
(85,847,cs),
(85,862,o),
(87,881,o),
(89,895,c),
(68,897,l),
(66,883,o),
(64,863,o),
(64,847,cs),
(64,742,o),
(119,718,o),
(220,718,cs),
(377,718,ls),
(466,718,o),
(493,679,o),
(493,602,c)
);
}
);
width = 642;
},
{
anchors = (
{
name = top_candrabindu;
pos = (441,683);
},
{
name = top_vedic;
pos = (339,635);
}
);
background = {
anchors = (
{
name = Anchor8;
pos = (346,635);
}
);
shapes = (
{
closed = 1;
nodes = (
(637,1,l),
(618,52,o),
(606,109,o),
(606,177,cs),
(606,253,o),
(618,312,o),
(650,391,c),
(516,483,l),
(436,432,o),
(374,369,o),
(330,271,c),
(395,271,l),
(396,280,o),
(396,290,o),
(396,301,cs),
(396,415,o),
(302,477,o),
(187,477,cs),
(91,477,o),
(31,427,o),
(31,359,cs),
(31,305,o),
(68,264,o),
(128,264,cs),
(185,264,o),
(222,301,o),
(222,354,cs),
(222,376,o),
(217,400,o),
(211,414,c),
(82,414,o),
(69,375,o),
(69,336,c),
(178,329,l),
(178,346,o),
(190,358,o),
(214,358,cs),
(249,358,o),
(271,337,o),
(271,292,cs),
(271,260,o),
(264,228,o),
(252,209,cs),
(240,191,o),
(227,180,o),
(206,180,cs),
(181,180,o),
(163,195,o),
(146,226,c),
(31,160,l),
(71,87,o),
(135,39,o),
(213,39,cs),
(286,39,o),
(339,76,o),
(388,163,cs),
(438,251,o),
(468,275,o),
(532,314,c),
(512,362,l),
(468,294,o),
(447,227,o),
(447,140,cs),
(447,69,o),
(457,8,o),
(476,-40,c)
);
},
{
closed = 1;
nodes = (
(236,428,l),
(224,485,o),
(200,518,o),
(126,549,c),
(-2,513,l),
(61,498,o),
(92,469,o),
(97,425,c)
);
},
{
closed = 1;
nodes = (
(689,505,l),
(689,635,l),
(-10,635,l),
(-10,505,l)
);
},
{
closed = 1;
nodes = (
(627,626,l),
(627,762,o),
(539,823,o),
(420,823,cs),
(256,823,ls),
(207,823,o),
(183,838,o),
(183,879,cs),
(183,885,o),
(184,895,o),
(186,905,c),
(32,915,l),
(28,897,o),
(26,882,o),
(26,863,cs),
(26,742,o),
(115,685,o),
(273,685,cs),
(409,685,ls),
(454,685,o),
(471,667,o),
(471,626,c)
);
}
);
};
layerId = "F455777D-7EDD-47E2-866A-D8A5173CE243";
shapes = (
{
closed = 1;
nodes = (
(637,1,l),
(618,52,o),
(606,109,o),
(606,177,cs),
(606,253,o),
(618,312,o),
(650,391,c),
(516,483,l),
(436,432,o),
(374,369,o),
(310,271,c),
(395,271,l),
(396,280,o),
(396,290,o),
(396,301,cs),
(396,415,o),
(302,477,o),
(187,477,cs),
(91,477,o),
(31,427,o),
(31,359,cs),
(31,305,o),
(68,264,o),
(128,264,cs),
(185,264,o),
(222,301,o),
(222,354,cs),
(222,376,o),
(217,400,o),
(211,414,c),
(82,414,o),
(69,375,o),
(69,336,c),
(178,329,l),
(178,346,o),
(190,358,o),
(214,358,cs),
(249,358,o),
(271,337,o),
(271,292,cs),
(271,260,o),
(264,228,o),
(252,209,cs),
(240,191,o),
(227,180,o),
(206,180,cs),
(181,180,o),
(163,195,o),
(146,226,c),
(31,160,l),
(71,87,o),
(135,39,o),
(213,39,cs),
(286,39,o),
(337,76,o),
(388,162,cs),
(440,250,o),
(468,275,o),
(532,314,c),
(512,362,l),
(468,294,o),
(447,227,o),
(447,140,cs),
(447,69,o),
(457,8,o),
(476,-40,c)
);
},
{
closed = 1;
nodes = (
(228,428,l),
(216,485,o),
(177,528,o),
(118,549,c),
(10,513,l),
(70,503,o),
(106,466,o),
(109,425,c)
);
},
{
closed = 1;
nodes = (
(689,505,l),
(689,635,l),
(-10,635,l),
(-10,505,l)
);
},
{
closed = 1;
nodes = (
(627,626,l),
(627,762,o),
(539,823,o),
(420,823,cs),
(256,823,ls),
(207,823,o),
(183,838,o),
(183,879,cs),
(183,885,o),
(184,895,o),
(186,905,c),
(32,915,l),
(28,897,o),
(26,882,o),
(26,863,cs),
(26,742,o),
(115,685,o),
(273,685,cs),
(409,685,ls),
(454,685,o),
(471,667,o),
(471,626,c)
);
}
);
width = 679;
}
);
script = bengali;
subCategory = Spacing;
unicode = 2440;
},
{
category = Letter;
color = 5;
glyphname = "u-beng";
lastChange = "2024-11-28 18:19:52 +0000";
layers = (
{
anchors = (
{
name = top_candrabindu;
pos = (406,647);
},
{
name = top_vedic;
pos = (356,622);
}
);
background = {
anchors = (
{
name = Anchor8;
pos = (356,622);
}
);
shapes = (
{
closed = 1;
nodes = (
(580,617,l),
(576,728,o),
(516,776,o),
(406,776,cs),
(273,776,ls),
(193,776,o),
(148,802,o),
(148,869,cs),
(148,879,o),
(149,891,o),
(152,907,c),
(78,912,l),
(75,893,o),
(73,876,o),
(73,859,cs),
(73,749,o),
(158,704,o),
(289,704,cs),
(426,704,ls),
(487,704,o),
(508,682,o),
(508,617,c)
);
},
{
ref = "dda-beng";
}
);
};
layerId = UUID0;
shapes = (
{
closed = 1;
nodes = (
(580,617,l),
(576,728,o),
(516,776,o),
(406,776,cs),
(273,776,ls),
(193,776,o),
(148,802,o),
(148,869,cs),
(148,879,o),
(149,891,o),
(152,907,c),
(78,912,l),
(75,893,o),
(73,876,o),
(73,859,cs),
(73,749,o),
(158,704,o),
(289,704,cs),
(426,704,ls),
(487,704,o),
(508,682,o),
(508,617,c)
);
},
{
ref = "dda-beng";
}
);
width = 712;
},
{
anchors = (
{
name = top_candrabindu;
pos = (313,635);
},
{
name = top_vedic;
pos = (338,607);
}
);
background = {
anchors = (
{
name = Anchor8;
pos = (347,622);
}
);
shapes = (
{
closed = 1;
nodes = (
(545,602,l),
(544,701,o),
(494,739,o),
(408,739,cs),
(234,739,ls),
(143,739,o),
(100,758,o),
(100,847,cs),
(100,862,o),
(102,881,o),
(104,895,c),
(83,897,l),
(81,883,o),
(79,863,o),
(79,847,cs),
(79,742,o),
(134,718,o),
(235,718,cs),
(408,718,ls),
(497,718,o),
(522,679,o),
(524,602,c)
);
},
{
alignment = -1;
ref = "dda-beng";
}
);
};
layerId = "28FB090A-653E-4199-B7BE-FAE23D31B682";
shapes = (
{
closed = 1;
nodes = (
(545,602,l),
(545,701,o),
(494,739,o),
(408,739,cs),
(234,739,ls),
(143,739,o),
(100,758,o),
(100,847,cs),
(100,862,o),
(102,881,o),
(104,895,c),
(83,897,l),
(81,883,o),
(79,863,o),
(79,847,cs),
(79,742,o),
(134,718,o),
(235,718,cs),
(408,718,ls),
(497,718,o),
(524,679,o),
(524,602,c)
);
},
{
alignment = -1;
ref = "dda-beng";
}
);
width = 677;
},
{
anchors = (
{
name = top_candrabindu;
pos = (476,683);
},
{
name = top_vedic;
pos = (362,635);
}
);
background = {
anchors = (
{
name = Anchor8;
pos = (387,635);
}
);
shapes = (
{
closed = 1;
nodes = (
(655,626,l),
(655,762,o),
(567,823,o),
(448,823,cs),
(284,823,ls),
(235,823,o),
(210,838,o),
(210,879,cs),
(210,885,o),
(211,895,o),
(214,905,c),
(60,915,l),
(56,897,o),
(54,882,o),
(54,863,cs),
(54,742,o),
(143,685,o),
(301,685,cs),
(437,685,ls),
(483,685,o),
(499,667,o),
(499,626,c)
);
},
{
alignment = -1;
ref = "dda-beng";
}
);
};
layerId = "F455777D-7EDD-47E2-866A-D8A5173CE243";
shapes = (
{
closed = 1;
nodes = (
(655,626,l),
(655,762,o),
(567,823,o),
(448,823,cs),
(284,823,ls),
(235,823,o),
(210,838,o),
(210,879,cs),
(210,885,o),
(211,895,o),
(214,905,c),
(60,915,l),
(56,897,o),
(54,882,o),
(54,863,cs),
(54,742,o),
(143,685,o),
(301,685,cs),
(437,685,ls),
(483,685,o),
(499,667,o),
(499,626,c)
);
},
{
alignment = -1;
ref = "dda-beng";
}
);
width = 725;
}
);
script = bengali;
subCategory = Spacing;
unicode = 2441;
},
{
category = Letter;
color = 5;
glyphname = "uu-beng";
lastChange = "2024-11-28 18:19:52 +0000";
layers = (
{
anchors = (
{
name = top_vedic;
pos = (439,622);
}
);
associatedMasterId = UUID0;
background = {
shapes = (
{
closed = 1;
nodes = (
(-10,622,l),
(-10,510.13,l),
(414.12,510.13,l),
(414.12,395.44,ls),
(414.12,328.25,o),
(429.29,294.32,o),
(452.73,269.83,cs),
(477.22,244.29,o),
(515.2,232.85,o),
(560.84,232.85,cs),
(620.52,232.85,o),
(675.2,265.01,o),
(722.25,313.27,c),
(698.91,314.32,l),
(707.54,300.47,o),
(716.34,279.99,o),
(716.34,250.71,cs),
(716.34,178.81,o),
(660.68,135.38,o),
(574.52,135.38,cs),
(467.12,135.38,o),
(381.26,198.63,o),
(314.26,437.82,c),
(198.39,403.4,l),
(234.44,292.6,o),
(290.83,195.59,o),
(351.87,136.45,c),
(348.87,132.84,l),
(241.91,206.03,o),
(179.18,306.51,o),
(131.45,431.16,c),
(19.24,391.69,l),
(129.26,124.88,o),
(300.94,19.73,o),
(566.91,19.73,cs),
(768.19,19.73,o),
(850.29,115.07,o),
(850.29,240.73,cs),
(850.29,316.27,o),
(825.07,374.73,o),
(777.19,442.61,c),
(677.54,425.68,l),
(642.5,370.13,o),
(611.26,344.06,o),
(581.19,344.06,cs),
(559.46,344.06,o),
(550.9,357.4,o),
(550.9,386.64,cs),
(550.9,510.13,l),
(899.6,510.13,l),
(899.6,622,l)
);
},
{
closed = 1;
nodes = (
(772.85,622,l),
(769.63,689.81,o),
(756.19,732.13,o),
(725.87,758.4,cs),
(692.6,787.01,o),
(653.77,796.01,o),
(576.67,796.01,cs),
(418.87,796.01,ls),
(363.85,796.01,o),
(340.17,801.74,o),
(324.22,816.64,cs),
(310.83,828.59,o),
(305.83,846.71,o),
(305.83,873.88,cs),
(305.83,881.83,o),
(306.83,892.61,o),
(309.22,905.78,c),
(179.71,913.83,l),
(176.1,891.78,o),
(174.1,873.56,o),
(174.1,855.34,cs),
(174.1,801.34,o),
(188.44,761.17,o),
(217.12,734.17,cs),
(253.78,697.58,o),
(307.59,684.36,o),
(412.06,684.36,cs),
(576.32,684.36,ls),
(625,684.36,o),
(640.29,666.02,o),
(642.9,622,c)
);
}
);
};
layerId = "ecd1c071-8110-447d-8737-ecda11a5d0ac";
name = "Bold Semi (intermediate)";
shapes = (
{
closed = 1;
nodes = (
(-10,622,l),
(-10,512,l),
(416,512,l),
(416,400,ls),
(416,337,o),
(427,299,o),
(450,274,cs),
(472,249,o),
(506,236,o),
(549,236,cs),
(604,236,o),
(668,260,o),
(719,316,c),
(700,317,l),
(707,302,o),
(712,283,o),
(712,260,cs),
(712,183,o),
(662,134,o),
(572,134,cs),
(452,134,o),
(367,193,o),
(304,438,c),
(190,403,l),
(225,290,o),
(281,200,o),
(337,139,c),
(334,136,l),
(259,188,o),
(184,273,o),
(128,433,c),
(16,395,l),
(126,114,o),
(299,20,o),
(550,20,cs),
(762,20,o),
(843,118,o),
(843,240,cs),
(843,318,o),
(820,379,o),
(775,445,c),
(664,423,l),
(632,378,o),
(600,347,o),
(574,347,cs),
(553,347,o),
(548,363,o),
(548,383,cs),
(548,512,l),
(889,512,l),
(889,622,l)
);
},
{
closed = 1;
nodes = (
(772,622,l),
(770,684,o),
(756,724,o),
(731,749,cs),
(699,780,o),
(658,790,o),
(579,790,cs),
(404,790,ls),
(353,790,o),
(335,797,o),
(321,810,cs),
(306,824,o),
(301,847,o),
(301,875,cs),
(301,883,o),
(302,892,o),
(303,904,c),
(178,912,l),
(174,888,o),
(173,874,o),
(173,854,cs),
(173,805,o),
(184,767,o),
(209,739,cs),
(245,699,o),
(306,680,o),
(407,680,cs),
(578,680,ls),
(628,680,o),
(645,663,o),
(647,622,c)
);
}
);
width = 879;
},
{
anchors = (
{
name = top_candrabindu;
pos = (471,647);
},
{
name = top_vedic;
pos = (400,622);
}
);
background = {
anchors = (
{
name = Anchor8;
pos = (396,622);
}
);
shapes = (
{
closed = 1;
nodes = (
(681,24,o),
(748,122,o),
(748,255,cs),
(748,312,o),
(724,379,o),
(681,442,c),
(621,433,l),
(564,350,o),
(523,316,o),
(485,316,cs),
(459,316,o),
(448,333,o),
(448,372,cs),
(448,551,l),
(810,551,l),
(810,622,l),
(-10,622,l),
(-10,551,l),
(371,551,l),
(371,393,ls),
(371,296,o),
(402,242,o),
(486,242,cs),
(547,242,o),
(621,289,o),
(676,387,c),
(627,373,l),
(654,345,o),
(672,303,o),
(672,253,cs),
(672,161,o),
(619,100,o),
(519,100,cs),
(376,100,o),
(302,216,o),
(244,461,c),
(174,447,l),
(202,317,o),
(260,186,o),
(334,114,c),
(331,111,l),
(216,179,o),
(157,294,o),
(104,458,c),
(29,435,l),
(145,120,o),
(293,24,o),
(503,24,cs)
);
},
{
closed = 1;
nodes = (
(690,617,l),
(686,728,o),
(626,776,o),
(516,776,cs),
(338,776,ls),
(258,776,o),
(213,802,o),
(213,869,cs),
(213,879,o),
(214,891,o),
(217,907,c),
(143,912,l),
(140,893,o),
(138,876,o),
(138,859,cs),
(138,749,o),
(223,704,o),
(354,704,cs),
(536,704,ls),
(597,704,o),
(618,682,o),
(618,617,c)
);
}
);
};
layerId = UUID0;
shapes = (
{
closed = 1;
nodes = (
(681,24,o),
(748,122,o),
(748,255,cs),
(748,312,o),
(724,379,o),
(681,442,c),
(621,433,l),
(564,350,o),
(523,316,o),
(485,316,cs),
(459,316,o),
(448,333,o),
(448,372,cs),
(448,551,l),
(810,551,l),
(810,622,l),
(-10,622,l),
(-10,551,l),
(371,551,l),
(371,393,ls),
(371,296,o),
(402,242,o),
(486,242,cs),
(547,242,o),
(621,289,o),
(676,387,c),
(627,373,l),
(654,345,o),
(672,303,o),
(672,253,cs),
(672,161,o),
(619,100,o),
(519,100,cs),
(376,100,o),
(302,216,o),
(244,461,c),
(174,447,l),
(202,317,o),
(260,186,o),
(334,114,c),
(331,111,l),
(216,179,o),
(157,294,o),
(104,458,c),
(29,435,l),
(145,120,o),
(293,24,o),
(503,24,cs)
);
},
{
closed = 1;
nodes = (
(690,617,l),
(686,728,o),
(626,776,o),
(516,776,cs),
(338,776,ls),
(258,776,o),
(213,802,o),
(213,869,cs),
(213,879,o),
(214,891,o),
(217,907,c),
(143,912,l),
(140,893,o),
(138,876,o),
(138,859,cs),
(138,749,o),
(223,704,o),
(354,704,cs),
(536,704,ls),
(597,704,o),
(618,682,o),
(618,617,c)
);
}
);
width = 800;
},
{
anchors = (
{
name = top_vedic;
pos = (426,622);
}
);
associatedMasterId = UUID0;
background = {
anchors = (
{
name = Anchor8;
pos = (426,622);
}
);
shapes = (
{
closed = 1;
nodes = (
(-10,622,l),
(-10,551,l),
(419,551,l),
(419,393,ls),
(419,313,o),
(436,287,o),
(457,268,cs),
(476,251,o),
(503,242,o),
(534,242,cs),
(601,242,o),
(663,301,o),
(707,370,c),
(680,368,l),
(699,345,o),
(720,305,o),
(720,244,cs),
(720,166,o),
(668,100,o),
(555,100,cs),
(411,100,o),
(341,209,o),
(274,461,c),
(199,440,l),
(232,317,o),
(289,184,o),
(372,109,c),
(369,106,l),
(223,192,o),
(156,312,o),
(104,458,c),
(29,435,l),
(150,120,o),
(329,24,o),
(548,24,cs),
(720,24,o),
(796,123,o),
(796,245,cs),
(796,312,o),
(772,379,o),
(729,442,c),
(669,433,l),
(612,350,o),
(571,316,o),
(533,316,cs),
(507,316,o),
(496,333,o),
(496,372,cs),
(496,551,l),
(863,551,l),
(863,622,l)
);
},
{
closed = 1;
nodes = (
(721,622,l),
(719,677,o),
(708,712,o),
(685,734,cs),
(656,762,o),
(619,771,o),
(548,771,cs),
(378,771,ls),
(312,771,o),
(281,781,o),
(262,802,cs),
(248,817,o),
(243,840,o),
(243,869,cs),
(243,880,o),
(244,892,o),
(247,907,c),
(173,912,l),
(170,893,o),
(168,876,o),
(168,859,cs),
(168,805,o),
(186,763,o),
(222,736,cs),
(255,711,o),
(296,699,o),
(384,699,cs),
(569,699,ls),
(625,699,o),
(647,677,o),
(649,622,c)
);
}
);
};
layerId = "F91E0EF7-3188-44B6-9246-603AC4E55AE2";
name = "9 May 24 at 16:44";
shapes = (
{
closed = 1;
nodes = (
(-10,622,l),
(-10,551,l),
(419,551,l),
(419,393,ls),
(419,313,o),
(436,287,o),
(457,268,cs),
(476,251,o),
(503,242,o),
(534,242,cs),
(601,242,o),
(663,301,o),
(707,370,c),
(680,368,l),
(699,345,o),
(720,305,o),
(720,244,cs),
(720,166,o),
(668,100,o),
(555,100,cs),
(411,100,o),
(341,209,o),
(274,461,c),
(199,440,l),
(232,317,o),
(289,184,o),
(372,109,c),
(369,106,l),
(223,192,o),
(156,312,o),
(104,458,c),
(29,435,l),
(150,120,o),
(329,24,o),
(548,24,cs),
(720,24,o),
(796,123,o),
(796,245,cs),
(796,312,o),
(772,379,o),
(729,442,c),
(669,433,l),
(612,350,o),
(571,316,o),
(533,316,cs),
(507,316,o),
(496,333,o),
(496,372,cs),
(496,551,l),
(863,551,l),
(863,622,l)
);
},
{
closed = 1;
nodes = (
(721,622,l),
(719,677,o),
(708,712,o),
(685,734,cs),
(656,762,o),
(619,771,o),
(548,771,cs),
(378,771,ls),
(312,771,o),
(281,781,o),
(262,802,cs),
(248,817,o),
(243,840,o),
(243,869,cs),
(243,880,o),
(244,892,o),
(247,907,c),
(173,912,l),
(170,893,o),
(168,876,o),
(168,859,cs),
(168,805,o),
(186,763,o),
(222,736,cs),
(255,711,o),
(296,699,o),
(384,699,cs),
(569,699,ls),
(625,699,o),
(647,677,o),
(649,622,c)
);
}
);
width = 853;
},
{
anchors = (
{
name = top_vedic;
pos = (439,622);
}
);
associatedMasterId = UUID0;
background = {
shapes = (
{
closed = 1;
nodes = (
(-10,622,l),
(-10,510.13,l),
(414.12,510.13,l),
(414.12,395.44,ls),
(414.12,328.25,o),
(429.29,294.32,o),
(452.73,269.83,cs),
(477.22,244.29,o),
(515.2,232.85,o),
(560.84,232.85,cs),
(620.52,232.85,o),
(675.2,265.01,o),
(722.25,313.27,c),
(698.91,314.32,l),
(707.54,300.47,o),
(716.34,279.99,o),
(716.34,250.71,cs),
(716.34,178.81,o),
(660.68,135.38,o),
(574.52,135.38,cs),
(467.12,135.38,o),
(381.26,198.63,o),
(314.26,437.82,c),
(198.39,403.4,l),
(234.44,292.6,o),
(290.83,195.59,o),
(351.87,136.45,c),
(348.87,132.84,l),
(241.91,206.03,o),
(179.18,306.51,o),
(131.45,431.16,c),
(19.24,391.69,l),
(129.26,124.88,o),
(300.94,19.73,o),
(566.91,19.73,cs),
(768.19,19.73,o),
(850.29,115.07,o),
(850.29,240.73,cs),
(850.29,316.27,o),
(825.07,374.73,o),
(777.19,442.61,c),
(677.54,425.68,l),
(642.5,370.13,o),
(611.26,344.06,o),
(581.19,344.06,cs),
(559.46,344.06,o),
(550.9,357.4,o),
(550.9,386.64,cs),
(550.9,510.13,l),
(899.6,510.13,l),
(899.6,622,l)
);
},
{
closed = 1;
nodes = (
(772.85,622,l),
(769.63,689.81,o),
(756.19,732.13,o),
(725.87,758.4,cs),
(692.6,787.01,o),
(653.77,796.01,o),
(576.67,796.01,cs),
(418.87,796.01,ls),
(363.85,796.01,o),
(340.17,801.74,o),
(324.22,816.64,cs),
(310.83,828.59,o),
(305.83,846.71,o),
(305.83,873.88,cs),
(305.83,881.83,o),
(306.83,892.61,o),
(309.22,905.78,c),
(179.71,913.83,l),
(176.1,891.78,o),
(174.1,873.56,o),
(174.1,855.34,cs),
(174.1,801.34,o),
(188.44,761.17,o),
(217.12,734.17,cs),
(253.78,697.58,o),
(307.59,684.36,o),
(412.06,684.36,cs),
(576.32,684.36,ls),
(625,684.36,o),
(640.29,666.02,o),
(642.9,622,c)
);
}
);
};
layerId = "876F8FE6-06F2-4A9B-8E16-D0DCB95BEFBA";
name = "{151,100} 9 May 24 at 16:44";
shapes = (
{
closed = 1;
nodes = (
(-10,622,l),
(-10,512,l),
(416,512,l),
(416,400,ls),
(416,337,o),
(427,299,o),
(450,274,cs),
(472,249,o),
(506,236,o),
(549,236,cs),
(604,236,o),
(668,260,o),
(719,316,c),
(700,317,l),
(707,302,o),
(712,283,o),
(712,260,cs),
(712,183,o),
(662,134,o),
(572,134,cs),
(452,134,o),
(367,193,o),
(304,438,c),
(190,403,l),
(225,290,o),
(281,200,o),
(337,139,c),
(334,136,l),
(259,188,o),
(184,273,o),
(128,433,c),
(16,395,l),
(126,114,o),
(299,20,o),
(550,20,cs),
(762,20,o),
(843,118,o),
(843,240,cs),
(843,318,o),
(820,379,o),
(775,445,c),
(664,423,l),
(632,378,o),
(600,347,o),
(574,347,cs),
(553,347,o),
(548,363,o),
(548,383,cs),
(548,512,l),
(889,512,l),
(889,622,l)
);
},
{
closed = 1;
nodes = (
(772,622,l),
(770,684,o),
(756,724,o),
(731,749,cs),
(699,780,o),
(658,790,o),
(579,790,cs),
(404,790,ls),
(353,790,o),
(335,797,o),
(321,810,cs),
(306,824,o),
(301,847,o),
(301,875,cs),
(301,883,o),
(302,892,o),
(303,904,c),
(178,912,l),
(174,888,o),
(173,874,o),
(173,854,cs),
(173,805,o),
(184,767,o),
(209,739,cs),
(245,699,o),
(306,680,o),
(407,680,cs),
(578,680,ls),
(628,680,o),
(645,663,o),
(647,622,c)
);
}
);
width = 879;
},
{
anchors = (
{
name = top_candrabindu;
pos = (382,635);
},
{
name = top_vedic;
pos = (375,607);
}
);
background = {
anchors = (
{
name = Anchor8;
pos = (402,622);
}
);
shapes = (
{
closed = 1;
nodes = (
(605,56,o),
(678,141,o),
(678,257,cs),
(678,324,o),
(657,386,o),
(625,429,c),
(603,426,l),
(537,322,o),
(485,293,o),
(439,293,cs),
(394,293,o),
(383,318,o),
(383,382,cs),
(383,586,l),
(760,586,l),
(760,607,l),
(-10,607,l),
(-10,586,l),
(362,586,l),
(362,380,ls),
(362,312,o),
(380,272,o),
(442,272,cs),
(491,272,o),
(554,303,o),
(620,414,c),
(608,418,l),
(640,375,o),
(656,311,o),
(656,255,cs),
(656,151,o),
(593,77,o),
(476,77,cs),
(317,77,o),
(236,237,o),
(169,476,c),
(147,470,l),
(208,249,o),
(272,137,o),
(371,86,c),
(370,84,l),
(231,135,o),
(127,246,o),
(54,472,c),
(33,466,l),
(111,217,o),
(254,56,o),
(471,56,cs)
);
},
{
closed = 1;
nodes = (
(619,602,l),
(618,701,o),
(568,739,o),
(482,739,cs),
(288,739,ls),
(197,739,o),
(154,758,o),
(154,847,cs),
(154,862,o),
(156,881,o),
(158,895,c),
(137,897,l),
(135,883,o),
(133,863,o),
(133,847,cs),
(133,742,o),
(188,718,o),
(289,718,cs),
(482,718,ls),
(571,718,o),
(596,679,o),
(598,602,c)
);
}
);
};
layerId = "28FB090A-653E-4199-B7BE-FAE23D31B682";
shapes = (
{
closed = 1;
nodes = (
(605,56,o),
(678,141,o),
(678,257,cs),
(678,324,o),
(657,386,o),
(625,429,c),
(603,426,l),
(537,322,o),
(485,293,o),
(439,293,cs),
(394,293,o),
(383,318,o),
(383,382,cs),
(383,586,l),
(760,586,l),
(760,607,l),
(-10,607,l),
(-10,586,l),
(362,586,l),
(362,380,ls),
(362,312,o),
(380,272,o),
(442,272,cs),
(491,272,o),
(554,303,o),
(620,414,c),
(608,418,l),
(640,375,o),
(656,311,o),
(656,255,cs),
(656,151,o),
(593,77,o),
(476,77,cs),
(317,77,o),
(236,237,o),
(169,476,c),
(147,470,l),
(208,249,o),
(272,137,o),
(371,86,c),
(370,84,l),
(231,135,o),
(127,246,o),
(54,472,c),
(33,466,l),
(111,217,o),
(254,56,o),
(471,56,cs)
);
},
{
closed = 1;
nodes = (
(619,602,l),
(619,701,o),
(568,739,o),
(482,739,cs),
(288,739,ls),
(197,739,o),
(154,758,o),
(154,847,cs),
(154,862,o),
(156,881,o),
(158,895,c),
(137,897,l),
(135,883,o),
(133,863,o),
(133,847,cs),
(133,742,o),
(188,718,o),
(289,718,cs),
(482,718,ls),
(571,718,o),
(598,679,o),
(598,602,c)
);
}
);
width = 750;
},
{
anchors = (
{
name = top_candrabindu;
pos = (541,683);
},
{
name = top_vedic;
pos = (427,635);
}
);
background = {
anchors = (
{
name = Anchor8;
pos = (414,635);
}
);
shapes = (
{
closed = 1;
nodes = (
(736,-6,o),
(819,122,o),
(819,259,cs),
(819,319,o),
(798,388,o),
(758,448,c),
(639,428,l),
(616,379,o),
(588,356,o),
(566,356,cs),
(546,356,o),
(539,368,o),
(539,393,cs),
(539,505,l),
(865,505,l),
(865,635,l),
(-10,635,l),
(-10,505,l),
(375,505,l),
(375,397,ls),
(375,285,o),
(426,222,o),
(536,222,cs),
(592,222,o),
(650,249,o),
(690,290,c),
(649,291,l),
(654,281,o),
(657,269,o),
(657,255,cs),
(657,195,o),
(619,147,o),
(545,147,cs),
(457,147,o),
(364,195,o),
(306,445,c),
(182,414,l),
(217,285,o),
(270,186,o),
(372,106,c),
(369,102,l),
(224,182,o),
(169,305,o),
(130,437,c),
(11,395,l),
(110,131,o),
(260,-6,o),
(513,-6,cs)
);
},
{
closed = 1;
nodes = (
(760,626,l),
(760,762,o),
(673,823,o),
(554,823,cs),
(349,823,ls),
(300,823,o),
(275,838,o),
(275,879,cs),
(275,885,o),
(276,895,o),
(279,905,c),
(125,915,l),
(121,897,o),
(119,882,o),
(119,863,cs),
(119,742,o),
(208,685,o),
(366,685,cs),
(543,685,ls),
(588,685,o),
(605,667,o),
(605,626,c)
);
}
);
};
layerId = "F455777D-7EDD-47E2-866A-D8A5173CE243";
shapes = (
{
closed = 1;
nodes = (
(736,-6,o),
(819,122,o),
(819,259,cs),
(819,319,o),
(798,388,o),
(758,448,c),
(639,428,l),
(616,379,o),
(588,356,o),
(566,356,cs),
(546,356,o),
(539,368,o),
(539,393,cs),
(539,505,l),
(865,505,l),
(865,635,l),
(-10,635,l),
(-10,505,l),
(375,505,l),
(375,397,ls),
(375,285,o),
(426,222,o),
(536,222,cs),
(592,222,o),
(650,250,o),
(690,291,c),
(649,291,l),
(654,281,o),
(657,269,o),
(657,255,cs),
(657,195,o),
(619,147,o),
(545,147,cs),
(457,147,o),
(364,195,o),
(306,445,c),
(182,414,l),
(217,285,o),
(270,186,o),
(372,106,c),
(369,102,l),
(224,182,o),
(169,305,o),
(130,437,c),
(11,395,l),
(110,131,o),
(260,-6,o),
(513,-6,cs)
);
},
{
closed = 1;
nodes = (
(760,626,l),
(760,762,o),
(673,823,o),
(554,823,cs),
(349,823,ls),
(300,823,o),
(275,838,o),
(275,879,cs),
(275,885,o),
(276,895,o),
(279,905,c),
(125,915,l),
(121,897,o),
(119,882,o),
(119,863,cs),
(119,742,o),
(208,685,o),
(366,685,cs),
(543,685,ls),
(588,685,o),
(605,667,o),
(605,626,c)
);
}
);
width = 855;
}
);
script = bengali;
subCategory = Spacing;
unicode = 2442;
},
{
category = Letter;
color = 5;
glyphname = "rVocalic-beng";
lastChange = "2024-11-28 18:19:52 +0000";
layers = (
{
anchors = (
{
name = top_vedic;
pos = (466,622);
}
);
associatedMasterId = UUID0;
background = {
shapes = (
{
closed = 1;
nodes = (
(494.69,690.44,l),
(494.69,458.7,l),
(378.62,426.8,o),
(255.62,379.78,o),
(137.35,317.83,c),
(190.38,187.4,l),
(341.92,159.91,o),
(437.47,79.16,o),
(493.47,0,c),
(630.25,0,l),
(630.25,622,l),
(605.64,690.44,l)
);
},
{
closed = 1;
nodes = (
(493.47,226.65,l),
(493.47,193.65,o),
(494.86,168.82,o),
(496.47,146.43,c),
(440.86,208.59,o),
(368.1,245.92,o),
(292.57,266.31,c),
(363.98,302.33,o),
(426.38,328.86,o),
(493.47,348.32,c)
);
},
{
closed = 1;
nodes = (
(502.18,456.92,l),
(477.79,519.63,o),
(443.33,580.46,o),
(408.77,625,c),
(305.36,547.99,l),
(345.36,516.94,o),
(378.92,470.99,o),
(398.7,428.77,c)
);
},
{
closed = 1;
nodes = (
(291.74,417.8,o),
(350.25,465.55,o),
(426.8,568.51,c),
(408.77,625,l),
(312.34,603.46,l),
(279.98,543.62,o),
(246.62,527.84,o),
(216.77,527.84,cs),
(191.87,527.84,o),
(180.02,540.79,o),
(180.02,564.2,cs),
(180.02,577.88,o),
(184.36,590.56,o),
(190.92,602.73,c),
(66.73,628,l),
(54.73,603.73,o),
(45.95,574.73,o),
(45.95,545.56,cs),
(45.95,466.68,o),
(102,417.8,o),
(197.03,417.8,cs)
);
},
{
closed = 1;
nodes = (
(728.31,690.44,l),
(728.31,288.11,ls),
(728.31,254.26,o),
(730.92,220.94,o),
(733.92,192.99,c),
(753.12,192.94,l),
(718.75,244.89,o),
(651.19,299.42,o),
(578.94,325.93,c),
(550.89,229.99,l),
(631.36,187.6,o),
(683.21,141.02,o),
(728.31,74.22,c),
(865.09,74.22,l),
(865.09,622,l),
(840.48,690.44,l)
);
}
);
};
layerId = "c2de9caa-920c-4ca7-85e6-47132e98a26a";
name = "Bold Semi (intermediate)";
shapes = (
{
closed = 1;
nodes = (
(492,688,l),
(492,472,l),
(365,428,o),
(231,372,o),
(124,312,c),
(174,194,l),
(323,166,o),
(436,81,o),
(492,0,c),
(624,0,l),
(624,622,l),
(600,688,l)
);
},
{
closed = 1;
nodes = (
(492,224,l),
(492,191,o),
(494,166,o),
(496,145,c),
(441,203,o),
(356,252,o),
(283,268,c),
(357,307,o),
(414,331,o),
(492,356,c)
);
},
{
closed = 1;
nodes = (
(495,471,l),
(475,527,o),
(434,589,o),
(408,625,c),
(302,548,l),
(342,521,o),
(379,472,o),
(399,430,c)
);
},
{
closed = 1;
nodes = (
(291,421,o),
(352,469,o),
(426,569,c),
(408,625,l),
(309,603,l),
(276,547,o),
(242,532,o),
(213,532,cs),
(190,532,o),
(174,542,o),
(174,566,cs),
(174,578,o),
(177,588,o),
(183,600,c),
(65,628,l),
(53,604,o),
(44,575,o),
(44,543,cs),
(44,467,o),
(101,421,o),
(191,421,cs)
);
},
{
closed = 1;
nodes = (
(717,688,l),
(717,273,ls),
(717,240,o),
(718,209,o),
(720,186,c),
(738,197,l),
(680,266,o),
(602,313,o),
(529,336,c),
(521,232,l),
(603,196,o),
(669,143,o),
(717,74,c),
(849,74,l),
(849,622,l),
(825,688,l)
);
}
);
width = 932;
},
{
anchors = (
{
name = top_candrabindu;
pos = (499,622);
},
{
name = top_vedic;
pos = (423,622);
}
);
background = {
anchors = (
{
name = Anchor8;
pos = (426,622);
},
{
name = bottom;
pos = (477,0);
}
);
shapes = (
{
closed = 1;
nodes = (
(554,0,l),
(554,622,l),
(530,688,l),
(477,688,l),
(477,482,l),
(500,513,l),
(356,467,o),
(218,395,o),
(101,320,c),
(140,224,l),
(283,201,o),
(416,115,o),
(477,0,c)
);
},
{
closed = 1;
nodes = (
(491,88,l),
(432,207,o),
(274,272,o),
(175,289,c),
(175,273,l),
(262,336,o),
(390,396,o),
(498,431,c),
(477,474,l),
(477,189,ls),
(477,146,o),
(479,119,o),
(482,88,c)
);
},
{
closed = 1;
nodes = (
(274,453,o),
(342,512,o),
(388,574,c),
(338,580,l),
(363,546,o),
(391,505,o),
(422,455,c),
(488,474,l),
(458,529,o),
(415,591,o),
(386,632,c),
(323,619,l),
(268,548,o),
(226,524,o),
(180,524,cs),
(153,524,o),
(135,530,o),
(135,552,c),
(73,542,l),
(73,512,o),
(92,491,o),
(125,491,cs),
(156,491,o),
(184,508,o),
(184,552,cs),
(184,580,o),
(165,612,o),
(122,612,cs),
(78,612,o),
(54,580,o),
(54,545,cs),
(54,483,o),
(107,453,o),
(170,453,cs)
);
},
{
closed = 1;
nodes = (
(755,72,l),
(755,622,l),
(731,688,l),
(678,688,l),
(678,256,ls),
(678,213,o),
(680,187,o),
(683,156,c),
(690,159,l),
(666,214,o),
(596,285,o),
(539,317,c),
(514,254,l),
(578,211,o),
(639,151,o),
(678,72,c)
);
}
);
};
guides = (
{
angle = 100.7955;
pos = (101,324);
},
{
angle = 121.0099;
pos = (441,483);
}
);
layerId = UUID0;
shapes = (
{
closed = 1;
nodes = (
(554,0,l),
(554,622,l),
(530,688,l),
(477,688,l),
(477,482,l),
(500,513,l),
(356,467,o),
(218,395,o),
(101,320,c),
(140,224,l),
(283,201,o),
(416,115,o),
(477,0,c)
);
},
{
closed = 1;
nodes = (
(491,88,l),
(432,207,o),
(274,272,o),
(175,289,c),
(175,273,l),
(262,336,o),
(390,396,o),
(498,431,c),
(477,474,l),
(477,189,ls),
(477,146,o),
(479,119,o),
(482,88,c)
);
},
{
closed = 1;
nodes = (
(274,453,o),
(342,512,o),
(388,574,c),
(338,580,l),
(363,546,o),
(391,505,o),
(422,455,c),
(488,474,l),
(458,529,o),
(415,591,o),
(386,632,c),
(323,619,l),
(268,548,o),
(226,524,o),
(180,524,cs),
(153,524,o),
(135,530,o),
(135,552,c),
(73,542,l),
(73,512,o),
(92,491,o),
(125,491,cs),
(156,491,o),
(184,508,o),
(184,552,cs),
(184,580,o),
(165,612,o),
(122,612,cs),
(78,612,o),
(54,580,o),
(54,545,cs),
(54,483,o),
(107,453,o),
(170,453,cs)
);
},
{
closed = 1;
nodes = (
(755,72,l),
(755,622,l),
(731,688,l),
(678,688,l),
(678,256,ls),
(678,213,o),
(680,187,o),
(683,156,c),
(690,159,l),
(666,214,o),
(596,285,o),
(539,317,c),
(514,254,l),
(578,211,o),
(639,151,o),
(678,72,c)
);
}
);
width = 846;
},
{
anchors = (
{
name = top_vedic;
pos = (426,622);
}
);
associatedMasterId = UUID0;
background = {
anchors = (
{
name = Anchor8;
pos = (426,622);
}
);
shapes = (
{
closed = 1;
nodes = (
(477,688,l),
(477,477,l),
(353,439,o),
(230,381,o),
(116,316,c),
(155,224,l),
(298,202,o),
(421,106,o),
(477,0,c),
(554,0,l),
(554,622,l),
(530,688,l)
);
},
{
closed = 1;
nodes = (
(477,187,l),
(477,154,o),
(479,131,o),
(480,108,c),
(425,197,o),
(301,263,o),
(209,284,c),
(292,331,o),
(391,374,o),
(477,402,c)
);
},
{
closed = 1;
nodes = (
(479,474,l),
(454,530,o),
(411,589,o),
(374,625,c),
(320,573,l),
(360,545,o),
(396,496,o),
(417,455,c)
);
},
{
closed = 1;
nodes = (
(271,430,o),
(335,493,o),
(378,574,c),
(374,625,l),
(316,612,l),
(269,518,o),
(221,501,o),
(182,501,cs),
(151,501,o),
(130,517,o),
(130,552,cs),
(130,573,o),
(138,593,o),
(147,607,c),
(71,628,l),
(59,608,o),
(49,579,o),
(49,548,cs),
(49,474,o),
(102,430,o),
(183,430,cs)
);
},
{
closed = 1;
nodes = (
(685,688,l),
(685,257,ls),
(685,214,o),
(687,188,o),
(690,157,c),
(697,160,l),
(673,215,o),
(603,286,o),
(546,318,c),
(521,255,l),
(585,212,o),
(646,152,o),
(685,73,c),
(762,73,l),
(762,622,l),
(738,688,l)
);
}
);
};
layerId = "DB0C9F7F-8531-48D5-B530-ACAED0BD98E7";
name = "9 May 24 at 17:55";
shapes = (
{
closed = 1;
nodes = (
(477,688,l),
(477,477,l),
(353,439,o),
(230,381,o),
(116,316,c),
(155,224,l),
(298,202,o),
(421,106,o),
(477,0,c),
(554,0,l),
(554,622,l),
(530,688,l)
);
},
{
closed = 1;
nodes = (
(477,187,l),
(477,154,o),
(479,131,o),
(480,108,c),
(425,197,o),
(301,263,o),
(209,284,c),
(292,331,o),
(391,374,o),
(477,402,c)
);
},
{
closed = 1;
nodes = (
(479,474,l),
(454,530,o),
(411,589,o),
(374,625,c),
(320,573,l),
(360,545,o),
(396,496,o),
(417,455,c)
);
},
{
closed = 1;
nodes = (
(271,430,o),
(335,493,o),
(378,574,c),
(374,625,l),
(316,612,l),
(269,518,o),
(221,501,o),
(182,501,cs),
(151,501,o),
(130,517,o),
(130,552,cs),
(130,573,o),
(138,593,o),
(147,607,c),
(71,628,l),
(59,608,o),
(49,579,o),
(49,548,cs),
(49,474,o),
(102,430,o),
(183,430,cs)
);
},
{
closed = 1;
nodes = (
(685,688,l),
(685,257,ls),
(685,214,o),
(687,188,o),
(690,157,c),
(697,160,l),
(673,215,o),
(603,286,o),
(546,318,c),
(521,255,l),
(585,212,o),
(646,152,o),
(685,73,c),
(762,73,l),
(762,622,l),
(738,688,l)
);
}
);
width = 853;
},
{
anchors = (
{
name = bottom;
pos = (477,0);
},
{
name = top_vedic;
pos = (426,622);
}
);
associatedMasterId = UUID0;
background = {
anchors = (
{
name = Anchor8;
pos = (426,622);
}
);
shapes = (
{
closed = 1;
nodes = (
(762,73,l),
(762,624,l),
(867,624,l),
(867,695,l),
(-46,695,l),
(-46,624,l),
(685,624,l),
(685,267,ls),
(685,226,o),
(687,200,o),
(690,161,c),
(699,161,l),
(671,222,o),
(601,289,o),
(537,319,c),
(509,254,l),
(576,214,o),
(643,154,o),
(685,73,c)
);
},
{
closed = 1;
nodes = (
(497,164,o),
(570,258,o),
(570,367,cs),
(570,488,o),
(494,573,o),
(367,573,cs),
(288,573,o),
(241,532,o),
(241,474,cs),
(241,428,o),
(273,390,o),
(324,390,cs),
(374,390,o),
(403,422,o),
(403,474,cs),
(403,502,o),
(396,521,o),
(393,534,c),
(302,534,o),
(258,490,o),
(258,461,c),
(322,457,l),
(322,490,o),
(343,503,o),
(384,503,cs),
(449,503,o),
(494,450,o),
(494,373,cs),
(494,298,o),
(450,240,o),
(344,240,cs),
(209,240,o),
(122,330,o),
(69,557,c),
(-4,540,l),
(67,243,o),
(200,164,o),
(348,164,cs)
);
},
{
closed = 1;
nodes = (
(392,541,l),
(386,598,o),
(357,632,o),
(285,662,c),
(212,629,l),
(275,615,o),
(306,581,o),
(313,538,c)
);
}
);
};
guides = (
{
angle = 100.7955;
pos = (101,324);
}
);
layerId = "E1DA1F6F-CDE4-4803-A691-7EB17C34F121";
name = "22 May 24 at 18:57";
shapes = (
{
closed = 1;
nodes = (
(554,0,l),
(554,622,l),
(530,688,l),
(477,688,l),
(477,482,l),
(500,513,l),
(356,467,o),
(218,399,o),
(101,324,c),
(140,228,l),
(283,205,o),
(416,119,o),
(477,0,c)
);
},
{
closed = 1;
nodes = (
(491,88,l),
(432,211,o),
(274,276,o),
(175,293,c),
(175,277,l),
(262,340,o),
(390,396,o),
(498,431,c),
(477,474,l),
(477,189,ls),
(477,146,o),
(479,119,o),
(482,88,c)
);
},
{
closed = 1;
nodes = (
(269,453,o),
(337,512,o),
(383,574,c),
(330,580,l),
(366,546,o),
(396,505,o),
(427,455,c),
(493,474,l),
(463,530,o),
(410,600,o),
(374,632,c),
(316,619,l),
(263,548,o),
(221,524,o),
(175,524,cs),
(148,524,o),
(130,530,o),
(130,552,c),
(68,542,l),
(68,512,o),
(87,491,o),
(120,491,cs),
(151,491,o),
(179,508,o),
(179,552,cs),
(179,580,o),
(160,612,o),
(117,612,cs),
(73,612,o),
(49,580,o),
(49,545,cs),
(49,483,o),
(102,453,o),
(165,453,cs)
);
},
{
closed = 1;
nodes = (
(755,72,l),
(755,622,l),
(731,688,l),
(678,688,l),
(678,256,ls),
(678,213,o),
(680,187,o),
(683,156,c),
(690,159,l),
(666,214,o),
(596,285,o),
(539,317,c),
(514,254,l),
(578,211,o),
(639,151,o),
(678,72,c)
);
}
);
width = 846;
},
{
anchors = (
{
name = top_candrabindu;
pos = (472,617);
},
{
name = top_vedic;
pos = (382,607);
}
);
background = {
anchors = (
{
name = Anchor8;
pos = (406,622);
},
{
name = bottom;
pos = (462,0);
}
);
shapes = (
{
closed = 1;
nodes = (
(483,0,l),
(483,607,l),
(479,660,l),
(462,660,l),
(462,504,l),
(481,516,l),
(333,463,o),
(207,391,o),
(87,307,c),
(99,279,l),
(270,239,o),
(393,143,o),
(462,0,c)
);
},
{
closed = 1;
nodes = (
(474,15,l),
(407,179,o),
(250,264,o),
(104,300,c),
(105,293,l),
(217,371,o),
(351,447,o),
(484,493,c),
(462,500,l),
(462,165,ls),
(462,109,o),
(464,50,o),
(468,16,c)
);
},
{
closed = 1;
nodes = (
(219,479,o),
(295,524,o),
(345,597,c),
(335,601,l),
(358,572,o),
(389,532,o),
(418,485,c),
(439,488,l),
(403,543,o),
(377,580,o),
(346,619,c),
(328,615,l),
(282,543,o),
(217,500,o),
(137,500,cs),
(99,500,o),
(74,509,o),
(74,542,c),
(53,547,l),
(53,532,o),
(65,513,o),
(88,513,cs),
(106,513,o),
(124,526,o),
(124,549,cs),
(124,570,o),
(110,585,o),
(87,585,cs),
(62,585,o),
(45,567,o),
(45,543,cs),
(45,508,o),
(78,479,o),
(140,479,cs)
);
},
{
closed = 1;
nodes = (
(664,72,l),
(664,607,l),
(660,660,l),
(643,660,l),
(643,238,ls),
(643,177,o),
(645,128,o),
(649,90,c),
(655,90,l),
(607,214,o),
(522,286,o),
(468,322,c),
(468,296,l),
(539,246,o),
(601,168,o),
(643,72,c)
);
}
);
};
layerId = "28FB090A-653E-4199-B7BE-FAE23D31B682";
shapes = (
{
closed = 1;
nodes = (
(483,0,l),
(483,607,l),
(479,660,l),
(462,660,l),
(462,504,l),
(481,516,l),
(333,463,o),
(207,391,o),
(87,307,c),
(99,279,l),
(270,239,o),
(393,143,o),
(462,0,c)
);
},
{
closed = 1;
nodes = (
(474,15,l),
(407,179,o),
(250,264,o),
(104,300,c),
(105,293,l),
(217,371,o),
(351,447,o),
(484,493,c),
(462,500,l),
(462,165,ls),
(462,109,o),
(464,50,o),
(468,16,c)
);
},
{
closed = 1;
nodes = (
(219,479,o),
(295,524,o),
(345,597,c),
(335,601,l),
(358,572,o),
(389,532,o),
(418,485,c),
(439,488,l),
(403,543,o),
(377,580,o),
(346,619,c),
(328,615,l),
(282,543,o),
(217,500,o),
(137,500,cs),
(99,500,o),
(74,509,o),
(74,542,c),
(53,547,l),
(53,532,o),
(65,513,o),
(88,513,cs),
(106,513,o),
(124,526,o),
(124,549,cs),
(124,570,o),
(110,585,o),
(87,585,cs),
(62,585,o),
(45,567,o),
(45,543,cs),
(45,508,o),
(78,479,o),
(140,479,cs)
);
},
{
closed = 1;
nodes = (
(664,72,l),
(664,607,l),
(660,660,l),
(643,660,l),
(643,238,ls),
(643,177,o),
(645,128,o),
(649,90,c),
(655,90,l),
(607,214,o),
(522,286,o),
(468,322,c),
(468,296,l),
(539,246,o),
(601,168,o),
(643,72,c)
);
}
);
width = 764;
},
{
anchors = (
{
name = top_candrabindu;
pos = (532,635);
},
{
name = top_vedic;
pos = (463,635);
}
);
background = {
anchors = (
{
name = Anchor8;
pos = (461,635);
},
{
name = bottom;
pos = (475,0);
}
);
shapes = (
{
closed = 1;
nodes = (
(631,0,l),
(631,635,l),
(608,705,l),
(472,705,l),
(472,454,l),
(492,490,l),
(369,458,o),
(234,398,o),
(111,319,c),
(171,173,l),
(313,149,o),
(405,97,o),
(475,0,c)
);
},
{
closed = 1;
nodes = (
(499,133,l),
(443,210,o),
(338,268,o),
(252,271,c),
(252,223,l),
(332,275,o),
(408,316,o),
(491,339,c),
(474,366,l),
(474,228,ls),
(474,196,o),
(477,159,o),
(480,133,c)
);
},
{
closed = 1;
nodes = (
(262,427,o),
(328,470,o),
(410,574,c),
(279,557,l),
(307,526,o),
(343,478,o),
(368,429,c),
(492,464,l),
(458,538,o),
(418,599,o),
(381,650,c),
(281,624,l),
(257,585,o),
(223,571,o),
(203,571,cs),
(181,571,o),
(174,581,o),
(174,598,c),
(55,560,l),
(55,509,o),
(94,489,o),
(120,489,cs),
(187,489,o),
(204,541,o),
(204,565,cs),
(204,597,o),
(180,643,o),
(118,643,cs),
(57,643,o),
(26,596,o),
(26,546,cs),
(26,476,o),
(81,427,o),
(167,427,cs)
);
},
{
closed = 1;
nodes = (
(864,72,l),
(864,635,l),
(844,705,l),
(705,705,l),
(705,302,ls),
(705,272,o),
(708,235,o),
(711,209,c),
(730,207,l),
(693,265,o),
(630,325,o),
(551,350,c),
(522,232,l),
(610,190,o),
(659,148,o),
(705,72,c)
);
}
);
};
layerId = "F455777D-7EDD-47E2-866A-D8A5173CE243";
shapes = (
{
closed = 1;
nodes = (
(631,0,l),
(631,635,l),
(608,709,l),
(472,709,l),
(472,454,l),
(492,490,l),
(369,458,o),
(234,398,o),
(111,319,c),
(171,173,l),
(313,149,o),
(405,97,o),
(475,0,c)
);
},
{
closed = 1;
nodes = (
(499,133,l),
(443,210,o),
(338,268,o),
(252,271,c),
(252,223,l),
(332,275,o),
(408,316,o),
(491,339,c),
(474,366,l),
(474,228,ls),
(474,196,o),
(477,159,o),
(480,133,c)
);
},
{
closed = 1;
nodes = (
(262,427,o),
(328,470,o),
(410,574,c),
(279,557,l),
(307,526,o),
(343,478,o),
(368,429,c),
(492,464,l),
(458,538,o),
(418,599,o),
(381,650,c),
(281,624,l),
(257,585,o),
(223,571,o),
(203,571,cs),
(181,571,o),
(174,581,o),
(174,598,c),
(55,560,l),
(55,509,o),
(94,489,o),
(120,489,cs),
(187,489,o),
(204,541,o),
(204,565,cs),
(204,597,o),
(180,643,o),
(118,643,cs),
(57,643,o),
(26,596,o),
(26,546,cs),
(26,476,o),
(81,427,o),
(167,427,cs)
);
},
{
closed = 1;
nodes = (
(864,72,l),
(864,635,l),
(844,709,l),
(705,709,l),
(705,302,ls),
(705,272,o),
(708,235,o),
(711,209,c),
(730,207,l),
(693,265,o),
(630,325,o),
(551,350,c),
(522,232,l),
(610,190,o),
(659,148,o),
(705,72,c)
);
}
);
width = 927;
}
);
script = bengali;
subCategory = Spacing;
unicode = 2443;
},
{
category = Letter;
color = 5;
glyphname = "lVocalic-beng";
lastChange = "2024-11-28 18:19:52 +0000";
layers = (
{
anchors = (
{
name = top_candrabindu;
pos = (290,622);
},
{
name = top_vedic;
pos = (326,622);
}
);
associatedMasterId = UUID0;
background = {
shapes = (
{
closed = 1;
nodes = (
(109.44,331.47,o),
(39.53,286.25,o),
(39.53,204.56,cs),
(39.53,179.56,o),
(44.92,157.17,o),
(54.09,132.56,c),
(180.94,157.49,l),
(176.99,166.22,o),
(174.82,176.9,o),
(174.82,187.46,cs),
(174.82,206.92,o),
(188.72,223.04,o),
(221.64,223.04,cs),
(257.29,223.04,o),
(275.53,204.85,o),
(275.53,176.93,cs),
(275.53,142.57,o),
(247.85,119.5,o),
(179.53,109.48,c),
(201.31,0,l),
(222.75,0,ls),
(444.91,0,o),
(634.26,58,o),
(634.26,241.52,cs),
(634.26,333.98,o),
(604.07,426.11,o),
(372.72,498.16,cs),
(214.24,547.62,o),
(196.46,563.03,o),
(196.46,592.27,cs),
(196.46,608.39,o),
(205.97,624.29,o),
(231.6,650.36,c),
(134.29,715.76,l),
(83.85,669.71,o),
(55.68,628.71,o),
(55.68,577.83,cs),
(55.68,500.27,o),
(99.36,447.63,o),
(275.43,393.39,cs),
(451.87,339.1,o),
(492.48,302.15,o),
(492.48,233.2,cs),
(492.48,174.04,o),
(446.76,127.7,o),
(347.99,114.09,c),
(345.72,62,l),
(381.28,94.39,o),
(404.99,136.32,o),
(404.99,192.59,cs),
(404.99,271.81,o),
(330.11,331.47,o),
(218.64,331.47,cs)
);
}
);
};
layerId = "e7b38d7d-28d4-450c-820c-2fef3f3104c2";
name = "Bold Semi (intermediate)";
shapes = (
{
closed = 1;
nodes = (
(210,0,ls),
(430,0,o),
(618,58,o),
(618,237,cs),
(618,327,o),
(588,431,o),
(355,499,cs),
(198,544,o),
(179,562,o),
(179,592,cs),
(179,611,o),
(187,622,o),
(211,650,c),
(121,715,l),
(72,672,o),
(44,622,o),
(44,581,cs),
(44,500,o),
(86,448,o),
(250,400,cs),
(440,344,o),
(481,306,o),
(481,232,cs),
(481,171,o),
(434,125,o),
(332,111,c),
(330,62,l),
(366,93,o),
(389,136,o),
(389,192,cs),
(389,271,o),
(317,330,o),
(208,330,cs),
(97,330,o),
(33,285,o),
(33,205,cs),
(33,180,o),
(39,157,o),
(48,132,c),
(170,158,l),
(166,167,o),
(164,175,o),
(164,186,cs),
(164,207,o),
(177,223,o),
(208,223,cs),
(244,223,o),
(263,203,o),
(263,173,cs),
(263,141,o),
(235,118,o),
(167,107,c),
(189,0,l)
);
}
);
width = 652;
},
{
anchors = (
{
name = top_candrabindu;
pos = (339,622);
},
{
name = top_vedic;
pos = (304,622);
}
);
background = {
anchors = (
{
name = Anchor8;
pos = (329,622);
},
{
name = top_candrabindu;
pos = (339,622);
}
);
shapes = (
{
closed = 1;
nodes = (
(472,14,o),
(574,100,o),
(574,251,cs),
(574,371,o),
(524,450,o),
(340,500,cs),
(186,542,o),
(174,591,o),
(174,634,cs),
(174,647,o),
(175,666,o),
(182,696,c),
(102,703,l),
(96,675,o),
(93,648,o),
(93,628,cs),
(93,533,o),
(148,468,o),
(317,425,cs),
(464,388,o),
(492,327,o),
(492,249,cs),
(492,134,o),
(416,71,o),
(329,59,c),
(367,38,l),
(377,68,o),
(381,95,o),
(381,126,cs),
(381,232,o),
(315,292,o),
(216,292,cs),
(117,292,o),
(59,226,o),
(59,139,cs),
(59,51,o),
(112,6,o),
(172,6,cs),
(212,6,o),
(240,29,o),
(240,69,cs),
(240,109,o),
(215,129,o),
(181,129,cs),
(146,129,o),
(125,104,o),
(125,70,c),
(139,64,l),
(161,78,l),
(146,93,o),
(140,118,o),
(140,138,cs),
(140,187,o),
(170,222,o),
(220,222,cs),
(276,222,o),
(304,186,o),
(304,133,cs),
(304,98,o),
(299,73,o),
(286,38,c),
(349,-10,l)
);
}
);
};
guides = (
{
angle = 166.3013;
pos = (299,416);
}
);
layerId = UUID0;
shapes = (
{
closed = 1;
nodes = (
(472,14,o),
(574,100,o),
(574,251,cs),
(574,371,o),
(524,450,o),
(340,500,cs),
(186,542,o),
(174,591,o),
(174,634,cs),
(174,647,o),
(175,666,o),
(182,696,c),
(102,703,l),
(96,675,o),
(93,648,o),
(93,628,cs),
(93,533,o),
(148,468,o),
(317,425,cs),
(464,388,o),
(492,327,o),
(492,249,cs),
(492,134,o),
(416,71,o),
(329,59,c),
(367,38,l),
(377,68,o),
(381,95,o),
(381,126,cs),
(381,232,o),
(315,292,o),
(216,292,cs),
(117,292,o),
(59,226,o),
(59,139,cs),
(59,51,o),
(112,6,o),
(172,6,cs),
(212,6,o),
(240,29,o),
(240,69,cs),
(240,109,o),
(215,129,o),
(181,129,cs),
(146,129,o),
(125,104,o),
(125,70,c),
(139,64,l),
(161,78,l),
(146,93,o),
(140,118,o),
(140,138,cs),
(140,187,o),
(170,222,o),
(220,222,cs),
(276,222,o),
(304,186,o),
(304,133,cs),
(304,98,o),
(299,73,o),
(286,38,c),
(349,-10,l)
);
}
);
width = 609;
},
{
anchors = (
{
name = top_candrabindu;
pos = (329,622);
},
{
name = top_vedic;
pos = (319,622);
}
);
associatedMasterId = UUID0;
background = {
anchors = (
{
name = Anchor4;
pos = (329,622);
},
{
name = Anchor8;
pos = (319,622);
}
);
shapes = (
{
closed = 1;
nodes = (
(107,315,o),
(56,271,o),
(56,207,cs),
(56,182,o),
(62,159,o),
(73,135,c),
(148,152,l),
(141,165,o),
(137,183,o),
(137,196,cs),
(137,224,o),
(157,245,o),
(207,245,cs),
(264,245,o),
(292,214,o),
(292,169,cs),
(292,120,o),
(257,89,o),
(196,68,c),
(219,0,l),
(238,0,ls),
(426,0,o),
(594,58,o),
(594,222,cs),
(594,323,o),
(551,395,o),
(341,464,cs),
(163,522,o),
(144,549,o),
(144,588,cs),
(144,609,o),
(159,631,o),
(195,665,c),
(141,706,l),
(93,663,o),
(63,622,o),
(63,576,cs),
(63,496,o),
(114,458,o),
(298,394,cs),
(472,333,o),
(512,293,o),
(512,221,cs),
(512,135,o),
(437,85,o),
(312,72,c),
(314,62,l),
(352,95,o),
(369,129,o),
(369,181,cs),
(369,259,o),
(299,315,o),
(204,315,cs)
);
}
);
};
layerId = "14C9CDD5-1F0F-4C39-950A-C8702CDF61FC";
name = "9 May 24 at 18:54";
shapes = (
{
closed = 1;
nodes = (
(107,315,o),
(56,271,o),
(56,207,cs),
(56,182,o),
(62,159,o),
(73,135,c),
(148,152,l),
(141,165,o),
(137,183,o),
(137,196,cs),
(137,224,o),
(157,245,o),
(207,245,cs),
(264,245,o),
(292,214,o),
(292,169,cs),
(292,120,o),
(257,89,o),
(196,68,c),
(219,0,l),
(238,0,ls),
(426,0,o),
(594,58,o),
(594,222,cs),
(594,323,o),
(551,395,o),
(341,464,cs),
(163,522,o),
(144,549,o),
(144,588,cs),
(144,609,o),
(159,631,o),
(195,665,c),
(141,706,l),
(93,663,o),
(63,622,o),
(63,576,cs),
(63,496,o),
(114,458,o),
(298,394,cs),
(472,333,o),
(512,293,o),
(512,221,cs),
(512,135,o),
(437,85,o),
(312,72,c),
(314,62,l),
(352,95,o),
(369,129,o),
(369,181,cs),
(369,259,o),
(299,315,o),
(204,315,cs)
);
}
);
width = 639;
},
{
anchors = (
{
name = top_candrabindu;
pos = (324,622);
},
{
name = top_vedic;
pos = (314,622);
}
);
associatedMasterId = UUID0;
background = {
anchors = (
{
name = Anchor4;
pos = (324,622);
},
{
name = Anchor8;
pos = (314,622);
}
);
};
guides = (
{
angle = 166.3013;
pos = (284,416);
}
);
layerId = "A869E4E9-BD5E-4A44-9995-1C71BACBC4A1";
name = "10 Jun 24 at 16:54";
shapes = (
{
closed = 1;
nodes = (
(391,0,o),
(559,71,o),
(559,238,cs),
(559,356,o),
(509,438,o),
(318,489,cs),
(162,530,o),
(139,576,o),
(139,633,cs),
(139,647,o),
(141,666,o),
(146,698,c),
(66,705,l),
(59,665,o),
(58,641,o),
(58,624,cs),
(58,518,o),
(124,455,o),
(284,416,cs),
(448,376,o),
(477,312,o),
(477,233,cs),
(477,135,o),
(402,85,o),
(312,74,c),
(310,55,l),
(347,88,o),
(364,129,o),
(364,186,cs),
(364,269,o),
(309,325,o),
(208,325,cs),
(117,325,o),
(56,257,o),
(56,183,cs),
(56,127,o),
(88,87,o),
(142,87,cs),
(181,87,o),
(208,111,o),
(208,150,cs),
(208,189,o),
(181,210,o),
(145,210,cs),
(110,210,o),
(84,185,o),
(84,151,c),
(148,162,l),
(141,170,o),
(137,181,o),
(137,191,cs),
(137,226,o),
(163,255,o),
(213,255,cs),
(262,255,o),
(287,222,o),
(287,177,cs),
(287,123,o),
(257,91,o),
(232,68,c),
(255,0,l)
);
}
);
width = 604;
},
{
anchors = (
{
name = top_candrabindu;
pos = (309,607);
},
{
name = top_vedic;
pos = (284,607);
}
);
background = {
anchors = (
{
name = Anchor8;
pos = (314,622);
},
{
name = top_candrabindu;
pos = (337,622);
}
);
shapes = (
{
closed = 1;
nodes = (
(389,12,o),
(518,66,o),
(518,227,cs),
(518,334,o),
(480,405,o),
(294,453,cs),
(149,491,o),
(112,536,o),
(112,607,cs),
(112,626,o),
(114,644,o),
(121,675,c),
(101,677,l),
(95,657,o),
(91,632,o),
(91,605,cs),
(91,518,o),
(146,470,o),
(287,435,cs),
(470,388,o),
(497,320,o),
(497,229,cs),
(497,89,o),
(393,34,o),
(306,20,c),
(306,10,l),
(319,38,o),
(329,81,o),
(329,121,cs),
(329,198,o),
(282,258,o),
(197,258,cs),
(127,258,o),
(70,208,o),
(70,134,cs),
(70,59,o),
(117,19,o),
(155,19,cs),
(190,19,o),
(201,36,o),
(201,58,cs),
(201,81,o),
(187,94,o),
(165,94,cs),
(141,94,o),
(126,76,o),
(126,47,c),
(133,26,l),
(162,37,l),
(139,37,o),
(91,62,o),
(91,133,cs),
(91,190,o),
(133,237,o),
(198,237,cs),
(274,237,o),
(308,185,o),
(308,123,cs),
(308,85,o),
(299,56,o),
(286,18,c),
(306,1,l)
);
}
);
};
layerId = "28FB090A-653E-4199-B7BE-FAE23D31B682";
name = Thin;
shapes = (
{
closed = 1;
nodes = (
(389,12,o),
(518,66,o),
(518,227,cs),
(518,334,o),
(480,405,o),
(294,453,cs),
(148,491,o),
(112,536,o),
(112,607,cs),
(112,626,o),
(114,644,o),
(121,675,c),
(101,677,l),
(95,657,o),
(91,632,o),
(91,605,cs),
(91,518,o),
(145,470,o),
(287,435,cs),
(470,390,o),
(497,320,o),
(497,229,cs),
(497,89,o),
(393,34,o),
(306,20,c),
(306,10,l),
(319,38,o),
(329,81,o),
(329,121,cs),
(329,198,o),
(282,258,o),
(197,258,cs),
(127,258,o),
(70,208,o),
(70,134,cs),
(70,59,o),
(117,19,o),
(155,19,cs),
(190,19,o),
(201,36,o),
(201,58,cs),
(201,81,o),
(187,94,o),
(165,94,cs),
(141,94,o),
(126,76,o),
(126,47,c),
(133,26,l),
(162,37,l),
(139,37,o),
(91,62,o),
(91,133,cs),
(91,190,o),
(133,237,o),
(198,237,cs),
(274,237,o),
(308,185,o),
(308,123,cs),
(308,85,o),
(299,56,o),
(286,18,c),
(306,1,l)
);
}
);
width = 568;
},
{
anchors = (
{
name = top_candrabindu;
pos = (362,635);
},
{
name = top_vedic;
pos = (338,635);
}
);
background = {
anchors = (
{
name = Anchor8;
pos = (348,635);
},
{
name = top_candrabindu;
pos = (362,635);
}
);
shapes = (
{
closed = 1;
nodes = (
(537,17,o),
(656,111,o),
(656,261,cs),
(656,374,o),
(618,481,o),
(369,543,cs),
(247,573,o),
(229,606,o),
(229,649,cs),
(229,659,o),
(230,672,o),
(234,694,c),
(84,707,l),
(74,673,o),
(71,649,o),
(71,624,cs),
(71,520,o),
(131,454,o),
(307,411,cs),
(462,373,o),
(492,320,o),
(492,260,cs),
(492,191,o),
(455,145,o),
(372,131,c),
(409,25,l),
(427,59,o),
(433,112,o),
(433,146,cs),
(433,265,o),
(343,339,o),
(225,339,cs),
(102,339,o),
(30,256,o),
(30,161,cs),
(30,61,o),
(89,6,o),
(159,6,cs),
(218,6,o),
(256,36,o),
(256,91,cs),
(256,134,o),
(231,169,o),
(175,169,cs),
(122,169,o),
(96,138,o),
(96,99,c),
(149,105,l),
(197,129,l),
(188,135,o),
(181,151,o),
(181,166,cs),
(181,192,o),
(201,213,o),
(233,213,cs),
(271,213,o),
(297,191,o),
(297,130,cs),
(297,109,o),
(295,86,o),
(290,67,c),
(397,-10,l)
);
}
);
};
layerId = "F455777D-7EDD-47E2-866A-D8A5173CE243";
shapes = (
{
closed = 1;
nodes = (
(537,17,o),
(656,111,o),
(656,261,cs),
(656,374,o),
(618,481,o),
(369,543,cs),
(247,573,o),
(229,606,o),
(229,649,cs),
(229,659,o),
(230,672,o),
(234,694,c),
(84,707,l),
(74,673,o),
(71,649,o),
(71,624,cs),
(71,520,o),
(131,454,o),
(307,411,cs),
(462,373,o),
(492,320,o),
(492,260,cs),
(492,191,o),
(455,145,o),
(372,131,c),
(409,25,l),
(427,59,o),
(433,112,o),
(433,146,cs),
(433,265,o),
(343,339,o),
(225,339,cs),
(102,339,o),
(30,256,o),
(30,161,cs),
(30,61,o),
(89,6,o),
(159,6,cs),
(218,6,o),
(256,36,o),
(256,91,cs),
(256,134,o),
(231,169,o),
(175,169,cs),
(122,169,o),
(96,138,o),
(96,99,c),
(149,105,l),
(197,129,l),
(188,135,o),
(181,151,o),
(181,166,cs),
(181,192,o),
(201,213,o),
(233,213,cs),
(271,213,o),
(297,191,o),
(297,130,cs),
(297,109,o),
(295,86,o),
(290,67,c),
(397,-10,l)
);
}
);
width = 676;
}
);
script = bengali;
subCategory = Spacing;
unicode = 2444;
},
{
category = Letter;
color = 5;
glyphname = "e-beng";
lastChange = "2024-11-28 18:19:52 +0000";
layers = (
{
anchors = (
{
name = top_candrabindu;
pos = (482,622);
},
{
name = top_vedic;
pos = (365,622);
}
);
background = {
anchors = (
{
name = Anchor8;
pos = (353,622);
},
{
name = top_candrabindu;
pos = (482,622);
}
);
shapes = (
{
closed = 1;
nodes = (
(641,0,l),
(641,474,ls),
(641,584,o),
(578,632,o),
(490,632,cs),
(358,632,o),
(258,504,o),
(258,396,cs),
(258,309,o),
(310,274,o),
(359,274,cs),
(405,274,o),
(442,300,o),
(442,347,cs),
(442,388,o),
(410,415,o),
(373,415,cs),
(338,415,o),
(309,394,o),
(309,351,cs),
(309,318,o),
(330,289,o),
(378,289,c),
(391,349,l),
(345,349,o),
(337,377,o),
(337,397,cs),
(337,463,o),
(402,561,o),
(498,561,cs),
(549,561,o),
(564,532,o),
(564,482,cs),
(564,106,l),
(535,146,o),
(497,161,o),
(445,161,cs),
(375,161,o),
(327,144,o),
(265,144,cs),
(199,144,o),
(124,162,o),
(124,280,cs),
(124,319,o),
(130,346,o),
(135,366,c),
(58,377,l),
(52,348,o),
(46,310,o),
(46,278,cs),
(46,97,o),
(179,70,o),
(261,70,cs),
(343,70,o),
(393,87,o),
(465,87,cs),
(520,87,o),
(549,60,o),
(566,0,c)
);
}
);
};
layerId = UUID0;
shapes = (
{
closed = 1;
nodes = (
(641,0,l),
(641,474,ls),
(641,584,o),
(578,632,o),
(490,632,cs),
(358,632,o),
(258,504,o),
(258,396,cs),
(258,309,o),
(310,274,o),
(359,274,cs),
(405,274,o),
(442,300,o),
(442,347,cs),
(442,388,o),
(410,415,o),
(373,415,cs),
(338,415,o),
(309,394,o),
(309,351,cs),
(309,318,o),
(330,289,o),
(378,289,c),
(391,349,l),
(345,349,o),
(337,377,o),
(337,397,cs),
(337,463,o),
(402,561,o),
(498,561,cs),
(549,561,o),
(564,532,o),
(564,482,cs),
(564,104,l),
(535,146,o),
(497,161,o),
(445,161,cs),
(375,161,o),
(327,144,o),
(259,144,cs),
(199,144,o),
(124,162,o),
(124,280,cs),
(124,319,o),
(130,346,o),
(135,366,c),
(58,377,l),
(52,348,o),
(46,310,o),
(46,278,cs),
(46,97,o),
(179,70,o),
(255,70,cs),
(343,70,o),
(393,87,o),
(465,87,cs),
(520,87,o),
(547,60,o),
(564,0,c)
);
}
);
width = 731;
},
{
anchors = (
{
name = top_candrabindu;
pos = (475,622);
},
{
name = top_vedic;
pos = (379,622);
}
);
associatedMasterId = UUID0;
background = {
anchors = (
{
name = Anchor4;
pos = (475,622);
},
{
name = Anchor8;
pos = (379,622);
}
);
shapes = (
{
closed = 1;
nodes = (
(374,628,o),
(254,499,o),
(254,392,cs),
(254,309,o),
(311,270,o),
(376,270,cs),
(405,270,o),
(427,273,o),
(441,278,c),
(434,348,l),
(419,346,o),
(407,345,o),
(392,345,cs),
(341,345,o),
(333,373,o),
(333,393,cs),
(333,459,o),
(418,557,o),
(514,557,cs),
(540,557,o),
(557,552,o),
(569,542,cs),
(583,529,o),
(590,512,o),
(590,463,cs),
(590,106,l),
(561,146,o),
(518,161,o),
(461,161,cs),
(391,161,o),
(343,144,o),
(276,144,cs),
(202,144,o),
(124,162,o),
(124,280,cs),
(124,319,o),
(130,346,o),
(135,366,c),
(58,377,l),
(52,348,o),
(46,310,o),
(46,278,cs),
(46,97,o),
(182,70,o),
(272,70,cs),
(359,70,o),
(409,87,o),
(481,87,cs),
(541,87,o),
(575,60,o),
(592,0,c),
(667,0,l),
(667,490,ls),
(667,545,o),
(651,573,o),
(626,594,cs),
(600,616,o),
(565,628,o),
(511,628,cs)
);
}
);
};
layerId = "34621F5F-998E-4629-9923-A3CB0EA48261";
name = "7 May 24 at 21:21";
shapes = (
{
closed = 1;
nodes = (
(374,628,o),
(254,499,o),
(254,392,cs),
(254,309,o),
(311,270,o),
(376,270,cs),
(405,270,o),
(427,273,o),
(441,278,c),
(434,348,l),
(419,346,o),
(407,345,o),
(392,345,cs),
(341,345,o),
(333,373,o),
(333,393,cs),
(333,459,o),
(418,557,o),
(514,557,cs),
(540,557,o),
(557,552,o),
(569,542,cs),
(583,529,o),
(590,512,o),
(590,463,cs),
(590,106,l),
(561,146,o),
(518,161,o),
(461,161,cs),
(391,161,o),
(343,144,o),
(276,144,cs),
(202,144,o),
(124,162,o),
(124,280,cs),
(124,319,o),
(130,346,o),
(135,366,c),
(58,377,l),
(52,348,o),
(46,310,o),
(46,278,cs),
(46,97,o),
(182,70,o),
(272,70,cs),
(359,70,o),
(409,87,o),
(481,87,cs),
(541,87,o),
(575,60,o),
(592,0,c),
(667,0,l),
(667,490,ls),
(667,545,o),
(651,573,o),
(626,594,cs),
(600,616,o),
(565,628,o),
(511,628,cs)
);
}
);
width = 758;
},
{
anchors = (
{
name = top_candrabindu;
pos = (502,622);
},
{
name = top_vedic;
pos = (373,622);
}
);
associatedMasterId = UUID0;
background = {
anchors = (
{
name = Anchor4;
pos = (469,622);
},
{
name = Anchor8;
pos = (373,622);
}
);
shapes = (
{
closed = 1;
nodes = (
(448,622,o),
(391,594,o),
(341,551,cs),
(283,500,o),
(239,422,o),
(239,343,cs),
(239,258,o),
(293,207,o),
(361,207,cs),
(410,207,o),
(449,233,o),
(449,283,cs),
(449,327,o),
(417,354,o),
(377,354,cs),
(339,354,o),
(310,333,o),
(310,287,cs),
(310,251,o),
(331,222,o),
(379,222,c),
(386,282,l),
(337,282,o),
(317,305,o),
(317,347,cs),
(317,395,o),
(339,443,o),
(377,484,cs),
(412,522,o),
(460,550,o),
(512,550,cs),
(574,550,o),
(584,513,o),
(584,441,cs),
(584,95,l),
(179,95,l),
(179,24,l),
(766,24,l),
(766,95,l),
(661,95,l),
(661,455,ls),
(661,561,o),
(621,622,o),
(517,622,cs)
);
},
{
closed = 1;
nodes = (
(661,0,l),
(661,470,ls),
(661,580,o),
(598,628,o),
(505,628,cs),
(373,628,o),
(253,500,o),
(253,392,cs),
(253,305,o),
(310,270,o),
(359,270,cs),
(405,270,o),
(442,296,o),
(442,343,cs),
(442,384,o),
(410,411,o),
(373,411,cs),
(338,411,o),
(309,390,o),
(309,347,cs),
(309,314,o),
(330,285,o),
(378,285,c),
(391,345,l),
(340,345,o),
(332,373,o),
(332,393,cs),
(332,459,o),
(417,557,o),
(513,557,cs),
(569,557,o),
(584,528,o),
(584,478,cs),
(584,106,l),
(555,146,o),
(512,161,o),
(455,161,cs),
(385,161,o),
(337,144,o),
(270,144,cs),
(199,144,o),
(124,162,o),
(124,280,cs),
(124,319,o),
(130,346,o),
(135,366,c),
(58,377,l),
(52,348,o),
(46,310,o),
(46,278,cs),
(46,97,o),
(179,70,o),
(266,70,cs),
(353,70,o),
(403,87,o),
(475,87,cs),
(535,87,o),
(569,60,o),
(586,0,c)
);
}
);
};
layerId = "69D6AFB9-9F9C-4286-BD36-054BA07ED906";
name = "20 May 24 at 16:50";
shapes = (
{
closed = 1;
nodes = (
(661,0,l),
(661,470,ls),
(661,580,o),
(598,628,o),
(505,628,cs),
(368,628,o),
(253,500,o),
(253,392,cs),
(253,305,o),
(310,270,o),
(359,270,cs),
(405,270,o),
(442,296,o),
(442,343,cs),
(442,384,o),
(410,411,o),
(373,411,cs),
(338,411,o),
(309,390,o),
(309,347,cs),
(309,314,o),
(330,285,o),
(378,285,c),
(391,345,l),
(340,345,o),
(332,373,o),
(332,393,cs),
(332,459,o),
(412,557,o),
(513,557,cs),
(569,557,o),
(584,528,o),
(584,478,cs),
(584,106,l),
(555,146,o),
(512,161,o),
(455,161,cs),
(385,161,o),
(337,144,o),
(270,144,cs),
(199,144,o),
(124,162,o),
(124,280,cs),
(124,319,o),
(130,346,o),
(135,366,c),
(58,377,l),
(52,348,o),
(46,310,o),
(46,278,cs),
(46,97,o),
(179,70,o),
(266,70,cs),
(353,70,o),
(403,87,o),
(475,87,cs),
(535,87,o),
(569,60,o),
(586,0,c)
);
}
);
width = 752;
},
{
anchors = (
{
name = top_candrabindu;
pos = (482,622);
},
{
name = top_vedic;
pos = (353,622);
}
);
associatedMasterId = UUID0;
background = {
anchors = (
{
name = Anchor4;
pos = (449,622);
},
{
name = Anchor8;
pos = (353,622);
}
);
shapes = (
{
closed = 1;
nodes = (
(428,622,o),
(371,594,o),
(321,551,cs),
(263,500,o),
(219,422,o),
(219,343,cs),
(219,258,o),
(273,207,o),
(341,207,cs),
(390,207,o),
(429,233,o),
(429,283,cs),
(429,327,o),
(397,354,o),
(357,354,cs),
(319,354,o),
(290,333,o),
(290,287,cs),
(290,251,o),
(311,222,o),
(359,222,c),
(366,282,l),
(317,282,o),
(297,305,o),
(297,347,cs),
(297,395,o),
(319,443,o),
(357,484,cs),
(392,522,o),
(440,550,o),
(492,550,cs),
(554,550,o),
(564,513,o),
(564,441,cs),
(564,95,l),
(159,95,l),
(159,24,l),
(746,24,l),
(746,95,l),
(641,95,l),
(641,455,ls),
(641,561,o),
(601,622,o),
(497,622,cs)
);
},
{
closed = 1;
nodes = (
(641,0,l),
(641,470,ls),
(641,580,o),
(578,628,o),
(485,628,cs),
(353,628,o),
(233,500,o),
(233,392,cs),
(233,305,o),
(290,270,o),
(339,270,cs),
(385,270,o),
(422,296,o),
(422,343,cs),
(422,384,o),
(390,411,o),
(353,411,cs),
(318,411,o),
(289,390,o),
(289,347,cs),
(289,314,o),
(310,285,o),
(358,285,c),
(371,345,l),
(320,345,o),
(312,373,o),
(312,393,cs),
(312,459,o),
(397,557,o),
(493,557,cs),
(549,557,o),
(564,528,o),
(564,478,cs),
(564,106,l),
(535,146,o),
(492,161,o),
(435,161,cs),
(365,161,o),
(317,144,o),
(250,144,cs),
(179,144,o),
(104,162,o),
(104,280,cs),
(104,319,o),
(110,346,o),
(115,366,c),
(38,377,l),
(32,348,o),
(26,310,o),
(26,278,cs),
(26,97,o),
(159,70,o),
(246,70,cs),
(333,70,o),
(383,87,o),
(455,87,cs),
(515,87,o),
(549,60,o),
(566,0,c)
);
}
);
};
layerId = "2F4225A6-2432-48C2-9385-6998BE27744A";
name = "20 May 24 at 17:39";
shapes = (
{
closed = 1;
nodes = (
(641,0,l),
(641,470,ls),
(641,580,o),
(578,628,o),
(490,628,cs),
(358,628,o),
(253,500,o),
(253,392,cs),
(253,305,o),
(310,270,o),
(359,270,cs),
(405,270,o),
(442,296,o),
(442,343,cs),
(442,384,o),
(410,411,o),
(373,411,cs),
(338,411,o),
(309,390,o),
(309,347,cs),
(309,314,o),
(330,285,o),
(378,285,c),
(391,345,l),
(340,345,o),
(332,373,o),
(332,393,cs),
(332,459,o),
(402,557,o),
(498,557,cs),
(549,557,o),
(564,528,o),
(564,478,cs),
(564,106,l),
(535,146,o),
(497,161,o),
(445,161,cs),
(375,161,o),
(327,144,o),
(265,144,cs),
(199,144,o),
(124,162,o),
(124,280,cs),
(124,319,o),
(130,346,o),
(135,366,c),
(58,377,l),
(52,348,o),
(46,310,o),
(46,278,cs),
(46,97,o),
(179,70,o),
(261,70,cs),
(343,70,o),
(393,87,o),
(465,87,cs),
(520,87,o),
(549,60,o),
(566,0,c)
);
}
);
width = 732;
},
{
anchors = (
{
name = top_candrabindu;
pos = (477,607);
},
{
name = top_vedic;
pos = (346,607);
}
);
background = {
anchors = (
{
name = Anchor8;
pos = (368,607);
},
{
name = top_candrabindu;
pos = (474,607);
}
);
shapes = (
{
closed = 1;
nodes = (
(593,0,l),
(593,482,ls),
(593,578,o),
(552,617,o),
(478,617,cs),
(359,617,o),
(255,497,o),
(255,388,cs),
(255,313,o),
(287,281,o),
(330,281,cs),
(365,281,o),
(384,302,o),
(384,332,cs),
(384,362,o),
(364,381,o),
(335,381,cs),
(312,381,o),
(289,363,o),
(289,334,cs),
(289,311,o),
(304,289,o),
(335,289,c),
(334,300,l),
(292,300,o),
(276,337,o),
(276,385,cs),
(276,478,o),
(364,596,o),
(478,596,cs),
(551,596,o),
(572,555,o),
(572,481,cs),
(572,51,l),
(552,105,o),
(514,137,o),
(452,137,cs),
(389,137,o),
(320,115,o),
(246,115,cs),
(167,115,o),
(75,139,o),
(75,270,cs),
(75,303,o),
(81,335,o),
(87,361,c),
(67,364,l),
(60,337,o),
(54,304,o),
(54,271,cs),
(54,126,o),
(159,94,o),
(247,94,cs),
(338,94,o),
(382,116,o),
(452,116,cs),
(527,116,o),
(550,67,o),
(572,0,c)
);
}
);
};
layerId = "28FB090A-653E-4199-B7BE-FAE23D31B682";
name = Light;
shapes = (
{
closed = 1;
nodes = (
(593,0,l),
(593,482,ls),
(593,578,o),
(552,617,o),
(478,617,cs),
(359,617,o),
(255,497,o),
(255,388,cs),
(255,313,o),
(287,281,o),
(330,281,cs),
(365,281,o),
(384,302,o),
(384,332,cs),
(384,362,o),
(364,381,o),
(335,381,cs),
(312,381,o),
(289,363,o),
(289,334,cs),
(289,311,o),
(304,289,o),
(335,289,c),
(334,300,l),
(292,300,o),
(276,337,o),
(276,385,cs),
(276,478,o),
(364,596,o),
(478,596,cs),
(551,596,o),
(572,555,o),
(572,481,cs),
(572,49,l),
(552,105,o),
(514,137,o),
(452,137,cs),
(389,137,o),
(320,115,o),
(246,115,cs),
(167,115,o),
(75,139,o),
(75,270,cs),
(75,303,o),
(81,335,o),
(87,361,c),
(67,364,l),
(60,337,o),
(54,304,o),
(54,271,cs),
(54,126,o),
(159,94,o),
(247,94,cs),
(338,94,o),
(382,116,o),
(452,116,cs),
(527,116,o),
(550,67,o),
(572,0,c)
);
}
);
width = 693;
},
{
anchors = (
{
name = top_candrabindu;
pos = (471,635);
},
{
name = top_vedic;
pos = (370,635);
}
);
background = {
anchors = (
{
name = Anchor8;
pos = (342,635);
},
{
name = top_candrabindu;
pos = (471,635);
}
);
shapes = (
{
closed = 1;
nodes = (
(677,0,l),
(677,441,ls),
(677,579,o),
(609,645,o),
(491,645,cs),
(338,645,o),
(218,522,o),
(218,391,cs),
(218,308,o),
(276,255,o),
(351,255,cs),
(416,255,o),
(468,291,o),
(468,361,cs),
(468,417,o),
(428,460,o),
(369,460,cs),
(326,460,o),
(276,430,o),
(276,368,cs),
(276,314,o),
(312,273,o),
(389,273,c),
(417,391,l),
(386,391,o),
(378,403,o),
(378,420,cs),
(378,455,o),
(428,515,o),
(475,515,cs),
(503,515,o),
(514,499,o),
(514,462,cs),
(514,145,l),
(487,186,o),
(448,200,o),
(399,200,cs),
(352,200,o),
(312,187,o),
(265,187,cs),
(210,187,o),
(172,209,o),
(172,284,cs),
(172,306,o),
(176,332,o),
(182,356,c),
(25,379,l),
(16,346,o),
(11,308,o),
(11,278,cs),
(11,101,o),
(124,44,o),
(249,44,cs),
(311,44,o),
(362,58,o),
(423,58,cs),
(478,58,o),
(499,41,o),
(517,0,c)
);
}
);
};
layerId = "F455777D-7EDD-47E2-866A-D8A5173CE243";
shapes = (
{
closed = 1;
nodes = (
(677,0,l),
(677,441,ls),
(677,575,o),
(609,641,o),
(491,641,cs),
(338,641,o),
(218,522,o),
(218,391,cs),
(218,308,o),
(276,255,o),
(351,255,cs),
(416,255,o),
(468,291,o),
(468,361,cs),
(468,417,o),
(428,460,o),
(369,460,cs),
(326,460,o),
(276,430,o),
(276,368,cs),
(276,314,o),
(312,273,o),
(389,273,c),
(417,391,l),
(386,391,o),
(378,403,o),
(378,420,cs),
(378,455,o),
(428,511,o),
(475,511,cs),
(503,511,o),
(514,495,o),
(514,462,cs),
(514,145,l),
(487,186,o),
(448,200,o),
(399,200,cs),
(352,200,o),
(312,187,o),
(265,187,cs),
(210,187,o),
(172,209,o),
(172,288,cs),
(172,314,o),
(176,344,o),
(182,368,c),
(25,391,l),
(16,358,o),
(11,316,o),
(11,282,cs),
(11,101,o),
(124,44,o),
(249,44,cs),
(311,44,o),
(362,58,o),
(423,58,cs),
(478,58,o),
(499,41,o),
(517,0,c)
);
}
);
width = 740;
}
);
script = bengali;
subCategory = Spacing;
unicode = 2447;
},
{
category = Letter;
color = 5;
glyphname = "ai-beng";
lastChange = "2024-11-28 18:19:52 +0000";
layers = (
{
anchors = (
{
name = top_candrabindu;
pos = (577,638);
},
{
name = top_vedic;
pos = (426,622);
}
);
background = {
anchors = (
{
name = Anchor8;
pos = (436,622);
}
);
shapes = (
{
closed = 1;
nodes = (
(722,410,o),
(803,467,o),
(803,575,cs),
(803,701,o),
(710,747,o),
(577,765,cs),
(446,783,ls),
(383,792,o),
(352,815,o),
(352,878,cs),
(352,888,o),
(353,903,o),
(355,913,c),
(281,917,l),
(279,905,o),
(277,887,o),
(277,875,cs),
(277,773,o),
(330,724,o),
(454,707,cs),
(558,693,ls),
(645,681,o),
(725,660,o),
(725,573,cs),
(725,506,o),
(677,471,o),
(629,449,c),
(629,370,l)
);
},
{
ref = "e-beng";
}
);
};
layerId = UUID0;
shapes = (
{
closed = 1;
nodes = (
(722,410,o),
(803,467,o),
(803,575,cs),
(803,701,o),
(710,747,o),
(577,765,cs),
(446,783,ls),
(383,792,o),
(352,815,o),
(352,878,cs),
(352,888,o),
(353,903,o),
(355,913,c),
(281,917,l),
(279,905,o),
(277,887,o),
(277,875,cs),
(277,773,o),
(330,724,o),
(454,707,cs),
(558,693,ls),
(645,681,o),
(725,660,o),
(725,573,cs),
(725,506,o),
(677,471,o),
(629,449,c),
(629,370,l)
);
},
{
ref = "e-beng";
}
);
width = 853;
},
{
anchors = (
{
name = top_vedic;
pos = (436,622);
}
);
associatedMasterId = UUID0;
background = {
anchors = (
{
name = Anchor8;
pos = (436,622);
}
);
shapes = (
{
closed = 1;
nodes = (
(823,633,o),
(802,679,o),
(762,710,cs),
(728,737,o),
(685,753,o),
(616,762,cs),
(475,781,ls),
(427,787,o),
(405,798,o),
(391,814,cs),
(377,831,o),
(371,851,o),
(371,878,cs),
(371,888,o),
(372,901,o),
(374,913,c),
(300,917,l),
(298,904,o),
(296,885,o),
(296,875,cs),
(296,773,o),
(346,724,o),
(473,707,cs),
(591,691,ls),
(650,683,o),
(691,670,o),
(715,646,cs),
(734,627,o),
(745,604,o),
(745,570,cs),
(745,508,o),
(695,458,o),
(642,431,c),
(588,335,l),
(729,390,o),
(823,460,o),
(823,577,cs)
);
},
{
closed = 1;
nodes = (
(589,42,o),
(677,106,o),
(677,221,cs),
(677,310,o),
(622,402,o),
(517,402,cs),
(458,402,o),
(437,366,o),
(437,338,cs),
(437,304,o),
(463,273,o),
(513,273,cs),
(595,273,o),
(662,368,o),
(662,477,cs),
(662,572,o),
(602,629,o),
(498,629,cs),
(362,629,o),
(244,522,o),
(244,424,cs),
(244,380,o),
(268,338,o),
(323,338,cs),
(362,338,o),
(391,361,o),
(391,403,cs),
(391,436,o),
(371,467,o),
(324,467,cs),
(292,467,o),
(267,441,o),
(267,410,cs),
(267,371,o),
(297,355,o),
(333,355,c),
(349,402,l),
(328,402,o),
(321,414,o),
(321,431,cs),
(321,485,o),
(406,558,o),
(499,558,cs),
(553,558,o),
(582,532,o),
(582,480,cs),
(582,405,o),
(551,344,o),
(476,344,c),
(474,338,l),
(554,338,o),
(596,297,o),
(596,227,cs),
(596,151,o),
(535,118,o),
(454,118,cs),
(296,118,o),
(177,243,o),
(99,529,c),
(24,507,l),
(111,169,o),
(275,42,o),
(452,42,cs)
);
}
);
};
layerId = "C334DCE2-A069-46AF-B1CC-FBBD461CCAB7";
name = "20 May 24 at 16:50";
shapes = (
{
closed = 1;
nodes = (
(742,410,o),
(823,467,o),
(823,575,cs),
(823,701,o),
(730,747,o),
(597,765,cs),
(466,783,ls),
(404,791,o),
(372,815,o),
(372,878,cs),
(372,888,o),
(373,903,o),
(375,913,c),
(301,917,l),
(299,905,o),
(297,887,o),
(297,875,cs),
(297,773,o),
(350,724,o),
(474,707,cs),
(578,693,ls),
(665,681,o),
(745,660,o),
(745,573,cs),
(745,506,o),
(697,471,o),
(649,449,c),
(649,370,l)
);
},
{
ref = "e-beng";
}
);
width = 873;
},
{
anchors = (
{
name = top_candrabindu;
pos = (558,645);
},
{
name = top_vedic;
pos = (402,607);
}
);
background = {
anchors = (
{
name = Anchor8;
pos = (426,622);
}
);
shapes = (
{
closed = 1;
nodes = (
(666,428,o),
(754,477,o),
(754,581,cs),
(754,695,o),
(667,730,o),
(550,746,cs),
(419,765,ls),
(343,776,o),
(304,799,o),
(304,879,cs),
(304,889,o),
(305,906,o),
(307,915,c),
(286,917,l),
(284,905,o),
(283,889,o),
(283,880,cs),
(283,782,o),
(339,755,o),
(416,744,cs),
(550,724,ls),
(651,709,o),
(732,685,o),
(732,582,cs),
(732,492,o),
(656,446,o),
(588,418,c),
(588,397,l)
);
},
{
alignment = -1;
ref = "e-beng";
}
);
};
layerId = "28FB090A-653E-4199-B7BE-FAE23D31B682";
shapes = (
{
closed = 1;
nodes = (
(666,428,o),
(754,477,o),
(754,581,cs),
(754,695,o),
(668,729,o),
(550,746,cs),
(419,765,ls),
(343,776,o),
(304,799,o),
(304,879,cs),
(304,889,o),
(305,906,o),
(307,915,c),
(286,917,l),
(284,905,o),
(283,889,o),
(283,880,cs),
(283,782,o),
(339,755,o),
(416,744,cs),
(550,724,ls),
(651,709,o),
(732,685,o),
(732,582,cs),
(732,492,o),
(656,446,o),
(588,418,c),
(588,397,l)
);
},
{
alignment = -1;
ref = "e-beng";
}
);
width = 805;
},
{
anchors = (
{
name = top_candrabindu;
pos = (695,662);
},
{
name = top_vedic;
pos = (463,635);
}
);
background = {
anchors = (
{
name = Anchor8;
pos = (473,635);
}
);
shapes = (
{
closed = 1;
nodes = (
(796,379,o),
(889,462,o),
(889,584,cs),
(889,731,o),
(778,792,o),
(629,811,cs),
(517,825,ls),
(468,831,o),
(446,848,o),
(446,881,cs),
(446,888,o),
(447,899,o),
(448,908,c),
(294,917,l),
(291,903,o),
(289,883,o),
(289,869,cs),
(289,752,o),
(361,698,o),
(482,682,cs),
(591,668,ls),
(696,655,o),
(740,629,o),
(740,574,cs),
(740,525,o),
(709,497,o),
(655,482,c),
(655,323,l)
);
},
{
alignment = -1;
ref = "e-beng";
}
);
};
layerId = "F455777D-7EDD-47E2-866A-D8A5173CE243";
shapes = (
{
closed = 1;
nodes = (
(796,379,o),
(889,462,o),
(889,584,cs),
(889,731,o),
(778,792,o),
(629,811,cs),
(517,825,ls),
(468,831,o),
(446,848,o),
(446,881,cs),
(446,890,o),
(447,899,o),
(448,908,c),
(294,917,l),
(291,903,o),
(289,883,o),
(289,869,cs),
(289,752,o),
(361,698,o),
(482,682,cs),
(591,668,ls),
(696,655,o),
(740,629,o),
(740,574,cs),
(740,525,o),
(709,497,o),
(655,482,c),
(655,323,l)
);
},
{
alignment = -1;
ref = "e-beng";
}
);
width = 926;
}
);
script = bengali;
subCategory = Spacing;
unicode = 2448;
},
{
category = Letter;
color = 5;
glyphname = "o-beng";
lastChange = "2024-11-28 18:19:52 +0000";
layers = (
{
anchors = (
{
name = top_candrabindu;
pos = (470,622);
},
{
name = top_vedic;
pos = (369,622);
}
);
background = {
anchors = (
{
name = Anchor8;
pos = (369,622);
},
{
name = top_candrabindu;
pos = (465,622);
}
);
shapes = (
{
closed = 1;
nodes = (
(599,42,o),
(686,106,o),
(686,221,cs),
(686,310,o),
(631,402,o),
(526,402,cs),
(467,402,o),
(446,366,o),
(446,338,cs),
(446,304,o),
(472,273,o),
(522,273,cs),
(604,273,o),
(671,368,o),
(671,477,cs),
(671,572,o),
(611,629,o),
(507,629,cs),
(371,629,o),
(253,522,o),
(253,424,cs),
(253,380,o),
(277,338,o),
(332,338,cs),
(371,338,o),
(400,361,o),
(400,403,cs),
(400,436,o),
(380,467,o),
(333,467,cs),
(301,467,o),
(276,441,o),
(276,410,cs),
(276,371,o),
(306,355,o),
(342,355,c),
(358,402,l),
(337,402,o),
(330,414,o),
(330,431,cs),
(330,485,o),
(415,558,o),
(508,558,cs),
(562,558,o),
(591,532,o),
(591,480,cs),
(591,405,o),
(560,344,o),
(485,344,c),
(483,338,l),
(563,338,o),
(605,297,o),
(605,227,cs),
(605,151,o),
(544,118,o),
(465,118,cs),
(303,118,o),
(186,243,o),
(108,529,c),
(33,507,l),
(120,169,o),
(284,42,o),
(468,42,cs)
);
}
);
};
layerId = UUID0;
shapes = (
{
closed = 1;
nodes = (
(599,42,o),
(686,106,o),
(686,221,cs),
(686,310,o),
(631,402,o),
(526,402,cs),
(467,402,o),
(446,366,o),
(446,338,cs),
(446,304,o),
(472,273,o),
(522,273,cs),
(604,273,o),
(671,368,o),
(671,477,cs),
(671,572,o),
(611,629,o),
(507,629,cs),
(371,629,o),
(253,522,o),
(253,424,cs),
(253,380,o),
(277,338,o),
(332,338,cs),
(371,338,o),
(400,361,o),
(400,403,cs),
(400,436,o),
(380,467,o),
(333,467,cs),
(301,467,o),
(276,441,o),
(276,410,cs),
(276,371,o),
(306,355,o),
(342,355,c),
(358,402,l),
(337,402,o),
(330,414,o),
(330,431,cs),
(330,485,o),
(415,558,o),
(508,558,cs),
(562,558,o),
(591,532,o),
(591,480,cs),
(591,405,o),
(560,344,o),
(485,344,c),
(483,338,l),
(563,338,o),
(605,297,o),
(605,227,cs),
(605,151,o),
(544,118,o),
(465,118,cs),
(303,118,o),
(186,243,o),
(108,529,c),
(33,507,l),
(120,169,o),
(284,42,o),
(468,42,cs)
);
}
);
width = 738;
},
{
anchors = (
{
name = top_candrabindu;
pos = (425,622);
},
{
name = top_vedic;
pos = (369,622);
}
);
associatedMasterId = UUID0;
background = {
anchors = (
{
name = Anchor4;
pos = (425,622);
},
{
name = Anchor8;
pos = (369,622);
}
);
shapes = (
{
closed = 1;
nodes = (
(371,629,o),
(251,521,o),
(251,431,cs),
(251,374,o),
(289,335,o),
(365,321,c),
(386,395,l),
(339,402,o),
(331,418,o),
(331,439,cs),
(331,484,o),
(413,558,o),
(509,558,cs),
(562,558,o),
(591,531,o),
(591,482,cs),
(591,419,o),
(538,383,o),
(449,354,c),
(480,282,l),
(591,323,o),
(671,386,o),
(671,483,cs),
(671,574,o),
(611,629,o),
(509,629,cs)
);
},
{
closed = 1;
nodes = (
(681,289,o),
(648,341,o),
(589,373,c),
(509,338,l),
(562,315,o),
(600,280,o),
(600,228,cs),
(600,152,o),
(539,118,o),
(455,118,cs),
(286,118,o),
(183,242,o),
(103,529,c),
(28,507,l),
(117,168,o),
(265,42,o),
(453,42,cs),
(593,42,o),
(681,114,o),
(681,225,cs)
);
}
);
};
layerId = "0C5E1185-0944-40DC-9358-D1DF8D95E871";
name = "6 May 24 at 20:03";
shapes = (
{
closed = 1;
nodes = (
(371,629,o),
(251,521,o),
(251,431,cs),
(251,374,o),
(289,335,o),
(365,321,c),
(386,395,l),
(339,402,o),
(331,418,o),
(331,439,cs),
(331,484,o),
(413,558,o),
(509,558,cs),
(562,558,o),
(591,531,o),
(591,482,cs),
(591,419,o),
(538,383,o),
(449,354,c),
(480,282,l),
(591,323,o),
(671,386,o),
(671,483,cs),
(671,574,o),
(611,629,o),
(509,629,cs)
);
},
{
closed = 1;
nodes = (
(681,289,o),
(648,341,o),
(589,373,c),
(509,338,l),
(562,315,o),
(600,280,o),
(600,228,cs),
(600,152,o),
(539,118,o),
(455,118,cs),
(286,118,o),
(183,242,o),
(103,529,c),
(28,507,l),
(117,168,o),
(265,42,o),
(453,42,cs),
(593,42,o),
(681,114,o),
(681,225,cs)
);
}
);
width = 738;
},
{
anchors = (
{
name = top_candrabindu;
pos = (483,607);
},
{
name = top_vedic;
pos = (348,607);
}
);
background = {
anchors = (
{
name = Anchor8;
pos = (403,607);
},
{
name = top_candrabindu;
pos = (454,607);
}
);
shapes = (
{
closed = 1;
nodes = (
(553,64,o),
(627,122,o),
(627,223,cs),
(627,295,o),
(575,373,o),
(499,373,cs),
(473,373,o),
(456,361,o),
(456,340,cs),
(456,321,o),
(471,307,o),
(499,307,cs),
(569,307,o),
(620,391,o),
(620,487,cs),
(620,567,o),
(574,618,o),
(484,618,cs),
(364,618,o),
(260,515,o),
(260,424,cs),
(260,382,o),
(278,357,o),
(311,357,cs),
(335,357,o),
(351,373,o),
(351,396,cs),
(351,421,o),
(335,435,o),
(310,435,cs),
(288,435,o),
(270,423,o),
(270,399,cs),
(270,378,o),
(293,360,o),
(321,360,c),
(344,379,l),
(293,379,o),
(281,403,o),
(281,420,cs),
(281,498,o),
(371,597,o),
(484,597,cs),
(563,597,o),
(598,555,o),
(598,487,cs),
(598,431,o),
(578,374,o),
(542,345,c),
(542,338,l),
(591,315,o),
(605,266,o),
(605,225,cs),
(605,134,o),
(542,85,o),
(441,85,cs),
(265,85,o),
(148,240,o),
(57,539,c),
(36,533,l),
(136,204,o),
(264,64,o),
(442,64,cs)
);
}
);
};
layerId = "28FB090A-653E-4199-B7BE-FAE23D31B682";
shapes = (
{
closed = 1;
nodes = (
(553,64,o),
(627,122,o),
(627,223,cs),
(627,295,o),
(575,373,o),
(499,373,cs),
(473,373,o),
(456,361,o),
(456,340,cs),
(456,321,o),
(471,307,o),
(499,307,cs),
(569,307,o),
(620,391,o),
(620,487,cs),
(620,567,o),
(574,618,o),
(484,618,cs),
(364,618,o),
(260,515,o),
(260,424,cs),
(260,382,o),
(278,357,o),
(311,357,cs),
(335,357,o),
(351,373,o),
(351,396,cs),
(351,421,o),
(335,435,o),
(310,435,cs),
(288,435,o),
(270,423,o),
(270,399,cs),
(270,378,o),
(293,360,o),
(321,360,c),
(344,379,l),
(293,379,o),
(281,403,o),
(281,420,cs),
(281,498,o),
(371,597,o),
(484,597,cs),
(563,597,o),
(598,555,o),
(598,487,cs),
(598,431,o),
(578,374,o),
(542,345,c),
(542,338,l),
(591,315,o),
(605,266,o),
(605,225,cs),
(605,134,o),
(542,85,o),
(441,85,cs),
(265,85,o),
(148,240,o),
(57,539,c),
(36,533,l),
(136,204,o),
(264,64,o),
(442,64,cs)
);
}
);
width = 696;
},
{
anchors = (
{
name = top_candrabindu;
pos = (487,635);
},
{
name = top_vedic;
pos = (388,635);
}
);
background = {
anchors = (
{
name = Anchor8;
pos = (385,635);
},
{
name = top_candrabindu;
pos = (437,635);
}
);
shapes = (
{
closed = 1;
nodes = (
(662,-4,o),
(749,81,o),
(749,203,cs),
(749,307,o),
(680,406,o),
(552,406,cs),
(476,406,o),
(434,365,o),
(434,315,cs),
(434,263,o),
(476,225,o),
(542,225,cs),
(655,225,o),
(733,342,o),
(733,456,cs),
(733,571,o),
(656,645,o),
(520,645,cs),
(357,645,o),
(242,539,o),
(242,435,cs),
(242,375,o),
(279,330,o),
(340,330,cs),
(392,330,o),
(429,361,o),
(429,414,cs),
(429,458,o),
(401,499,o),
(347,499,cs),
(297,499,o),
(274,459,o),
(274,420,cs),
(274,380,o),
(316,348,o),
(355,348,c),
(420,411,l),
(407,411,o),
(399,420,o),
(399,435,cs),
(399,475,o),
(463,513,o),
(520,513,cs),
(567,513,o),
(583,491,o),
(583,461,cs),
(583,402,o),
(544,352,o),
(492,352,c),
(506,303,l),
(557,295,o),
(590,266,o),
(590,225,cs),
(590,169,o),
(540,146,o),
(482,146,cs),
(332,146,o),
(222,280,o),
(157,521,c),
(9,477,l),
(112,129,o),
(275,-4,o),
(492,-4,cs)
);
}
);
};
layerId = "F455777D-7EDD-47E2-866A-D8A5173CE243";
shapes = (
{
closed = 1;
nodes = (
(662,-4,o),
(749,81,o),
(749,203,cs),
(749,307,o),
(680,406,o),
(552,406,cs),
(476,406,o),
(434,365,o),
(434,315,cs),
(434,263,o),
(476,225,o),
(542,225,cs),
(655,225,o),
(733,342,o),
(733,456,cs),
(733,571,o),
(656,645,o),
(520,645,cs),
(357,645,o),
(242,539,o),
(242,435,cs),
(242,375,o),
(279,330,o),
(340,330,cs),
(392,330,o),
(429,361,o),
(429,414,cs),
(429,458,o),
(401,499,o),
(347,499,cs),
(297,499,o),
(274,459,o),
(274,420,cs),
(274,380,o),
(316,348,o),
(355,348,c),
(420,411,l),
(407,411,o),
(399,420,o),
(399,435,cs),
(399,475,o),
(463,513,o),
(520,513,cs),
(567,513,o),
(583,491,o),
(583,461,cs),
(583,402,o),
(544,352,o),
(492,352,c),
(506,303,l),
(557,295,o),
(590,266,o),
(590,225,cs),
(590,169,o),
(540,146,o),
(482,146,cs),
(332,146,o),
(222,280,o),
(157,521,c),
(9,477,l),
(112,129,o),
(275,-4,o),
(492,-4,cs)
);
}
);
width = 777;
}
);
script = bengali;
subCategory = Spacing;
unicode = 2451;
},
{
category = Letter;
color = 5;
glyphname = "au-beng";
lastChange = "2024-11-28 18:19:52 +0000";
layers = (
{
anchors = (
{
name = top_candrabindu;
pos = (616,637);
},
{
name = top_vedic;
pos = (437,622);
}
);
background = {
anchors = (
{
name = Anchor8;
pos = (437,622);
}
);
shapes = (
{
closed = 1;
nodes = (
(738,387,o),
(832,460,o),
(832,577,cs),
(832,696,o),
(745,746,o),
(625,762,cs),
(485,781,ls),
(409,791,o),
(380,811,o),
(380,876,cs),
(380,883,o),
(381,899,o),
(383,913,c),
(309,917,l),
(307,904,o),
(305,887,o),
(305,868,cs),
(305,779,o),
(360,724,o),
(482,707,cs),
(600,691,ls),
(684,680,o),
(754,655,o),
(754,570,cs),
(754,508,o),
(704,458,o),
(651,431,c),
(597,332,l)
);
},
{
ref = "o-beng";
}
);
};
guides = (
{
angle = -7.7218;
pos = (625,762);
}
);
layerId = UUID0;
shapes = (
{
closed = 1;
nodes = (
(738,387,o),
(832,460,o),
(832,577,cs),
(832,696,o),
(745,746,o),
(625,762,cs),
(485,781,ls),
(409,791,o),
(380,811,o),
(380,876,cs),
(380,883,o),
(381,899,o),
(383,913,c),
(309,917,l),
(307,904,o),
(305,887,o),
(305,868,cs),
(305,779,o),
(360,724,o),
(482,707,cs),
(600,691,ls),
(684,680,o),
(754,655,o),
(754,570,cs),
(754,508,o),
(704,458,o),
(651,431,c),
(597,332,l)
);
},
{
ref = "o-beng";
}
);
width = 874;
},
{
anchors = (
{
name = top_vedic;
pos = (437,622);
}
);
associatedMasterId = UUID0;
background = {
anchors = (
{
name = Anchor8;
pos = (437,622);
}
);
shapes = (
{
closed = 1;
nodes = (
(371,629,o),
(251,521,o),
(251,431,cs),
(251,374,o),
(289,335,o),
(365,321,c),
(386,395,l),
(339,402,o),
(331,418,o),
(331,439,cs),
(331,484,o),
(413,558,o),
(509,558,cs),
(562,558,o),
(591,531,o),
(591,482,cs),
(591,419,o),
(538,383,o),
(449,354,c),
(480,282,l),
(546,307,o),
(601,338,o),
(635,381,c),
(632,402,l),
(654,428,o),
(670,457,o),
(670,488,cs),
(670,573,o),
(611,629,o),
(509,629,cs)
);
},
{
closed = 1;
nodes = (
(681,289,o),
(648,341,o),
(589,373,c),
(509,338,l),
(562,315,o),
(600,280,o),
(600,228,cs),
(600,152,o),
(539,118,o),
(455,118,cs),
(286,118,o),
(183,242,o),
(103,529,c),
(28,507,l),
(117,168,o),
(265,42,o),
(453,42,cs),
(593,42,o),
(681,114,o),
(681,225,cs)
);
},
{
closed = 1;
nodes = (
(832,633,o),
(811,679,o),
(771,710,cs),
(737,737,o),
(694,753,o),
(625,762,cs),
(484,781,ls),
(436,788,o),
(414,798,o),
(400,814,cs),
(386,831,o),
(380,851,o),
(380,878,cs),
(380,888,o),
(381,901,o),
(383,913,c),
(309,917,l),
(307,904,o),
(305,885,o),
(305,875,cs),
(305,773,o),
(355,725,o),
(482,707,cs),
(600,691,ls),
(659,683,o),
(700,670,o),
(724,646,cs),
(743,627,o),
(754,604,o),
(754,570,cs),
(754,508,o),
(704,466,o),
(651,439,c),
(597,343,l),
(738,398,o),
(832,460,o),
(832,577,cs)
);
}
);
};
layerId = "D20C9196-C4E6-45A5-8C35-CEEA316A77ED";
name = "8 May 24 at 15:50";
shapes = (
{
closed = 1;
nodes = (
(371,629,o),
(251,521,o),
(251,431,cs),
(251,374,o),
(289,335,o),
(365,321,c),
(386,395,l),
(339,402,o),
(331,418,o),
(331,439,cs),
(331,484,o),
(413,558,o),
(509,558,cs),
(562,558,o),
(591,531,o),
(591,482,cs),
(591,419,o),
(538,383,o),
(449,354,c),
(480,282,l),
(546,307,o),
(601,338,o),
(635,381,c),
(632,402,l),
(654,428,o),
(670,457,o),
(670,488,cs),
(670,573,o),
(611,629,o),
(509,629,cs)
);
},
{
closed = 1;
nodes = (
(681,289,o),
(648,341,o),
(589,373,c),
(509,338,l),
(562,315,o),
(600,280,o),
(600,228,cs),
(600,152,o),
(539,118,o),
(455,118,cs),
(286,118,o),
(183,242,o),
(103,529,c),
(28,507,l),
(117,168,o),
(265,42,o),
(453,42,cs),
(593,42,o),
(681,114,o),
(681,225,cs)
);
},
{
closed = 1;
nodes = (
(832,633,o),
(811,679,o),
(771,710,cs),
(737,737,o),
(694,753,o),
(625,762,cs),
(484,781,ls),
(436,788,o),
(414,798,o),
(400,814,cs),
(386,831,o),
(380,851,o),
(380,878,cs),
(380,888,o),
(381,901,o),
(383,913,c),
(309,917,l),
(307,904,o),
(305,885,o),
(305,875,cs),
(305,773,o),
(355,725,o),
(482,707,cs),
(600,691,ls),
(659,683,o),
(700,670,o),
(724,646,cs),
(743,627,o),
(754,604,o),
(754,570,cs),
(754,508,o),
(704,466,o),
(651,439,c),
(597,343,l),
(738,398,o),
(832,460,o),
(832,577,cs)
);
}
);
width = 874;
},
{
anchors = (
{
name = top_candrabindu;
pos = (578,645);
},
{
name = top_vedic;
pos = (414,607);
}
);
background = {
anchors = (
{
name = Anchor8;
pos = (425,622);
}
);
shapes = (
{
closed = 1;
nodes = (
(696,399,o),
(777,479,o),
(777,579,cs),
(777,697,o),
(688,729,o),
(572,746,cs),
(441,765,ls),
(365,776,o),
(327,799,o),
(327,879,cs),
(327,889,o),
(328,906,o),
(330,915,c),
(309,917,l),
(307,905,o),
(306,889,o),
(306,881,cs),
(306,782,o),
(362,755,o),
(438,744,cs),
(569,726,ls),
(673,711,o),
(755,685,o),
(755,582,cs),
(755,495,o),
(686,424,o),
(552,348,c),
(530,321,l)
);
},
{
alignment = -1;
ref = "o-beng";
}
);
};
layerId = "28FB090A-653E-4199-B7BE-FAE23D31B682";
shapes = (
{
closed = 1;
nodes = (
(696,399,o),
(777,479,o),
(777,579,cs),
(777,697,o),
(688,729,o),
(572,746,cs),
(441,765,ls),
(365,776,o),
(327,799,o),
(327,879,cs),
(327,889,o),
(328,906,o),
(330,915,c),
(309,917,l),
(307,905,o),
(306,889,o),
(306,881,cs),
(306,782,o),
(363,754,o),
(438,744,cs),
(569,726,ls),
(674,712,o),
(755,685,o),
(755,582,cs),
(755,495,o),
(686,424,o),
(552,348,c),
(530,321,l)
);
},
{
alignment = -1;
ref = "o-beng";
}
);
width = 828;
},
{
anchors = (
{
name = top_candrabindu;
pos = (738,651);
},
{
name = top_vedic;
pos = (482,635);
}
);
background = {
anchors = (
{
name = Anchor8;
pos = (482,635);
}
);
shapes = (
{
closed = 1;
nodes = (
(825,376,o),
(932,458,o),
(932,586,cs),
(932,728,o),
(812,783,o),
(662,802,cs),
(549,816,ls),
(496,823,o),
(477,840,o),
(477,881,cs),
(477,888,o),
(478,899,o),
(479,908,c),
(325,917,l),
(322,903,o),
(320,883,o),
(320,868,cs),
(320,753,o),
(387,701,o),
(530,681,cs),
(623,668,ls),
(732,653,o),
(771,628,o),
(771,572,cs),
(771,524,o),
(739,495,o),
(684,471,c),
(684,332,l)
);
},
{
alignment = -1;
ref = "o-beng";
}
);
};
layerId = "F455777D-7EDD-47E2-866A-D8A5173CE243";
shapes = (
{
closed = 1;
nodes = (
(825,376,o),
(932,458,o),
(932,586,cs),
(932,728,o),
(812,783,o),
(662,802,cs),
(549,816,ls),
(496,823,o),
(477,840,o),
(477,881,cs),
(477,888,o),
(478,899,o),
(479,908,c),
(325,917,l),
(322,903,o),
(320,883,o),
(320,868,cs),
(320,753,o),
(387,701,o),
(530,681,cs),
(623,668,ls),
(732,653,o),
(771,628,o),
(771,572,cs),
(771,524,o),
(739,495,o),
(684,471,c),
(684,332,l)
);
},
{
alignment = -1;
ref = "o-beng";
}
);
width = 964;
}
);
script = bengali;
subCategory = Spacing;
unicode = 2452;
},
{
category = Letter;
color = 5;
glyphname = "ka-beng";
lastChange = "2024-11-28 18:19:52 +0000";
layers = (
{
anchors = (
{
name = bottom;
pos = (411,0);
},
{
name = top_candrabindu;
pos = (411,622);
},
{
name = top_vedic;
pos = (477,622);
}
);
associatedMasterId = UUID0;
background = {
shapes = (
{
closed = 1;
nodes = (
(-10,622,l),
(-10,510.13,l),
(400.97,510.13,l),
(400.97,454.26,l),
(419.92,487.11,l),
(280.63,450.65,o),
(152.58,401.19,o),
(22.97,331.68,c),
(76.61,198.47,l),
(220.17,174.59,o),
(324.06,103.97,o),
(397.31,0,c),
(534.09,0,l),
(534.09,403.46,l),
(532.26,445.69,l),
(532.26,510.13,l),
(860.31,510.13,l),
(860.31,622,l)
);
},
{
closed = 1;
nodes = (
(397.31,215.84,ls),
(397.31,180.77,o),
(399.92,148.28,o),
(402.92,120.33,c),
(422.51,119.89,l),
(374.73,197.05,o),
(266.4,260.65,o),
(181.24,277.16,c),
(252.6,313.18,o),
(333.61,349.22,o),
(416.48,370.9,c),
(397.31,387.7,l)
);
},
{
closed = 1;
nodes = (
(816.51,384.38,o),
(686.24,467.33,o),
(522.26,483.72,c),
(522.31,373.95,l),
(631.08,358,o),
(680.56,323.3,o),
(680.56,278.92,cs),
(680.56,255.51,o),
(668.78,237.88,o),
(629.79,237.88,cs),
(616.01,237.88,o),
(604.4,238.88,o),
(595.79,240.49,c),
(589.79,128.23,l),
(612.06,123.62,o),
(637.55,122.01,o),
(664.65,122.01,cs),
(781.73,122.01,o),
(816.51,186.01,o),
(816.51,259.33,cs)
);
}
);
};
layerId = "3b2e0122-f8d4-478c-93a3-d4e3e337edb5";
name = "Bold Semi (intermediate)";
shapes = (
{
closed = 1;
nodes = (
(-10,622,l),
(-10,512,l),
(414,512,l),
(414,466,l),
(433,495,l),
(291,458,o),
(138,389,o),
(16,321,c),
(66,203,l),
(215,178,o),
(336,108,o),
(411,0,c),
(543,0,l),
(543,411,l),
(541,452,l),
(541,512,l),
(867,512,l),
(867,622,l)
);
},
{
closed = 1;
nodes = (
(411,204,ls),
(411,171,o),
(413,141,o),
(415,117,c),
(433,128,l),
(364,210,o),
(266,262,o),
(184,278,c),
(270,319,o),
(344,351,o),
(432,377,c),
(411,399,l)
);
},
{
closed = 1;
nodes = (
(825,389,o),
(691,471,o),
(527,493,c),
(527,384,l),
(637,365,o),
(696,329,o),
(696,284,cs),
(696,260,o),
(686,241,o),
(638,241,cs),
(622,241,o),
(613,242,o),
(606,243,c),
(602,133,l),
(622,129,o),
(645,127,o),
(673,127,cs),
(790,127,o),
(825,192,o),
(825,258,cs)
);
}
);
width = 857;
},
{
anchors = (
{
name = bottom;
pos = (414,0);
},
{
name = nukta;
pos = (195,54);
},
{
name = top_candrabindu;
pos = (446,622);
},
{
name = top_vedic;
pos = (403,622);
}
);
background = {
anchors = (
{
name = Anchor8;
pos = (453,622);
},
{
name = bottom;
pos = (414,0);
},
{
name = nukta;
pos = (195,54);
},
{
name = top_candrabindu;
pos = (446,622);
}
);
shapes = (
{
closed = 1;
nodes = (
(491,0,l),
(491,551,l),
(817,551,l),
(817,622,l),
(-10,622,l),
(-10,551,l),
(414,551,l),
(414,482,l),
(437,517,l),
(301,478,o),
(165,411,o),
(37,335,c),
(76,239,l),
(230,214,o),
(363,115,o),
(414,0,c)
);
},
{
closed = 1;
nodes = (
(428,88,l),
(379,207,o),
(221,285,o),
(111,304,c),
(111,288,l),
(209,350,o),
(337,409,o),
(435,439,c),
(414,474,l),
(414,189,ls),
(414,146,o),
(416,119,o),
(419,88,c)
);
},
{
closed = 1;
nodes = (
(727,162,o),
(761,226,o),
(761,294,cs),
(761,436,o),
(608,514,o),
(437,514,c),
(437,439,l),
(597,439,o),
(683,373,o),
(683,292,cs),
(683,263,o),
(665,236,o),
(627,236,c),
(627,177,l),
(675,177,o),
(697,206,o),
(697,237,cs),
(697,278,o),
(670,299,o),
(634,299,cs),
(595,299,o),
(568,272,o),
(568,233,cs),
(568,188,o),
(604,162,o),
(651,162,cs)
);
}
);
};
layerId = UUID0;
shapes = (
{
closed = 1;
nodes = (
(491,0,l),
(491,551,l),
(817,551,l),
(817,622,l),
(-10,622,l),
(-10,551,l),
(414,551,l),
(414,482,l),
(437,517,l),
(301,478,o),
(165,411,o),
(37,335,c),
(76,239,l),
(230,214,o),
(363,115,o),
(414,0,c)
);
},
{
closed = 1;
nodes = (
(428,88,l),
(379,207,o),
(221,285,o),
(111,304,c),
(111,288,l),
(209,350,o),
(337,409,o),
(435,439,c),
(414,474,l),
(414,189,ls),
(414,146,o),
(416,119,o),
(419,88,c)
);
},
{
closed = 1;
nodes = (
(727,162,o),
(761,222,o),
(761,285,cs),
(761,434,o),
(608,514,o),
(437,514,c),
(437,439,l),
(597,439,o),
(683,373,o),
(683,292,cs),
(683,263,o),
(665,236,o),
(627,236,c),
(627,177,l),
(675,177,o),
(697,206,o),
(697,237,cs),
(697,278,o),
(670,299,o),
(634,299,cs),
(595,299,o),
(568,272,o),
(568,233,cs),
(568,188,o),
(604,162,o),
(651,162,cs)
);
}
);
width = 807;
},
{
anchors = (
{
name = bottom;
pos = (415,0);
},
{
name = top_candrabindu;
pos = (415,622);
},
{
name = top_vedic;
pos = (453,622);
}
);
associatedMasterId = UUID0;
background = {
anchors = (
{
name = Anchor4;
pos = (415,622);
},
{
name = Anchor6;
pos = (415,0);
},
{
name = Anchor8;
pos = (453,622);
}
);
shapes = (
{
closed = 1;
nodes = (
(-10,622,l),
(-10,551,l),
(415,551,l),
(415,475,l),
(437,517,l),
(291,472,o),
(166,414,o),
(37,339,c),
(76,243,l),
(222,224,o),
(357,118,o),
(415,0,c),
(492,0,l),
(492,473,l),
(492,489,l),
(492,551,l),
(817,551,l),
(817,622,l)
);
},
{
closed = 1;
nodes = (
(415,189,ls),
(415,146,o),
(417,119,o),
(420,88,c),
(428,90,l),
(379,194,o),
(242,282,o),
(130,304,c),
(216,351,o),
(333,409,o),
(436,438,c),
(415,467,l)
);
},
{
closed = 1;
nodes = (
(761,410,o),
(635,496,o),
(482,513,c),
(479,438,l),
(614,419,o),
(683,366,o),
(683,296,cs),
(683,261,o),
(670,233,o),
(606,233,cs),
(591,233,o),
(580,234,o),
(572,235,c),
(566,163,l),
(584,159,o),
(604,158,o),
(625,158,cs),
(725,158,o),
(761,222,o),
(761,288,cs)
);
}
);
};
layerId = "68808EB3-9DAD-4530-A227-C5B7E278B342";
name = "8 May 24 at 12:50";
shapes = (
{
closed = 1;
nodes = (
(-10,622,l),
(-10,551,l),
(415,551,l),
(415,475,l),
(437,517,l),
(291,472,o),
(166,414,o),
(37,339,c),
(76,243,l),
(222,224,o),
(357,118,o),
(415,0,c),
(492,0,l),
(492,473,l),
(492,489,l),
(492,551,l),
(817,551,l),
(817,622,l)
);
},
{
closed = 1;
nodes = (
(415,189,ls),
(415,146,o),
(417,119,o),
(420,88,c),
(428,90,l),
(379,194,o),
(242,282,o),
(130,304,c),
(216,351,o),
(333,409,o),
(436,438,c),
(415,467,l)
);
},
{
closed = 1;
nodes = (
(761,410,o),
(635,496,o),
(482,513,c),
(479,438,l),
(614,419,o),
(683,366,o),
(683,296,cs),
(683,261,o),
(670,233,o),
(606,233,cs),
(591,233,o),
(580,234,o),
(572,235,c),
(566,163,l),
(584,159,o),
(604,158,o),
(625,158,cs),
(725,158,o),
(761,222,o),
(761,288,cs)
);
}
);
width = 807;
},
{
anchors = (
{
name = bottom;
pos = (433,0);
},
{
name = nukta;
pos = (198,79);
},
{
name = top_candrabindu;
pos = (443,607);
},
{
name = top_vedic;
pos = (390,607);
}
);
background = {
anchors = (
{
name = Anchor8;
pos = (457,607);
},
{
name = bottom;
pos = (433,0);
},
{
name = nukta;
pos = (198,79);
},
{
name = top_candrabindu;
pos = (443,607);
}
);
shapes = (
{
closed = 1;
nodes = (
(454,0,l),
(454,586,l),
(790,586,l),
(790,607,l),
(13,607,l),
(13,586,l),
(433,586,l),
(433,513,l),
(452,525,l),
(301,472,o),
(182,403,o),
(57,321,c),
(69,293,l),
(230,254,o),
(359,158,o),
(433,0,c)
);
},
{
closed = 1;
nodes = (
(444,16,l),
(374,188,o),
(224,274,o),
(75,314,c),
(76,308,l),
(191,382,o),
(321,457,o),
(455,503,c),
(433,510,l),
(433,165,ls),
(433,109,o),
(435,50,o),
(439,16,c)
);
},
{
closed = 1;
nodes = (
(683,200,o),
(717,237,o),
(717,311,cs),
(717,436,o),
(600,518,o),
(440,518,c),
(440,497,l),
(594,497,o),
(695,422,o),
(695,308,cs),
(695,262,o),
(681,221,o),
(640,221,c),
(634,209,l),
(662,209,o),
(672,225,o),
(672,242,cs),
(672,259,o),
(659,277,o),
(633,277,cs),
(607,277,o),
(595,259,o),
(595,240,cs),
(595,219,o),
(609,200,o),
(643,200,cs)
);
}
);
};
guides = (
{
pos = (495,652);
}
);
layerId = "28FB090A-653E-4199-B7BE-FAE23D31B682";
shapes = (
{
closed = 1;
nodes = (
(454,0,l),
(454,586,l),
(790,586,l),
(790,607,l),
(-10,607,l),
(-10,586,l),
(433,586,l),
(433,513,l),
(452,525,l),
(301,472,o),
(182,403,o),
(57,321,c),
(69,293,l),
(230,254,o),
(359,158,o),
(433,0,c)
);
},
{
closed = 1;
nodes = (
(444,16,l),
(374,188,o),
(224,274,o),
(75,314,c),
(76,308,l),
(191,382,o),
(321,457,o),
(455,503,c),
(433,510,l),
(433,165,ls),
(433,109,o),
(435,50,o),
(439,16,c)
);
},
{
closed = 1;
nodes = (
(683,200,o),
(717,237,o),
(717,311,cs),
(717,436,o),
(600,518,o),
(440,518,c),
(440,497,l),
(594,497,o),
(695,422,o),
(695,308,cs),
(695,262,o),
(681,221,o),
(640,221,c),
(634,209,l),
(662,209,o),
(672,225,o),
(672,242,cs),
(672,259,o),
(659,277,o),
(633,277,cs),
(607,277,o),
(595,259,o),
(595,240,cs),
(595,219,o),
(609,200,o),
(643,200,cs)
);
}
);
width = 780;
},
{
anchors = (
{
name = bottom;
pos = (366,0);
},
{
name = nukta;
pos = (182,15);
},
{
name = top_candrabindu;
pos = (435,635);
},
{
name = top_vedic;
pos = (408,635);
}
);
background = {
anchors = (
{
name = Anchor8;
pos = (452,635);
},
{
name = bottom;
pos = (367,0);
},
{
name = nukta;
pos = (182,15);
},
{
name = top_candrabindu;
pos = (435,635);
}
);
shapes = (
{
closed = 1;
nodes = (
(530,0,l),
(530,505,l),
(826,505,l),
(826,635,l),
(0,635,l),
(0,505,l),
(373,505,l),
(373,460,l),
(389,489,l),
(271,459,o),
(141,399,o),
(18,326,c),
(78,175,l),
(222,151,o),
(303,97,o),
(372,0,c)
);
},
{
closed = 1;
nodes = (
(396,133,l),
(341,210,o),
(245,272,o),
(160,272,c),
(160,221,l),
(240,273,o),
(319,312,o),
(388,331,c),
(371,366,l),
(371,228,ls),
(371,196,o),
(374,159,o),
(377,133,c)
);
},
{
closed = 1;
nodes = (
(755,92,o),
(797,165,o),
(797,248,cs),
(797,429,o),
(618,487,o),
(430,487,c),
(430,345,l),
(569,345,o),
(646,322,o),
(646,275,cs),
(646,257,o),
(632,245,o),
(607,245,c),
(626,115,l),
(704,115,o),
(731,144,o),
(731,197,cs),
(731,247,o),
(687,273,o),
(643,273,cs),
(603,273,o),
(559,244,o),
(559,188,cs),
(559,128,o),
(605,92,o),
(666,92,cs)
);
}
);
};
layerId = "F455777D-7EDD-47E2-866A-D8A5173CE243";
shapes = (
{
closed = 1;
nodes = (
(530,0,l),
(530,505,l),
(826,505,l),
(826,635,l),
(-10,635,l),
(-10,505,l),
(373,505,l),
(373,460,l),
(389,489,l),
(271,459,o),
(141,399,o),
(18,326,c),
(78,175,l),
(222,151,o),
(303,97,o),
(372,0,c)
);
},
{
closed = 1;
nodes = (
(396,133,l),
(341,210,o),
(245,272,o),
(160,272,c),
(160,221,l),
(240,273,o),
(319,312,o),
(388,331,c),
(371,366,l),
(371,228,ls),
(371,196,o),
(374,159,o),
(377,133,c)
);
},
{
closed = 1;
nodes = (
(755,92,o),
(797,158,o),
(797,234,cs),
(797,420,o),
(618,487,o),
(440,487,c),
(440,343,l),
(579,343,o),
(661,317,o),
(661,265,cs),
(661,257,o),
(632,245,o),
(607,245,c),
(626,115,l),
(704,115,o),
(731,144,o),
(731,197,cs),
(731,247,o),
(687,273,o),
(643,273,cs),
(603,273,o),
(559,244,o),
(559,188,cs),
(559,128,o),
(605,92,o),
(666,92,cs)
);
}
);
width = 816;
}
);
production = uni0995;
script = bengali;
subCategory = Spacing;
unicode = 2453;
},
{
category = Letter;
color = 5;
glyphname = "kha-beng";
lastChange = "2024-11-28 18:19:52 +0000";
layers = (
{
anchors = (
{
name = bottom;
pos = (531,0);
},
{
name = top_candrabindu;
pos = (470,622);
},
{
name = top_vedic;
pos = (374,622);
}
);
associatedMasterId = UUID0;
background = {
shapes = (
{
closed = 1;
nodes = (
(675.64,622,l),
(651.42,690.44,l),
(539.25,690.44,l),
(539.25,241.8,ls),
(539.25,206.41,o),
(539.25,175.8,o),
(541.25,145.8,c),
(478.93,207.77,o),
(401.84,265.83,o),
(244.29,289.9,c),
(151.76,332.22,l),
(187.35,205.06,l),
(359.18,171.4,o),
(449.83,108.17,o),
(539.25,0,c),
(676.03,0,l),
(676.03,510.13,l),
(768.83,510.13,l),
(768.83,622,l)
);
},
{
closed = 1;
nodes = (
(485.38,525.73,o),
(451.99,584.83,o),
(410.65,625,c),
(286.11,541.72,l),
(322.23,517.65,o),
(352.43,485.04,o),
(352.43,449.53,cs),
(352.43,385.51,o),
(279.21,350.32,o),
(151.76,332.22,c),
(172.98,277.07,l),
(246.82,255.26,l),
(413.49,276.14,o),
(485.38,353,o),
(485.38,461.46,cs)
);
},
{
closed = 1;
nodes = (
(300.72,417.8,o),
(354.96,478.46,o),
(412.65,570.12,c),
(410.65,625,l),
(312.34,603.46,l),
(279.98,543.62,o),
(246.62,527.84,o),
(216.77,527.84,cs),
(191.87,527.84,o),
(180.02,540.79,o),
(180.02,564.2,cs),
(180.02,577.88,o),
(184.36,590.56,o),
(190.92,602.73,c),
(66.73,628,l),
(54.73,603.73,o),
(45.95,574.73,o),
(45.95,545.56,cs),
(45.95,466.68,o),
(101.61,417.8,o),
(196.64,417.8,cs)
);
}
);
};
layerId = "ee322904-704e-4b14-a107-9895239ba1a9";
name = "Bold Semi (intermediate)";
shapes = (
{
closed = 1;
nodes = (
(662,622,l),
(639,688,l),
(531,688,l),
(531,242,ls),
(531,207,o),
(531,176,o),
(533,146,c),
(461,208,o),
(386,271,o),
(192,291,c),
(133,315,l),
(166,199,l),
(333,172,o),
(437,113,o),
(531,0,c),
(663,0,l),
(663,512,l),
(759,512,l),
(759,622,l)
);
},
{
closed = 1;
nodes = (
(475,526,o),
(446,583,o),
(407,625,c),
(282,542,l),
(315,517,o),
(346,489,o),
(346,449,cs),
(346,381,o),
(278,342,o),
(133,315,c),
(153,268,l),
(236,248,l),
(401,268,o),
(475,353,o),
(475,462,cs)
);
},
{
closed = 1;
nodes = (
(303,421,o),
(360,483,o),
(420,587,c),
(407,625,l),
(314,604,l),
(275,548,o),
(251,532,o),
(213,532,cs),
(190,532,o),
(174,542,o),
(174,566,cs),
(174,578,o),
(177,588,o),
(183,600,c),
(65,628,l),
(53,604,o),
(44,575,o),
(44,543,cs),
(44,467,o),
(101,421,o),
(191,421,cs)
);
}
);
width = 749;
},
{
anchors = (
{
name = bottom;
pos = (489,0);
},
{
name = nukta;
pos = (245,54);
},
{
name = top_candrabindu;
pos = (515,622);
},
{
name = top_vedic;
pos = (330,622);
}
);
background = {
anchors = (
{
name = Anchor8;
pos = (323,622);
},
{
name = bottom;
pos = (489,0);
},
{
name = nukta;
pos = (245,54);
},
{
name = top_candrabindu;
pos = (515,622);
}
);
shapes = (
{
closed = 1;
nodes = (
(566,0,l),
(566,551,l),
(671,551,l),
(671,622,l),
(565,622,l),
(542,688,l),
(489,688,l),
(489,193,ls),
(489,157,o),
(489,127,o),
(492,97,c),
(437,183,o),
(338,266,o),
(155,298,c),
(174,276,l),
(312,292,o),
(415,353,o),
(415,470,cs),
(415,530,o),
(389,583,o),
(361,625,c),
(299,612,l),
(258,518,o),
(213,501,o),
(181,501,cs),
(152,501,o),
(131,517,o),
(131,552,c),
(70,536,l),
(70,517,o),
(95,497,o),
(119,497,cs),
(146,497,o),
(185,518,o),
(185,569,cs),
(185,602,o),
(167,632,o),
(124,632,cs),
(75,632,o),
(50,592,o),
(50,550,cs),
(50,478,o),
(102,430,o),
(181,430,cs),
(252,430,o),
(327,474,o),
(354,575,c),
(297,571,l),
(327,540,o),
(340,510,o),
(340,473,cs),
(340,401,o),
(278,355,o),
(103,331,c),
(141,232,l),
(301,210,o),
(419,120,o),
(489,0,c)
);
}
);
};
layerId = UUID0;
shapes = (
{
closed = 1;
nodes = (
(566,0,l),
(566,551,l),
(671,551,l),
(671,622,l),
(565,622,l),
(542,688,l),
(489,688,l),
(489,193,ls),
(489,157,o),
(489,127,o),
(492,97,c),
(437,183,o),
(338,266,o),
(155,298,c),
(174,276,l),
(312,292,o),
(415,353,o),
(415,470,cs),
(415,530,o),
(389,583,o),
(361,625,c),
(299,612,l),
(260,522,o),
(213,501,o),
(181,501,cs),
(152,501,o),
(131,517,o),
(131,552,c),
(70,536,l),
(70,517,o),
(95,497,o),
(119,497,cs),
(146,497,o),
(185,518,o),
(185,569,cs),
(185,602,o),
(167,632,o),
(124,632,cs),
(75,632,o),
(50,592,o),
(50,550,cs),
(50,478,o),
(102,430,o),
(179,430,cs),
(262,430,o),
(327,474,o),
(354,575,c),
(297,571,l),
(327,540,o),
(340,510,o),
(340,473,cs),
(340,401,o),
(278,355,o),
(103,331,c),
(141,232,l),
(301,210,o),
(419,120,o),
(489,0,c)
);
}
);
width = 661;
},
{
anchors = (
{
name = bottom;
pos = (524,0);
},
{
name = top_candrabindu;
pos = (463,622);
},
{
name = top_vedic;
pos = (348,622);
}
);
associatedMasterId = UUID0;
background = {
anchors = (
{
name = Anchor4;
pos = (463,622);
},
{
name = Anchor6;
pos = (524,0);
},
{
name = Anchor8;
pos = (348,622);
}
);
shapes = (
{
closed = 1;
nodes = (
(600,622,l),
(577,688,l),
(524,688,l),
(524,193,ls),
(524,157,o),
(524,127,o),
(526,97,c),
(471,173,o),
(375,264,o),
(190,296,c),
(142,331,l),
(166,238,l),
(336,208,o),
(448,110,o),
(524,0,c),
(601,0,l),
(601,551,l),
(706,551,l),
(706,622,l)
);
},
{
closed = 1;
nodes = (
(450,530,o),
(416,583,o),
(371,625,cs),
(316,571,l),
(357,539,o),
(375,507,o),
(375,466,cs),
(375,391,o),
(303,343,o),
(142,331,c),
(162,285,l),
(209,276,l),
(347,292,o),
(450,353,o),
(450,470,cs)
);
},
{
closed = 1;
nodes = (
(269,430,o),
(333,487,o),
(373,575,c),
(371,625,l),
(316,612,l),
(269,518,o),
(221,501,o),
(182,501,cs),
(151,501,o),
(130,517,o),
(130,552,cs),
(130,573,o),
(138,593,o),
(147,607,c),
(71,628,l),
(59,608,o),
(49,579,o),
(49,548,cs),
(49,474,o),
(101,430,o),
(182,430,cs)
);
}
);
};
layerId = "23AADFD3-A603-49FF-8A6D-EDCBD502F98E";
name = "6 May 24 at 21:46";
shapes = (
{
closed = 1;
nodes = (
(600,622,l),
(577,688,l),
(524,688,l),
(524,193,ls),
(524,157,o),
(524,127,o),
(526,97,c),
(471,173,o),
(375,264,o),
(190,296,c),
(142,331,l),
(166,238,l),
(336,208,o),
(448,110,o),
(524,0,c),
(601,0,l),
(601,551,l),
(706,551,l),
(706,622,l)
);
},
{
closed = 1;
nodes = (
(450,530,o),
(416,583,o),
(371,625,cs),
(316,571,l),
(357,539,o),
(375,507,o),
(375,466,cs),
(375,391,o),
(303,343,o),
(142,331,c),
(162,285,l),
(209,276,l),
(347,292,o),
(450,353,o),
(450,470,cs)
);
},
{
closed = 1;
nodes = (
(269,430,o),
(333,487,o),
(373,575,c),
(371,625,l),
(316,612,l),
(269,518,o),
(221,501,o),
(182,501,cs),
(151,501,o),
(130,517,o),
(130,552,cs),
(130,573,o),
(138,593,o),
(147,607,c),
(71,628,l),
(59,608,o),
(49,579,o),
(49,548,cs),
(49,474,o),
(101,430,o),
(182,430,cs)
);
}
);
width = 696;
},
{
anchors = (
{
name = bottom;
pos = (490,0);
},
{
name = nukta;
pos = (245,79);
},
{
name = top_candrabindu;
pos = (499,607);
},
{
name = top_vedic;
pos = (308,607);
}
);
background = {
anchors = (
{
name = Anchor8;
pos = (302,607);
},
{
name = bottom;
pos = (490,0);
},
{
name = nukta;
pos = (245,79);
},
{
name = top_candrabindu;
pos = (499,607);
}
);
shapes = (
{
closed = 1;
nodes = (
(511,0,l),
(511,586,l),
(627,586,l),
(627,607,l),
(511,607,l),
(505,660,l),
(490,660,l),
(490,131,ls),
(490,94,o),
(490,65,o),
(493,31,c),
(445,134,o),
(332,248,o),
(144,295,c),
(147,291,l),
(290,315,o),
(379,362,o),
(379,462,cs),
(379,516,o),
(355,561,o),
(320,610,c),
(304,605,l),
(260,500,o),
(206,469,o),
(158,469,cs),
(114,469,o),
(78,488,o),
(78,549,c),
(64,560,l),
(64,540,o),
(78,525,o),
(103,525,cs),
(124,525,o),
(138,540,o),
(138,563,cs),
(138,584,o),
(123,600,o),
(100,600,cs),
(73,600,o),
(56,576,o),
(56,546,cs),
(56,483,o),
(102,448,o),
(158,448,cs),
(217,448,o),
(271,479,o),
(323,588,c),
(309,588,l),
(334,556,o),
(357,514,o),
(357,460,cs),
(357,386,o),
(297,336,o),
(126,309,c),
(139,274,l),
(321,235,o),
(434,114,o),
(490,0,c)
);
}
);
};
layerId = "28FB090A-653E-4199-B7BE-FAE23D31B682";
shapes = (
{
closed = 1;
nodes = (
(511,0,l),
(511,586,l),
(627,586,l),
(627,607,l),
(511,607,l),
(505,660,l),
(490,660,l),
(490,131,ls),
(490,94,o),
(490,65,o),
(493,31,c),
(445,134,o),
(332,248,o),
(144,295,c),
(147,291,l),
(290,315,o),
(379,362,o),
(379,462,cs),
(379,516,o),
(355,561,o),
(320,610,c),
(304,605,l),
(260,500,o),
(206,469,o),
(158,469,cs),
(114,469,o),
(78,488,o),
(78,549,c),
(64,560,l),
(64,540,o),
(78,525,o),
(103,525,cs),
(124,525,o),
(138,540,o),
(138,563,cs),
(138,584,o),
(123,600,o),
(100,600,cs),
(73,600,o),
(56,576,o),
(56,546,cs),
(56,483,o),
(102,448,o),
(158,448,cs),
(217,448,o),
(271,479,o),
(323,588,c),
(309,588,l),
(334,556,o),
(357,514,o),
(357,460,cs),
(357,386,o),
(297,336,o),
(126,309,c),
(139,274,l),
(321,235,o),
(434,114,o),
(490,0,c)
);
}
);
width = 617;
},
{
anchors = (
{
name = bottom;
pos = (506,0);
},
{
name = nukta;
pos = (276,15);
},
{
name = top_candrabindu;
pos = (568,635);
},
{
name = top_vedic;
pos = (366,635);
}
);
background = {
anchors = (
{
name = Anchor8;
pos = (355,635);
},
{
name = bottom;
pos = (507,0);
},
{
name = nukta;
pos = (276,15);
},
{
name = top_candrabindu;
pos = (571,635);
}
);
shapes = (
{
closed = 1;
nodes = (
(670,0,l),
(670,505,l),
(966,505,l),
(966,635,l),
(140,635,l),
(140,505,l),
(513,505,l),
(513,460,l),
(529,489,l),
(411,459,o),
(281,399,o),
(158,326,c),
(218,175,l),
(362,151,o),
(443,97,o),
(512,0,c)
);
}
);
};
layerId = "F455777D-7EDD-47E2-866A-D8A5173CE243";
shapes = (
{
closed = 1;
nodes = (
(670,0,l),
(670,505,l),
(743,505,l),
(743,635,l),
(669,635,l),
(645,709,l),
(507,709,l),
(507,255,ls),
(507,219,o),
(507,189,o),
(510,158,c),
(452,220,o),
(374,264,o),
(229,285,c),
(229,213,l),
(408,239,o),
(466,337,o),
(466,458,cs),
(466,524,o),
(438,602,o),
(409,643,c),
(295,617,l),
(279,560,o),
(246,531,o),
(206,531,cs),
(182,531,o),
(157,538,o),
(157,565,c),
(82,532,l),
(82,502,o),
(111,470,o),
(144,470,cs),
(182,470,o),
(222,492,o),
(222,546,cs),
(222,597,o),
(188,641,o),
(128,641,cs),
(68,641,o),
(27,597,o),
(27,536,cs),
(27,456,o),
(84,404,o),
(175,404,cs),
(285,404,o),
(342,464,o),
(371,586,c),
(295,555,l),
(303,535,o),
(312,502,o),
(312,461,cs),
(312,386,o),
(230,351,o),
(108,332,c),
(167,174,l),
(334,148,o),
(427,109,o),
(512,0,c)
);
}
);
width = 733;
}
);
script = bengali;
subCategory = Spacing;
unicode = 2454;
},
{
category = Letter;
color = 5;
glyphname = "ga-beng";
kernLeft = L_BNG_ga;
lastChange = "2024-11-28 18:19:52 +0000";
layers = (
{
anchors = (
{
name = Anchor4;
pos = (420,622);
},
{
name = bottom_vedic;
pos = (482,0);
},
{
name = top_vedic;
pos = (350,622);
}
);
associatedMasterId = UUID0;
background = {
shapes = (
{
closed = 1;
nodes = (
(628.71,0,l),
(628.71,510.13,l),
(721.51,510.13,l),
(721.51,622,l),
(627.71,622,l),
(604.1,690.44,l),
(491.93,690.44,l),
(491.93,602.69,ls),
(491.93,563.3,o),
(493.32,518.69,o),
(495.71,501.91,c),
(527.74,482.98,l),
(441.86,582.1,o),
(371.69,629,o),
(278.18,629,cs),
(163.93,629,o),
(89.1,557.73,o),
(17.73,454.34,c),
(124.96,364.55,l),
(156.52,381.55,o),
(179.64,389.55,o),
(209.15,389.55,cs),
(236.9,389.55,o),
(251.97,374.48,o),
(251.97,353.41,cs),
(251.97,316.27,o),
(213.76,291.47,o),
(133.44,255.37,c),
(210.06,147.6,l),
(326.33,206.99,o),
(386.26,277.19,o),
(386.26,357.41,cs),
(386.26,426.66,o),
(338.5,479.68,o),
(253.21,479.68,cs),
(203.43,479.68,o),
(170.97,467.9,o),
(143.82,450.9,c),
(152.94,449.14,l),
(186.55,488.6,o),
(217.62,520.01,o),
(284.96,520.01,cs),
(369.35,520.01,o),
(432.13,452.91,o),
(503.78,358.95,c),
(491.93,411.58,l),
(491.93,0,l)
);
}
);
};
layerId = "51dadd11-ef49-4f39-816c-916aae6484a1";
name = "Bold Semi (intermediate)";
shapes = (
{
closed = 1;
nodes = (
(614,0,l),
(614,512,l),
(710,512,l),
(710,622,l),
(613,622,l),
(591,688,l),
(482,688,l),
(482,585,ls),
(482,541,o),
(486,511,o),
(486,495,c),
(530,483,l),
(436,577,o),
(366,629,o),
(270,629,cs),
(164,629,o),
(85,553,o),
(15,451,c),
(120,367,l),
(154,385,o),
(181,393,o),
(208,393,cs),
(241,393,o),
(254,379,o),
(254,357,cs),
(254,319,o),
(204,288,o),
(127,253,c),
(203,146,l),
(321,212,o),
(379,276,o),
(379,356,cs),
(379,426,o),
(330,482,o),
(241,482,cs),
(192,482,o),
(161,469,o),
(134,452,c),
(146,450,l),
(181,486,o),
(212,519,o),
(275,519,cs),
(373,519,o),
(447,436,o),
(507,360,c),
(482,403,l),
(482,0,l)
);
}
);
width = 700;
},
{
anchors = (
{
name = bottom;
pos = (474,0);
},
{
name = nukta;
pos = (243,34);
},
{
name = top_candrabindu;
pos = (496,622);
},
{
name = top_vedic;
pos = (323,622);
}
);
background = {
anchors = (
{
name = Anchor8;
pos = (318,622);
},
{
name = bottom;
pos = (474,0);
},
{
name = nukta;
pos = (243,34);
},
{
name = top_candrabindu;
pos = (496,622);
}
);
shapes = (
{
closed = 1;
nodes = (
(551,0,l),
(551,551,l),
(656,551,l),
(656,622,l),
(550,622,l),
(527,688,l),
(474,688,l),
(474,585,ls),
(474,545,o),
(476,501,o),
(479,483,c),
(497,475,l),
(439,582,o),
(354,632,o),
(260,632,cs),
(156,632,o),
(75,571,o),
(22,438,c),
(97,372,l),
(133,387,o),
(163,394,o),
(195,394,cs),
(248,394,o),
(272,373,o),
(272,331,cs),
(272,269,o),
(204,230,o),
(137,203,c),
(182,127,l),
(294,182,o),
(352,237,o),
(352,328,cs),
(352,408,o),
(306,464,o),
(199,464,cs),
(153,464,o),
(116,454,o),
(86,439,c),
(103,421,l),
(134,499,o),
(183,558,o),
(267,558,cs),
(354,558,o),
(429,497,o),
(495,365,c),
(474,428,l),
(474,0,l)
);
}
);
};
guides = (
{
angle = -59.37;
pos = (160,205);
},
{
angle = -41.3478;
pos = (60,420);
}
);
layerId = UUID0;
shapes = (
{
closed = 1;
nodes = (
(551,0,l),
(551,551,l),
(656,551,l),
(656,622,l),
(550,622,l),
(527,688,l),
(474,688,l),
(474,585,ls),
(474,545,o),
(476,501,o),
(479,483,c),
(497,475,l),
(439,582,o),
(354,632,o),
(260,632,cs),
(156,632,o),
(75,571,o),
(22,438,c),
(97,372,l),
(133,387,o),
(163,395,o),
(195,395,cs),
(248,395,o),
(272,373,o),
(272,331,cs),
(272,269,o),
(204,230,o),
(137,203,c),
(182,127,l),
(294,182,o),
(352,237,o),
(352,328,cs),
(352,408,o),
(306,464,o),
(199,464,cs),
(153,464,o),
(116,454,o),
(86,439,c),
(103,421,l),
(134,499,o),
(183,558,o),
(267,558,cs),
(354,558,o),
(429,497,o),
(495,365,c),
(474,428,l),
(474,0,l)
);
}
);
width = 646;
},
{
anchors = (
{
name = Anchor4;
pos = (423,622);
},
{
name = bottom_vedic;
pos = (484,0);
},
{
name = top_vedic;
pos = (328,622);
}
);
associatedMasterId = UUID0;
background = {
anchors = (
{
name = Anchor4;
pos = (423,622);
},
{
name = Anchor6;
pos = (484,0);
},
{
name = Anchor8;
pos = (328,622);
}
);
shapes = (
{
closed = 1;
nodes = (
(561,0,l),
(561,551,l),
(666,551,l),
(666,622,l),
(560,622,l),
(537,688,l),
(484,688,l),
(484,585,ls),
(484,545,o),
(486,501,o),
(489,483,c),
(507,472,l),
(426,576,o),
(354,629,o),
(255,629,cs),
(156,629,o),
(83,562,o),
(22,458,c),
(103,392,l),
(137,409,o),
(165,417,o),
(200,417,cs),
(243,417,o),
(266,394,o),
(266,365,cs),
(266,312,o),
(204,275,o),
(131,245,c),
(182,172,l),
(294,232,o),
(346,290,o),
(346,369,cs),
(346,423,o),
(308,487,o),
(216,487,cs),
(165,487,o),
(124,474,o),
(106,457,c),
(120,465,l),
(153,513,o),
(192,556,o),
(263,556,cs),
(348,556,o),
(412,495,o),
(505,362,c),
(484,425,l),
(484,0,l)
);
}
);
};
layerId = "4A6A729A-047A-4EB7-8F3B-87A09E85079B";
name = "8 May 24 at 16:59";
shapes = (
{
closed = 1;
nodes = (
(561,0,l),
(561,551,l),
(666,551,l),
(666,622,l),
(560,622,l),
(537,688,l),
(484,688,l),
(484,585,ls),
(484,545,o),
(486,501,o),
(489,483,c),
(507,472,l),
(426,576,o),
(354,629,o),
(255,629,cs),
(156,629,o),
(83,562,o),
(22,458,c),
(103,392,l),
(137,409,o),
(165,417,o),
(200,417,cs),
(243,417,o),
(266,394,o),
(266,365,cs),
(266,312,o),
(204,275,o),
(131,245,c),
(182,172,l),
(294,232,o),
(346,290,o),
(346,369,cs),
(346,423,o),
(308,487,o),
(216,487,cs),
(165,487,o),
(124,474,o),
(106,457,c),
(120,465,l),
(153,513,o),
(192,556,o),
(263,556,cs),
(348,556,o),
(412,495,o),
(505,362,c),
(484,425,l),
(484,0,l)
);
}
);
width = 656;
},
{
anchors = (
{
name = bottom;
pos = (455,0);
},
{
name = nukta;
pos = (202,26);
},
{
name = top_candrabindu;
pos = (464,607);
},
{
name = top_vedic;
pos = (291,607);
}
);
background = {
anchors = (
{
name = Anchor8;
pos = (310,607);
},
{
name = bottom;
pos = (455,0);
},
{
name = nukta;
pos = (202,26);
},
{
name = top_candrabindu;
pos = (464,607);
}
);
shapes = (
{
closed = 1;
nodes = (
(476,0,l),
(476,586,l),
(592,586,l),
(592,607,l),
(476,607,l),
(470,660,l),
(455,660,l),
(455,528,ls),
(455,495,o),
(456,459,o),
(458,437,c),
(474,437,l),
(424,557,o),
(344,617,o),
(247,617,cs),
(147,617,o),
(71,548,o),
(30,437,c),
(54,412,l),
(95,431,o),
(136,441,o),
(173,441,cs),
(244,441,o),
(275,409,o),
(275,355,cs),
(275,284,o),
(228,234,o),
(133,196,c),
(143,173,l),
(244,217,o),
(297,274,o),
(297,354,cs),
(297,414,o),
(260,462,o),
(169,462,cs),
(128,462,o),
(86,452,o),
(46,433,c),
(51,432,l),
(88,527,o),
(155,596,o),
(248,596,cs),
(331,596,o),
(407,549,o),
(472,406,c),
(455,454,l),
(455,0,l)
);
}
);
};
layerId = "28FB090A-653E-4199-B7BE-FAE23D31B682";
shapes = (
{
closed = 1;
nodes = (
(476,0,l),
(476,586,l),
(592,586,l),
(592,607,l),
(476,607,l),
(470,660,l),
(455,660,l),
(455,528,ls),
(455,495,o),
(456,459,o),
(458,437,c),
(474,437,l),
(424,557,o),
(344,617,o),
(247,617,cs),
(147,617,o),
(71,548,o),
(30,437,c),
(54,412,l),
(95,431,o),
(136,441,o),
(173,441,cs),
(244,441,o),
(275,409,o),
(275,355,cs),
(275,284,o),
(228,234,o),
(133,196,c),
(143,173,l),
(244,217,o),
(297,274,o),
(297,354,cs),
(297,414,o),
(260,462,o),
(169,462,cs),
(128,462,o),
(86,452,o),
(46,433,c),
(51,432,l),
(88,527,o),
(155,596,o),
(248,596,cs),
(331,596,o),
(407,549,o),
(472,406,c),
(455,454,l),
(455,0,l)
);
}
);
width = 582;
},
{
anchors = (
{
name = bottom;
pos = (479,0);
},
{
name = nukta;
pos = (292,-5);
},
{
name = top_candrabindu;
pos = (540,635);
},
{
name = top_vedic;
pos = (353,635);
}
);
background = {
anchors = (
{
name = Anchor8;
pos = (351,635);
},
{
name = bottom;
pos = (479,0);
},
{
name = nukta;
pos = (292,-5);
},
{
name = top_candrabindu;
pos = (542,635);
}
);
shapes = (
{
closed = 1;
nodes = (
(643,0,l),
(643,505,l),
(721,505,l),
(721,635,l),
(642,635,l),
(618,705,l),
(479,705,l),
(479,611,ls),
(479,571,o),
(480,527,o),
(483,510,c),
(521,501,l),
(462,604,o),
(391,645,o),
(295,645,cs),
(170,645,o),
(81,562,o),
(16,443,c),
(148,326,l),
(175,339,o),
(203,347,o),
(229,347,cs),
(259,347,o),
(272,336,o),
(272,315,cs),
(272,282,o),
(239,261,o),
(159,228,c),
(237,95,l),
(362,154,o),
(417,219,o),
(417,310,cs),
(417,391,o),
(359,455,o),
(239,455,cs),
(205,455,o),
(166,447,o),
(134,436,c),
(201,432,l),
(220,473,o),
(257,511,o),
(320,511,cs),
(406,511,o),
(459,442,o),
(496,340,c),
(479,406,l),
(479,0,l)
);
}
);
};
layerId = "F455777D-7EDD-47E2-866A-D8A5173CE243";
shapes = (
{
closed = 1;
nodes = (
(643,0,l),
(643,505,l),
(716,505,l),
(716,635,l),
(642,635,l),
(618,709,l),
(479,709,l),
(479,611,ls),
(479,571,o),
(480,527,o),
(483,510,c),
(521,501,l),
(462,604,o),
(391,645,o),
(295,645,cs),
(170,645,o),
(81,562,o),
(16,443,c),
(148,326,l),
(175,339,o),
(203,347,o),
(229,347,cs),
(259,347,o),
(272,336,o),
(272,315,cs),
(272,282,o),
(239,261,o),
(159,228,c),
(237,95,l),
(362,154,o),
(417,219,o),
(417,310,cs),
(417,391,o),
(359,450,o),
(239,450,cs),
(205,450,o),
(166,442,o),
(134,431,c),
(201,432,l),
(220,473,o),
(257,511,o),
(320,511,cs),
(406,511,o),
(459,442,o),
(496,340,c),
(479,406,l),
(479,0,l)
);
}
);
width = 706;
}
);
script = bengali;
subCategory = Spacing;
unicode = 2455;
},
{
category = Letter;
color = 5;
glyphname = "gha-beng";
kernLeft = L_BNG_gha;
lastChange = "2024-11-28 18:19:52 +0000";
layers = (
{
anchors = (
{
name = bottom;
pos = (449,0);
},
{
name = nukta;
pos = (229,26);
},
{
name = top_candrabindu;
pos = (483,622);
},
{
name = top_vedic;
pos = (310,622);
}
);
background = {
anchors = (
{
name = Anchor8;
pos = (310,622);
},
{
name = bottom;
pos = (449,0);
},
{
name = nukta;
pos = (229,26);
},
{
name = top_candrabindu;
pos = (483,622);
}
);
shapes = (
{
closed = 1;
nodes = (
(526,0,l),
(526,551,l),
(631,551,l),
(631,622,l),
(-10,622,l),
(-10,551,l),
(449,551,l),
(449,165,ls),
(449,132,o),
(451,97,o),
(453,72,c),
(465,77,l),
(388,163,o),
(302,233,o),
(139,257,c),
(154,234,l),
(212,279,o),
(299,338,o),
(379,385,c),
(334,451,l),
(283,418,o),
(250,410,o),
(221,410,cs),
(185,410,o),
(147,428,o),
(147,476,cs),
(147,519,o),
(173,558,o),
(250,581,c),
(185,615,l),
(105,577,o),
(66,536,o),
(66,472,cs),
(66,397,o),
(127,345,o),
(227,345,cs),
(239,345,o),
(252,347,o),
(269,352,c),
(214,364,l),
(165,334,o),
(122,306,o),
(78,272,c),
(113,185,l),
(267,174,o),
(386,85,o),
(449,0,c)
);
}
);
};
guides = (
{
angle = 90;
pos = (78,272);
}
);
layerId = UUID0;
shapes = (
{
closed = 1;
nodes = (
(526,0,l),
(526,551,l),
(631,551,l),
(631,622,l),
(-10,622,l),
(-10,551,l),
(449,551,l),
(449,165,ls),
(449,132,o),
(451,97,o),
(453,72,c),
(465,77,l),
(388,163,o),
(302,233,o),
(139,257,c),
(154,234,l),
(212,279,o),
(299,338,o),
(379,385,c),
(334,451,l),
(283,418,o),
(250,410,o),
(221,410,cs),
(185,410,o),
(147,428,o),
(147,476,cs),
(147,519,o),
(173,558,o),
(250,581,c),
(185,615,l),
(105,577,o),
(66,536,o),
(66,472,cs),
(66,397,o),
(127,345,o),
(227,345,cs),
(239,345,o),
(252,347,o),
(269,352,c),
(214,364,l),
(165,334,o),
(122,306,o),
(78,272,c),
(113,185,l),
(267,174,o),
(386,85,o),
(449,0,c)
);
}
);
width = 621;
},
{
anchors = (
{
name = bottom;
pos = (455,0);
},
{
name = nukta;
pos = (208,56);
},
{
name = top_candrabindu;
pos = (466,607);
},
{
name = top_vedic;
pos = (291,607);
}
);
background = {
anchors = (
{
name = Anchor8;
pos = (295,607);
},
{
name = bottom;
pos = (455,0);
},
{
name = nukta;
pos = (208,56);
},
{
name = top_candrabindu;
pos = (466,607);
}
);
shapes = (
{
closed = 1;
nodes = (
(476,0,l),
(476,586,l),
(592,586,l),
(592,607,l),
(-10,607,l),
(-10,586,l),
(455,586,l),
(455,106,ls),
(455,77,o),
(455,46,o),
(458,22,c),
(461,23,l),
(390,142,o),
(268,226,o),
(84,254,c),
(88,245,l),
(147,293,o),
(252,370,o),
(332,423,c),
(317,442,l),
(271,407,o),
(236,398,o),
(191,398,cs),
(125,398,o),
(85,428,o),
(85,486,cs),
(85,520,o),
(101,566,o),
(171,597,c),
(150,605,l),
(90,580,o),
(63,534,o),
(63,486,cs),
(63,426,o),
(105,376,o),
(191,376,cs),
(228,376,o),
(246,383,o),
(268,395,c),
(276,403,l),
(204,366,o),
(125,304,o),
(73,260,c),
(85,233,l),
(263,206,o),
(373,121,o),
(455,0,c)
);
}
);
};
layerId = "28FB090A-653E-4199-B7BE-FAE23D31B682";
shapes = (
{
closed = 1;
nodes = (
(476,0,l),
(476,586,l),
(592,586,l),
(592,607,l),
(-10,607,l),
(-10,586,l),
(455,586,l),
(455,106,ls),
(455,77,o),
(455,46,o),
(458,22,c),
(461,23,l),
(390,142,o),
(268,226,o),
(84,254,c),
(88,245,l),
(147,293,o),
(252,370,o),
(332,423,c),
(317,442,l),
(271,407,o),
(236,398,o),
(191,398,cs),
(125,398,o),
(85,428,o),
(85,486,cs),
(85,520,o),
(101,566,o),
(171,597,c),
(150,605,l),
(90,580,o),
(63,534,o),
(63,486,cs),
(63,426,o),
(105,376,o),
(191,376,cs),
(228,376,o),
(246,384,o),
(268,395,c),
(267,398,l),
(197,361,o),
(123,302,o),
(73,260,c),
(85,233,l),
(263,206,o),
(373,121,o),
(455,0,c)
);
}
);
width = 582;
},
{
anchors = (
{
name = bottom;
pos = (400,0);
},
{
name = nukta;
pos = (192,0);
},
{
name = top_candrabindu;
pos = (488,635);
},
{
name = top_vedic;
pos = (313,635);
}
);
background = {
anchors = (
{
name = Anchor8;
pos = (331,635);
},
{
name = bottom;
pos = (401,0);
},
{
name = nukta;
pos = (192,0);
},
{
name = top_candrabindu;
pos = (488,635);
}
);
shapes = (
{
closed = 1;
nodes = (
(564,0,l),
(564,505,l),
(860,505,l),
(860,635,l),
(34,635,l),
(34,505,l),
(407,505,l),
(407,460,l),
(423,489,l),
(305,459,o),
(175,399,o),
(52,326,c),
(112,175,l),
(256,151,o),
(337,97,o),
(406,0,c)
);
}
);
};
layerId = "F455777D-7EDD-47E2-866A-D8A5173CE243";
shapes = (
{
closed = 1;
nodes = (
(564,0,l),
(564,505,l),
(637,505,l),
(637,635,l),
(-10,635,l),
(-10,505,l),
(401,505,l),
(401,225,ls),
(401,170,o),
(405,138,o),
(409,117,c),
(425,126,l),
(386,188,o),
(301,250,o),
(193,258,c),
(216,233,l),
(260,268,o),
(336,314,o),
(367,330,c),
(319,446,l),
(296,432,o),
(269,421,o),
(246,421,cs),
(216,421,o),
(199,437,o),
(199,462,cs),
(199,490,o),
(222,516,o),
(274,529,c),
(130,586,l),
(65,550,o),
(31,506,o),
(31,450,cs),
(31,382,o),
(88,333,o),
(186,333,cs),
(201,333,o),
(214,334,o),
(228,336,c),
(159,366,l),
(116,342,o),
(72,311,o),
(39,284,c),
(95,143,l),
(249,131,o),
(342,78,o),
(406,0,c)
);
}
);
width = 627;
}
);
script = bengali;
subCategory = Spacing;
unicode = 2456;
},
{
category = Letter;
color = 5;
glyphname = "nga-beng";
lastChange = "2024-11-28 18:19:52 +0000";
layers = (
{
anchors = (
{
name = bottom;
pos = (407,0);
},
{
name = top_candrabindu;
pos = (368,622);
},
{
name = top_vedic;
pos = (375,622);
}
);
associatedMasterId = UUID0;
background = {
shapes = (
{
closed = 1;
nodes = (
(631.8,3.51,o),
(728,89.85,o),
(728,220.49,cs),
(728,284.15,o),
(706.17,342.54,o),
(667.85,396.42,c),
(558.2,384.88,l),
(514.94,337.89,o),
(483.43,313.72,o),
(445.97,313.72,cs),
(421.9,313.72,o),
(413.73,327.18,o),
(413.73,360.18,cs),
(413.73,458.74,ls),
(413.73,506.78,o),
(436.53,541.65,o),
(475.13,541.65,cs),
(497.15,541.65,o),
(510.22,530.53,o),
(510.22,513.29,cs),
(510.22,492.05,o),
(492.49,474.98,o),
(450.91,474.98,cs),
(351.21,474.98,o),
(282.04,542.83,o),
(221.7,623,c),
(128.98,556.38,l),
(192.32,472.36,o),
(289.56,387.02,o),
(443.81,387.02,cs),
(540.89,387.02,o),
(627.92,426.19,o),
(627.92,512.9,cs),
(627.92,586.51,o),
(572.92,630.22,o),
(479.18,630.22,cs),
(356.68,630.22,o),
(280.95,549.31,o),
(280.95,428.36,cs),
(280.95,367.86,ls),
(280.95,297.91,o),
(296.73,263.59,o),
(320.95,239.1,cs),
(345.44,213.95,o),
(383.81,202.9,o),
(426.4,202.9,cs),
(498.7,202.9,o),
(567.8,234.12,o),
(631.82,307.38,c),
(551.66,332.97,l),
(582.56,294.49,o),
(594.44,262.54,o),
(594.44,228.59,cs),
(594.44,157.57,o),
(530.49,121.6,o),
(438.74,121.6,cs),
(292.18,121.6,o),
(207.67,211.55,o),
(147.09,447.58,c),
(19.24,413.16,l),
(107.85,92.31,o),
(265.18,3.51,o),
(448.28,3.51,cs)
);
}
);
};
layerId = "86aeca19-bc4e-4bc7-9523-722c3f66c27c";
name = "Bold Semi (intermediate)";
shapes = (
{
closed = 1;
nodes = (
(621,4,o),
(715,94,o),
(715,224,cs),
(715,286,o),
(693,353,o),
(659,401,c),
(541,390,l),
(494,348,o),
(468,331,o),
(429,331,cs),
(407,331,o),
(403,346,o),
(403,369,cs),
(403,458,ls),
(403,502,o),
(422,542,o),
(465,542,cs),
(486,542,o),
(500,532,o),
(500,513,cs),
(500,492,o),
(479,474,o),
(435,474,cs),
(341,474,o),
(270,543,o),
(210,623,c),
(118,557,l),
(183,473,o),
(267,388,o),
(436,388,cs),
(534,388,o),
(614,427,o),
(614,509,cs),
(614,582,o),
(565,628,o),
(471,628,cs),
(354,628,o),
(274,555,o),
(274,421,cs),
(274,375,ls),
(274,311,o),
(290,269,o),
(321,245,cs),
(342,228,o),
(372,220,o),
(409,220,cs),
(488,220,o),
(557,255,o),
(619,321,c),
(539,346,l),
(571,304,o),
(583,270,o),
(583,235,cs),
(583,159,o),
(522,118,o),
(428,118,cs),
(296,118,o),
(205,213,o),
(141,449,c),
(16,414,l),
(103,91,o),
(258,4,o),
(439,4,cs)
);
}
);
width = 751;
},
{
anchors = (
{
name = bottom;
pos = (447,14);
},
{
name = nukta;
pos = (410,-90);
},
{
name = top_candrabindu;
pos = (347,622);
},
{
name = top_vedic;
pos = (357,622);
}
);
background = {
anchors = (
{
name = Anchor8;
pos = (361,622);
},
{
name = bottom;
pos = (444,0);
},
{
name = nukta;
pos = (410,-90);
},
{
name = top_candrabindu;
pos = (347,622);
}
);
shapes = (
{
closed = 1;
nodes = (
(571,9,o),
(659,102,o),
(659,227,cs),
(659,278,o),
(643,335,o),
(616,383,c),
(546,380,l),
(482,308,o),
(445,282,o),
(399,282,cs),
(367,282,o),
(357,303,o),
(357,338,cs),
(357,441,ls),
(357,516,o),
(392,566,o),
(453,566,cs),
(490,566,o),
(509,550,o),
(509,523,cs),
(509,492,o),
(487,467,o),
(432,467,cs),
(314,467,o),
(243,544,o),
(177,627,c),
(119,583,l),
(185,490,o),
(292,398,o),
(431,398,cs),
(511,398,o),
(584,439,o),
(584,520,cs),
(584,590,o),
(529,632,o),
(451,632,cs),
(364,632,o),
(280,568,o),
(280,436,cs),
(280,352,ls),
(280,258,o),
(317,209,o),
(402,209,cs),
(456,209,o),
(523,238,o),
(594,333,c),
(548,347,l),
(581,290,o),
(584,257,o),
(584,227,cs),
(584,138,o),
(519,85,o),
(423,85,cs),
(267,85,o),
(177,192,o),
(105,470,c),
(30,450,l),
(114,122,o),
(241,9,o),
(422,9,cs)
);
}
);
};
layerId = UUID0;
shapes = (
{
closed = 1;
nodes = (
(571,9,o),
(659,102,o),
(659,227,cs),
(659,278,o),
(643,335,o),
(616,383,c),
(546,380,l),
(482,308,o),
(445,282,o),
(399,282,cs),
(367,282,o),
(357,303,o),
(357,338,cs),
(357,441,ls),
(357,516,o),
(392,566,o),
(453,566,cs),
(490,566,o),
(509,550,o),
(509,523,cs),
(509,492,o),
(487,467,o),
(432,467,cs),
(314,467,o),
(243,544,o),
(177,627,c),
(119,583,l),
(185,490,o),
(292,398,o),
(431,398,cs),
(511,398,o),
(584,439,o),
(584,520,cs),
(584,590,o),
(529,632,o),
(451,632,cs),
(364,632,o),
(280,568,o),
(280,436,cs),
(280,352,ls),
(280,258,o),
(317,209,o),
(402,209,cs),
(456,209,o),
(523,238,o),
(594,333,c),
(548,347,l),
(581,290,o),
(584,257,o),
(584,227,cs),
(584,138,o),
(519,85,o),
(423,85,cs),
(267,85,o),
(177,192,o),
(105,470,c),
(30,450,l),
(114,122,o),
(241,9,o),
(422,9,cs)
);
}
);
width = 715;
},
{
anchors = (
{
name = bottom;
pos = (475,69);
},
{
name = nukta;
pos = (409,-68);
},
{
name = top_candrabindu;
pos = (335,607);
},
{
name = top_vedic;
pos = (338,607);
}
);
background = {
anchors = (
{
name = Anchor8;
pos = (356,607);
},
{
name = bottom;
pos = (455,0);
},
{
name = nukta;
pos = (409,-68);
},
{
name = top_candrabindu;
pos = (335,607);
}
);
shapes = (
{
closed = 1;
nodes = (
(542,56,o),
(615,140,o),
(615,249,cs),
(615,303,o),
(599,353,o),
(577,395,c),
(554,394,l),
(481,290,o),
(418,268,o),
(379,268,cs),
(330,268,o),
(317,299,o),
(317,358,cs),
(317,432,ls),
(317,536,o),
(366,596,o),
(436,596,cs),
(486,596,o),
(523,569,o),
(523,518,cs),
(523,474,o),
(494,433,o),
(417,433,cs),
(287,433,o),
(214,519,o),
(147,613,c),
(129,601,l),
(207,489,o),
(296,412,o),
(419,412,cs),
(491,412,o),
(545,451,o),
(545,518,cs),
(545,577,o),
(501,617,o),
(435,617,cs),
(364,617,o),
(296,562,o),
(296,444,cs),
(296,356,ls),
(296,293,o),
(315,247,o),
(381,247,cs),
(419,247,o),
(499,273,o),
(572,382,c),
(560,385,l),
(584,336,o),
(593,291,o),
(593,249,cs),
(593,151,o),
(530,77,o),
(406,77,cs),
(256,77,o),
(153,184,o),
(67,479,c),
(46,473,l),
(136,168,o),
(246,56,o),
(406,56,cs)
);
}
);
};
guides = (
{
pos = (406,56);
}
);
layerId = "28FB090A-653E-4199-B7BE-FAE23D31B682";
shapes = (
{
closed = 1;
nodes = (
(542,56,o),
(615,140,o),
(615,249,cs),
(615,303,o),
(599,353,o),
(577,395,c),
(554,394,l),
(481,290,o),
(418,268,o),
(379,268,cs),
(330,268,o),
(317,299,o),
(317,358,cs),
(317,432,ls),
(317,536,o),
(366,596,o),
(436,596,cs),
(486,596,o),
(523,569,o),
(523,518,cs),
(523,474,o),
(494,433,o),
(417,433,cs),
(287,433,o),
(214,519,o),
(147,613,c),
(129,601,l),
(207,489,o),
(296,412,o),
(419,412,cs),
(491,412,o),
(545,451,o),
(545,518,cs),
(545,577,o),
(501,617,o),
(435,617,cs),
(364,617,o),
(296,562,o),
(296,444,cs),
(296,356,ls),
(296,293,o),
(315,247,o),
(381,247,cs),
(419,247,o),
(499,273,o),
(572,382,c),
(560,385,l),
(584,336,o),
(593,291,o),
(593,249,cs),
(593,151,o),
(530,77,o),
(406,77,cs),
(256,77,o),
(153,184,o),
(67,479,c),
(46,473,l),
(136,168,o),
(246,56,o),
(406,56,cs)
);
}
);
width = 676;
},
{
anchors = (
{
name = bottom;
pos = (414,2);
},
{
name = nukta;
pos = (413,-124);
},
{
name = top_candrabindu;
pos = (369,635);
},
{
name = top_vedic;
pos = (368,635);
}
);
background = {
anchors = (
{
name = Anchor8;
pos = (384,635);
},
{
name = bottom;
pos = (404,0);
},
{
name = nukta;
pos = (413,-124);
},
{
name = top_candrabindu;
pos = (369,635);
}
);
shapes = (
{
closed = 1;
nodes = (
(622,-8,o),
(714,91,o),
(714,224,cs),
(714,289,o),
(694,342,o),
(662,401,c),
(538,381,l),
(514,346,o),
(478,327,o),
(446,327,cs),
(424,327,o),
(413,338,o),
(413,368,cs),
(413,495,ls),
(413,522,o),
(428,547,o),
(460,547,cs),
(483,547,o),
(491,536,o),
(491,523,cs),
(491,504,o),
(472,491,o),
(438,491,cs),
(338,491,o),
(269,558,o),
(210,646,c),
(104,564,l),
(172,466,o),
(259,387,o),
(437,387,cs),
(529,387,o),
(617,428,o),
(617,516,cs),
(617,590,o),
(555,645,o),
(450,645,cs),
(324,645,o),
(254,560,o),
(254,443,cs),
(254,375,ls),
(254,266,o),
(313,204,o),
(415,204,cs),
(496,204,o),
(558,239,o),
(617,305,c),
(530,327,l),
(546,300,o),
(555,267,o),
(555,235,cs),
(555,172,o),
(502,138,o),
(419,138,cs),
(290,138,o),
(209,231,o),
(153,458,c),
(10,422,l),
(90,89,o),
(245,-8,o),
(428,-8,cs)
);
}
);
};
layerId = "F455777D-7EDD-47E2-866A-D8A5173CE243";
shapes = (
{
closed = 1;
nodes = (
(622,-8,o),
(714,91,o),
(714,224,cs),
(714,289,o),
(694,342,o),
(662,401,c),
(538,381,l),
(514,346,o),
(478,327,o),
(446,327,cs),
(424,327,o),
(413,338,o),
(413,368,cs),
(413,495,ls),
(413,522,o),
(428,547,o),
(460,547,cs),
(483,547,o),
(491,536,o),
(491,523,cs),
(491,504,o),
(472,491,o),
(438,491,cs),
(338,491,o),
(269,558,o),
(210,646,c),
(104,564,l),
(172,466,o),
(259,387,o),
(437,387,cs),
(529,387,o),
(617,428,o),
(617,516,cs),
(617,590,o),
(555,645,o),
(450,645,cs),
(324,645,o),
(254,560,o),
(254,443,cs),
(254,375,ls),
(254,266,o),
(313,204,o),
(415,204,cs),
(496,204,o),
(558,239,o),
(617,305,c),
(530,327,l),
(546,300,o),
(555,267,o),
(555,235,cs),
(555,172,o),
(502,138,o),
(419,138,cs),
(290,138,o),
(209,231,o),
(153,458,c),
(10,422,l),
(90,89,o),
(245,-8,o),
(428,-8,cs)
);
}
);
width = 736;
}
);
script = bengali;
subCategory = Spacing;
unicode = 2457;
},
{
category = Letter;
color = 5;
glyphname = "ca-beng";
lastChange = "2024-11-28 18:19:52 +0000";
layers = (
{
anchors = (
{
name = bottom;
pos = (274,32);
},
{
name = nukta;
pos = (283,-80);
},
{
name = top_candrabindu;
pos = (235,622);
},
{
name = top_vedic;
pos = (269,622);
}
);
background = {
anchors = (
{
name = Anchor8;
pos = (283,622);
},
{
name = bottom;
pos = (312,0);
},
{
name = nukta;
pos = (283,-80);
},
{
name = top_candrabindu;
pos = (145,622);
}
);
shapes = (
{
closed = 1;
nodes = (
(369,24,o),
(483,174,o),
(483,303,cs),
(483,379,o),
(449,423,o),
(333,434,cs),
(241,443,o),
(200,469,o),
(171,544,c),
(161,458,l),
(191,388,o),
(250,366,o),
(329,359,cs),
(388,354,o),
(404,340,o),
(404,302,cs),
(404,213,o),
(319,96,o),
(237,96,cs),
(188,96,o),
(172,127,o),
(172,187,cs),
(172,378,ls),
(172,406,o),
(170,441,o),
(168,458,c),
(172,459,l),
(172,551,l),
(548,551,l),
(548,622,l),
(-10,622,l),
(-10,551,l),
(95,551,l),
(95,195,ls),
(95,79,o),
(141,24,o),
(232,24,cs)
);
}
);
};
guides = (
{
pos = (232,24);
}
);
layerId = UUID0;
shapes = (
{
closed = 1;
nodes = (
(369,24,o),
(483,174,o),
(483,303,cs),
(483,379,o),
(449,423,o),
(333,434,cs),
(241,443,o),
(200,469,o),
(171,544,c),
(161,458,l),
(191,388,o),
(250,366,o),
(329,359,cs),
(388,354,o),
(404,340,o),
(404,302,cs),
(404,213,o),
(319,96,o),
(237,96,cs),
(188,96,o),
(172,127,o),
(172,187,cs),
(172,378,ls),
(172,406,o),
(170,441,o),
(168,458,c),
(172,459,l),
(172,551,l),
(548,551,l),
(548,622,l),
(-10,622,l),
(-10,551,l),
(95,551,l),
(95,195,ls),
(95,79,o),
(141,24,o),
(232,24,cs)
);
}
);
width = 538;
},
{
anchors = (
{
name = Anchor4;
pos = (255,622);
},
{
name = bottom_vedic;
pos = (312,0);
},
{
name = top_vedic;
pos = (283,622);
}
);
associatedMasterId = UUID0;
background = {
anchors = (
{
name = Anchor4;
pos = (255,622);
},
{
name = Anchor6;
pos = (312,0);
},
{
name = Anchor8;
pos = (283,622);
}
);
shapes = (
{
closed = 1;
nodes = (
(-10,622,l),
(-10,551,l),
(95,551,l),
(95,191,ls),
(95,117,o),
(110,88,o),
(132,63,cs),
(154,40,o),
(189,24,o),
(238,24,cs),
(308,24,o),
(364,51,o),
(415,95,cs),
(473,145,o),
(517,224,o),
(517,306,cs),
(517,351,o),
(502,384,o),
(472,403,cs),
(451,416,o),
(427,423,o),
(377,423,cs),
(361,423,ls),
(253,423,o),
(212,462,o),
(171,534,c),
(161,447,l),
(177,418,o),
(204,394,o),
(235,377,cs),
(270,359,o),
(301,349,o),
(363,349,cs),
(368,349,ls),
(412,349,o),
(438,340,o),
(438,296,cs),
(438,247,o),
(416,202,o),
(379,162,cs),
(343,124,o),
(297,96,o),
(244,96,cs),
(217,96,o),
(202,102,o),
(189,117,cs),
(180,128,o),
(172,146,o),
(172,205,cs),
(172,378,ls),
(172,406,o),
(170,441,o),
(168,458,c),
(172,521,l),
(172,551,l),
(577,551,l),
(577,622,l)
);
}
);
};
layerId = "7C0DD0CC-07DA-4335-80AA-09FCD6D22ADE";
name = "8 May 24 at 18:06";
shapes = (
{
closed = 1;
nodes = (
(-10,622,l),
(-10,551,l),
(95,551,l),
(95,191,ls),
(95,117,o),
(110,88,o),
(132,63,cs),
(154,40,o),
(189,24,o),
(238,24,cs),
(308,24,o),
(364,51,o),
(415,95,cs),
(473,145,o),
(517,224,o),
(517,306,cs),
(517,351,o),
(502,384,o),
(472,403,cs),
(451,416,o),
(427,423,o),
(377,423,cs),
(361,423,ls),
(253,423,o),
(212,462,o),
(171,534,c),
(161,447,l),
(177,418,o),
(204,394,o),
(235,377,cs),
(270,359,o),
(301,349,o),
(363,349,cs),
(368,349,ls),
(412,349,o),
(438,340,o),
(438,296,cs),
(438,247,o),
(416,202,o),
(379,162,cs),
(343,124,o),
(297,96,o),
(244,96,cs),
(217,96,o),
(202,102,o),
(189,117,cs),
(180,128,o),
(172,146,o),
(172,205,cs),
(172,378,ls),
(172,406,o),
(170,441,o),
(168,458,c),
(172,521,l),
(172,551,l),
(577,551,l),
(577,622,l)
);
}
);
width = 567;
},
{
anchors = (
{
name = bottom;
pos = (312,0);
},
{
name = top_candrabindu;
pos = (145,622);
},
{
name = top_vedic;
pos = (283,622);
}
);
associatedMasterId = UUID0;
background = {
anchors = (
{
name = Anchor4;
pos = (255,622);
},
{
name = Anchor6;
pos = (312,0);
},
{
name = Anchor8;
pos = (283,622);
}
);
shapes = (
{
closed = 1;
nodes = (
(391,24,o),
(517,171,o),
(517,303,cs),
(517,388,o),
(463,439,o),
(395,439,cs),
(346,439,o),
(307,413,o),
(307,363,cs),
(307,319,o),
(339,292,o),
(379,292,cs),
(417,292,o),
(446,313,o),
(446,359,cs),
(446,395,o),
(425,424,o),
(377,424,c),
(370,364,l),
(419,364,o),
(439,341,o),
(439,299,cs),
(439,202,o),
(342,96,o),
(244,96,cs),
(182,96,o),
(172,133,o),
(172,201,cs),
(172,551,l),
(577,551,l),
(577,622,l),
(-10,622,l),
(-10,551,l),
(95,551,l),
(95,209,ls),
(95,85,o),
(135,24,o),
(239,24,cs)
);
}
);
};
layerId = "766FA497-86C8-443A-ABCD-26E754A241E9";
name = "22 May 24 at 19:28";
shapes = (
{
closed = 1;
nodes = (
(374,24,o),
(502,169,o),
(502,292,cs),
(502,388,o),
(451,419,o),
(362,423,cs),
(342,424,ls),
(249,429,o),
(209,462,o),
(171,534,c),
(161,447,l),
(198,379,o),
(269,354,o),
(337,350,cs),
(353,349,ls),
(404,346,o),
(423,333,o),
(423,291,cs),
(423,204,o),
(328,96,o),
(239,96,cs),
(182,96,o),
(172,133,o),
(172,201,cs),
(172,378,ls),
(172,406,o),
(170,441,o),
(168,458,c),
(172,521,l),
(172,551,l),
(562,551,l),
(562,622,l),
(-10,622,l),
(-10,551,l),
(95,551,l),
(95,209,ls),
(95,85,o),
(134,24,o),
(233,24,cs)
);
}
);
width = 552;
},
{
anchors = (
{
name = bottom;
pos = (312,0);
},
{
name = top_candrabindu;
pos = (145,622);
},
{
name = top_vedic;
pos = (283,622);
}
);
associatedMasterId = UUID0;
background = {
anchors = (
{
name = Anchor4;
pos = (255,622);
},
{
name = Anchor6;
pos = (312,0);
},
{
name = Anchor8;
pos = (283,622);
}
);
};
layerId = "5E579CA2-927C-4296-9DF6-418D739C23B7";
name = "11 Jun 24 at 12:43";
shapes = (
{
closed = 1;
nodes = (
(378,24,o),
(497,162,o),
(497,299,cs),
(497,377,o),
(463,423,o),
(342,434,cs),
(241,443,o),
(200,469,o),
(171,544,c),
(161,458,l),
(191,388,o),
(250,366,o),
(338,359,cs),
(402,354,o),
(418,338,o),
(418,298,cs),
(418,201,o),
(328,96,o),
(239,96,cs),
(182,96,o),
(172,133,o),
(172,201,cs),
(172,378,ls),
(172,406,o),
(170,441,o),
(168,458,c),
(172,521,l),
(172,551,l),
(557,551,l),
(557,622,l),
(-10,622,l),
(-10,551,l),
(95,551,l),
(95,209,ls),
(95,85,o),
(134,24,o),
(233,24,cs)
);
}
);
width = 552;
},
{
anchors = (
{
name = bottom;
pos = (285,65);
},
{
name = nukta;
pos = (247,-68);
},
{
name = top_candrabindu;
pos = (214,607);
},
{
name = top_vedic;
pos = (246,607);
}
);
background = {
anchors = (
{
name = Anchor8;
pos = (274,607);
},
{
name = bottom;
pos = (316,0);
},
{
name = nukta;
pos = (247,-68);
},
{
name = top_candrabindu;
pos = (114,607);
}
);
shapes = (
{
closed = 1;
nodes = (
(330,42,o),
(438,202,o),
(438,312,cs),
(438,380,o),
(404,408,o),
(304,419,cs),
(196,431,o),
(159,462,o),
(120,568,c),
(112,540,l),
(150,437,o),
(199,407,o),
(303,398,cs),
(388,391,o),
(416,367,o),
(416,312,cs),
(416,216,o),
(320,63,o),
(210,63,cs),
(158,63,o),
(127,91,o),
(127,177,cs),
(127,434,ls),
(127,480,o),
(126,518,o),
(123,537,c),
(127,539,l),
(127,586,l),
(512,586,l),
(512,607,l),
(-10,607,l),
(-10,586,l),
(106,586,l),
(106,180,ls),
(106,84,o),
(140,42,o),
(210,42,cs)
);
}
);
};
layerId = "28FB090A-653E-4199-B7BE-FAE23D31B682";
shapes = (
{
closed = 1;
nodes = (
(330,42,o),
(438,202,o),
(438,312,cs),
(438,380,o),
(404,408,o),
(304,419,cs),
(196,431,o),
(159,462,o),
(120,568,c),
(112,540,l),
(150,437,o),
(199,407,o),
(303,398,cs),
(388,391,o),
(416,367,o),
(416,312,cs),
(416,216,o),
(320,63,o),
(210,63,cs),
(158,63,o),
(127,91,o),
(127,177,cs),
(127,434,ls),
(127,480,o),
(126,518,o),
(123,537,c),
(127,539,l),
(127,586,l),
(502,586,l),
(502,607,l),
(-10,607,l),
(-10,586,l),
(106,586,l),
(106,180,ls),
(106,84,o),
(140,42,o),
(210,42,cs)
);
}
);
width = 492;
},
{
anchors = (
{
name = bottom;
pos = (295,12);
},
{
name = nukta;
pos = (294,-124);
},
{
name = top_candrabindu;
pos = (244,635);
},
{
name = top_vedic;
pos = (281,635);
}
);
background = {
anchors = (
{
name = Anchor8;
pos = (289,635);
},
{
name = bottom;
pos = (287,0);
},
{
name = nukta;
pos = (294,-124);
},
{
name = top_candrabindu;
pos = (174,635);
}
);
shapes = (
{
closed = 1;
nodes = (
(412,-6,o),
(532,142,o),
(532,281,cs),
(532,371,o),
(487,416,o),
(369,430,cs),
(249,444,o),
(227,463,o),
(215,512,c),
(199,404,l),
(228,329,o),
(253,311,o),
(316,304,cs),
(359,299,o),
(370,285,o),
(370,260,cs),
(370,207,o),
(315,124,o),
(266,124,cs),
(235,124,o),
(224,148,o),
(224,199,cs),
(224,313,ls),
(224,331,o),
(223,355,o),
(221,369,c),
(221,481,l),
(221,505,l),
(573,505,l),
(573,635,l),
(-15,635,l),
(-15,505,l),
(61,505,l),
(61,217,ls),
(61,76,o),
(119,-6,o),
(249,-6,cs)
);
}
);
};
layerId = "F455777D-7EDD-47E2-866A-D8A5173CE243";
shapes = (
{
closed = 1;
nodes = (
(412,-6,o),
(532,142,o),
(532,281,cs),
(532,371,o),
(487,416,o),
(369,430,cs),
(249,444,o),
(227,463,o),
(215,512,c),
(199,404,l),
(228,329,o),
(253,311,o),
(316,304,cs),
(359,299,o),
(370,285,o),
(370,260,cs),
(370,207,o),
(315,124,o),
(266,124,cs),
(235,124,o),
(224,148,o),
(224,199,cs),
(224,313,ls),
(224,331,o),
(223,355,o),
(221,369,c),
(223,371,l),
(223,505,l),
(573,505,l),
(573,635,l),
(-10,635,l),
(-10,505,l),
(61,505,l),
(61,217,ls),
(61,76,o),
(119,-6,o),
(249,-6,cs)
);
}
);
width = 563;
}
);
script = bengali;
subCategory = Spacing;
unicode = 2458;
},
{
category = Letter;
color = 5;
glyphname = "cha-beng";
lastChange = "2024-11-28 18:19:52 +0000";
layers = (
{
anchors = (
{
name = bottom;
pos = (402,0);
},
{
name = top_candrabindu;
pos = (326,622);
},
{
name = top_vedic;
pos = (366,622);
}
);
associatedMasterId = UUID0;
background = {
shapes = (
{
closed = 1;
nodes = (
(671.73,367.68,o),
(622.75,468.36,o),
(445.57,468.36,cs),
(410.83,468.36,o),
(383.78,466.14,o),
(367.73,464.53,c),
(376.51,373.91,l),
(387.73,375.91,o),
(400.56,376.91,o),
(408.34,376.91,cs),
(489.78,376.91,o),
(534.34,344.4,o),
(534.34,284.38,cs),
(534.34,206.6,o),
(465.56,148.95,o),
(298.54,148.95,cs),
(232.83,148.95,o),
(183.68,154.34,o),
(145.29,160.51,c),
(134.46,46.42,l),
(326.39,37.57,o),
(505.2,8.77,o),
(692.92,-56.32,c),
(730.97,51.87,l),
(624.17,92.52,o),
(491.18,113.15,o),
(378.52,121.83,c),
(405.62,74.43,l),
(541.02,84.21,o),
(671.73,141.43,o),
(671.73,288.65,cs)
);
},
{
closed = 1;
nodes = (
(384.72,191.99,o),
(487.82,267.43,o),
(487.82,368.48,cs),
(487.82,407.48,o),
(465.82,427.43,o),
(436.77,445.31,c),
(418.94,456.36,o),
(405.52,465.14,o),
(391.52,465.14,c),
(322.39,465.14,ls),
(239.88,465.14,o),
(209.32,487.31,o),
(174.1,531.8,c),
(158.66,452.55,l),
(197.71,406.67,o),
(246,373.35,o),
(311.73,373.35,cs),
(326.88,373.35,ls),
(345.46,373.35,o),
(356.31,368.74,o),
(356.31,355.33,cs),
(356.31,326.14,o),
(310.07,293.93,o),
(248.86,293.93,cs),
(231.35,293.93,o),
(220.01,296.71,o),
(212.06,304.66,cs),
(205.11,311.61,o),
(200.33,321.56,o),
(200.33,348.63,cs),
(200.33,380.35,ls),
(200.33,393.2,o),
(199.94,406.93,o),
(198.94,420.49,c),
(198.5,485.62,l),
(198.5,522.4,l),
(67.21,522.4,l),
(67.21,357.17,ls),
(67.21,290.51,o),
(79.99,259.24,o),
(103.65,234.36,cs),
(130.75,206.04,o),
(176.12,191.99,o),
(241.64,191.99,cs)
);
},
{
closed = 1;
nodes = (
(744.58,510.13,l),
(744.58,622,l),
(-10,622,l),
(-10,510.13,l)
);
}
);
};
layerId = "13396884-4c21-4c91-bb98-dbcf0e2dbdad";
name = "Bold Semi (intermediate)";
shapes = (
{
closed = 1;
nodes = (
(680,361,o),
(633,474,o),
(446,474,cs),
(420,474,o),
(398,473,o),
(382,471,c),
(394,378,l),
(404,380,o),
(415,381,o),
(420,381,cs),
(505,381,o),
(549,347,o),
(549,285,cs),
(549,202,o),
(480,146,o),
(305,146,cs),
(247,146,o),
(198,151,o),
(165,157,c),
(152,46,l),
(330,37,o),
(505,11,o),
(698,-56,c),
(733,48,l),
(613,89,o),
(501,108,o),
(391,119,c),
(415,64,l),
(547,76,o),
(680,141,o),
(680,293,cs)
);
},
{
closed = 1;
nodes = (
(382,192,o),
(487,269,o),
(487,370,cs),
(487,412,o),
(465,437,o),
(434,451,cs),
(416,460,o),
(416,471,o),
(398,471,cs),
(312,471,ls),
(243,471,o),
(208,495,o),
(170,538,c),
(153,450,l),
(190,407,o),
(241,378,o),
(299,378,cs),
(326,378,ls),
(348,378,o),
(360,371,o),
(360,356,cs),
(360,327,o),
(311,293,o),
(250,293,cs),
(230,293,o),
(216,297,o),
(208,308,cs),
(203,314,o),
(199,324,o),
(199,350,cs),
(199,380,ls),
(199,391,o),
(198,407,o),
(196,425,c),
(199,488,l),
(199,525,l),
(72,525,l),
(72,362,ls),
(72,296,o),
(83,268,o),
(101,243,cs),
(127,207,o),
(173,192,o),
(241,192,cs)
);
},
{
closed = 1;
nodes = (
(743,512,l),
(743,622,l),
(-10,622,l),
(-10,512,l)
);
}
);
width = 733;
},
{
anchors = (
{
name = bottom;
pos = (331,47);
},
{
name = nukta;
pos = (296,-60);
},
{
name = top_candrabindu;
pos = (223,622);
},
{
name = top_vedic;
pos = (304,622);
}
);
background = {
anchors = (
{
name = Anchor8;
pos = (284,622);
},
{
name = bottom;
pos = (399,0);
},
{
name = nukta;
pos = (296,-60);
},
{
name = top_candrabindu;
pos = (133,622);
}
);
shapes = (
{
closed = 1;
nodes = (
(609,-19,l),
(491,50,o),
(380,102,o),
(264,118,c),
(255,85,l),
(421,85,o),
(540,164,o),
(540,310,cs),
(540,375,o),
(502,483,o),
(345,483,cs),
(324,483,o),
(298,480,o),
(277,480,cs),
(217,480,o),
(181,499,o),
(168,544,c),
(160,480,l),
(172,435,o),
(204,422,o),
(254,416,cs),
(283,413,o),
(295,404,o),
(295,384,cs),
(295,349,o),
(256,286,o),
(212,286,cs),
(179,286,o),
(168,308,o),
(168,359,cs),
(168,420,ls),
(168,442,o),
(167,460,o),
(166,476,c),
(168,478,l),
(168,559,l),
(91,559,l),
(91,359,ls),
(91,262,o),
(127,217,o),
(207,217,cs),
(293,217,o),
(375,299,o),
(375,391,cs),
(375,429,o),
(355,451,o),
(327,463,c),
(307,416,l),
(317,418,o),
(328,419,o),
(347,419,cs),
(424,419,o),
(463,381,o),
(463,310,cs),
(463,229,o),
(400,152,o),
(260,152,cs),
(210,152,o),
(172,157,o),
(134,165,c),
(123,94,l),
(289,68,o),
(418,20,o),
(574,-79,c)
);
},
{
closed = 1;
nodes = (
(629,551,l),
(629,622,l),
(-10,622,l),
(-10,551,l)
);
}
);
};
layerId = UUID0;
shapes = (
{
closed = 1;
nodes = (
(609,-18,l),
(491,51,o),
(380,103,o),
(264,119,c),
(255,85,l),
(421,85,o),
(540,164,o),
(540,310,cs),
(540,375,o),
(502,483,o),
(345,483,cs),
(324,483,o),
(298,480,o),
(277,480,cs),
(217,480,o),
(181,499,o),
(168,544,c),
(160,480,l),
(172,435,o),
(204,422,o),
(254,416,cs),
(283,413,o),
(295,404,o),
(295,384,cs),
(295,349,o),
(256,286,o),
(212,286,cs),
(179,286,o),
(168,308,o),
(168,359,cs),
(168,420,ls),
(168,442,o),
(167,460,o),
(166,476,c),
(168,478,l),
(168,559,l),
(91,559,l),
(91,359,ls),
(91,262,o),
(127,217,o),
(207,217,cs),
(293,217,o),
(375,299,o),
(375,391,cs),
(375,429,o),
(355,451,o),
(327,463,c),
(307,416,l),
(317,418,o),
(328,419,o),
(347,419,cs),
(424,419,o),
(463,381,o),
(463,310,cs),
(463,229,o),
(400,152,o),
(260,152,cs),
(210,152,o),
(172,157,o),
(134,165,c),
(123,94,l),
(289,68,o),
(418,20,o),
(574,-79,c)
);
},
{
closed = 1;
nodes = (
(619,551,l),
(619,622,l),
(-10,622,l),
(-10,551,l)
);
}
);
width = 609;
},
{
anchors = (
{
name = bottom;
pos = (419,0);
},
{
name = top_candrabindu;
pos = (342,622);
},
{
name = top_vedic;
pos = (343,622);
}
);
associatedMasterId = UUID0;
background = {
anchors = (
{
name = Anchor4;
pos = (342,622);
},
{
name = Anchor6;
pos = (419,0);
},
{
name = Anchor8;
pos = (343,622);
}
);
shapes = (
{
closed = 1;
nodes = (
(615,375,o),
(577,483,o),
(423,483,cs),
(409,483,o),
(385,482,o),
(372,481,c),
(382,416,l),
(392,418,o),
(403,419,o),
(412,419,cs),
(491,419,o),
(538,381,o),
(538,310,cs),
(538,231,o),
(468,152,o),
(290,152,cs),
(231,152,o),
(191,158,o),
(152,166,c),
(143,94,l),
(327,76,o),
(493,35,o),
(649,-49,c),
(684,11,l),
(565,73,o),
(468,104,o),
(359,120,c),
(380,97,l),
(491,108,o),
(615,164,o),
(615,310,cs)
);
},
{
closed = 1;
nodes = (
(353,217,o),
(450,290,o),
(450,388,cs),
(450,427,o),
(428,450,o),
(402,463,cs),
(386,471,o),
(386,481,o),
(372,481,cs),
(323,481,ls),
(235,481,o),
(202,505,o),
(168,544,c),
(155,480,l),
(191,439,o),
(246,413,o),
(316,413,cs),
(322,413,ls),
(354,413,o),
(374,409,o),
(374,384,cs),
(374,342,o),
(318,286,o),
(233,286,cs),
(210,286,o),
(195,290,o),
(184,301,cs),
(174,311,o),
(168,324,o),
(168,359,cs),
(168,420,ls),
(168,442,o),
(167,460,o),
(166,476,c),
(168,521,l),
(168,559,l),
(91,559,l),
(91,359,ls),
(91,296,o),
(105,269,o),
(125,249,cs),
(146,228,o),
(181,217,o),
(227,217,cs)
);
},
{
closed = 1;
nodes = (
(697,551,l),
(697,622,l),
(-10,622,l),
(-10,551,l)
);
}
);
};
layerId = "77FD4803-72EE-4AC4-A9C2-7429AA2DCEE1";
name = "9 May 24 at 13:05";
shapes = (
{
closed = 1;
nodes = (
(615,375,o),
(577,483,o),
(423,483,cs),
(409,483,o),
(385,482,o),
(372,481,c),
(382,416,l),
(392,418,o),
(403,419,o),
(412,419,cs),
(491,419,o),
(538,381,o),
(538,310,cs),
(538,231,o),
(468,152,o),
(290,152,cs),
(231,152,o),
(191,158,o),
(152,166,c),
(143,94,l),
(327,76,o),
(493,35,o),
(649,-49,c),
(684,11,l),
(565,73,o),
(468,104,o),
(359,120,c),
(380,97,l),
(491,108,o),
(615,164,o),
(615,310,cs)
);
},
{
closed = 1;
nodes = (
(353,217,o),
(450,290,o),
(450,388,cs),
(450,427,o),
(428,450,o),
(402,463,cs),
(386,471,o),
(386,481,o),
(372,481,cs),
(323,481,ls),
(235,481,o),
(202,505,o),
(168,544,c),
(155,480,l),
(191,439,o),
(246,413,o),
(316,413,cs),
(322,413,ls),
(354,413,o),
(374,409,o),
(374,384,cs),
(374,342,o),
(318,286,o),
(233,286,cs),
(210,286,o),
(195,290,o),
(184,301,cs),
(174,311,o),
(168,324,o),
(168,359,cs),
(168,420,ls),
(168,442,o),
(167,460,o),
(166,476,c),
(168,521,l),
(168,559,l),
(91,559,l),
(91,359,ls),
(91,296,o),
(105,269,o),
(125,249,cs),
(146,228,o),
(181,217,o),
(227,217,cs)
);
},
{
closed = 1;
nodes = (
(697,551,l),
(697,622,l),
(-10,622,l),
(-10,551,l)
);
}
);
width = 687;
},
{
anchors = (
{
name = bottom;
pos = (354,74);
},
{
name = nukta;
pos = (307,-23);
},
{
name = top_candrabindu;
pos = (215,607);
},
{
name = top_vedic;
pos = (284,607);
}
);
background = {
anchors = (
{
name = Anchor8;
pos = (334,607);
},
{
name = bottom;
pos = (424,10);
},
{
name = nukta;
pos = (307,-23);
},
{
name = top_candrabindu;
pos = (118,607);
}
);
shapes = (
{
closed = 1;
nodes = (
(576,-21,l),
(453,55,o),
(341,106,o),
(234,121,c),
(233,115,l),
(424,114,o),
(502,199,o),
(502,313,cs),
(502,424,o),
(432,484,o),
(320,484,cs),
(301,484,o),
(278,482,o),
(253,482,cs),
(189,482,o),
(154,503,o),
(120,573,c),
(115,553,l),
(139,487,o),
(179,465,o),
(242,461,cs),
(293,458,o),
(308,438,o),
(308,402,cs),
(308,335,o),
(259,261,o),
(188,261,cs),
(138,261,o),
(122,293,o),
(122,354,cs),
(122,472,ls),
(122,505,o),
(121,526,o),
(119,545,c),
(123,556,l),
(123,597,l),
(101,597,l),
(101,353,ls),
(101,281,o),
(127,240,o),
(189,240,cs),
(265,240,o),
(329,317,o),
(329,399,cs),
(329,437,o),
(316,460,o),
(281,471,c),
(278,461,l),
(289,462,o),
(302,464,o),
(321,464,cs),
(416,464,o),
(480,417,o),
(480,315,cs),
(480,214,o),
(413,136,o),
(249,136,cs),
(229,136,o),
(189,141,o),
(151,149,c),
(147,127,l),
(294,103,o),
(416,55,o),
(564,-40,c)
);
},
{
closed = 1;
nodes = (
(619,586,l),
(619,607,l),
(-10,607,l),
(-10,586,l)
);
}
);
};
layerId = "28FB090A-653E-4199-B7BE-FAE23D31B682";
shapes = (
{
closed = 1;
nodes = (
(576,-21,l),
(453,55,o),
(341,106,o),
(234,121,c),
(233,115,l),
(424,115,o),
(502,199,o),
(502,313,cs),
(502,424,o),
(432,484,o),
(320,484,cs),
(301,484,o),
(278,482,o),
(253,482,cs),
(189,482,o),
(154,503,o),
(120,573,c),
(115,553,l),
(139,487,o),
(179,465,o),
(242,461,cs),
(293,458,o),
(308,438,o),
(308,402,cs),
(308,335,o),
(259,261,o),
(188,261,cs),
(138,261,o),
(122,293,o),
(122,354,cs),
(122,472,ls),
(122,505,o),
(121,526,o),
(119,545,c),
(123,556,l),
(123,597,l),
(101,597,l),
(101,353,ls),
(101,281,o),
(127,240,o),
(189,240,cs),
(265,240,o),
(329,317,o),
(329,399,cs),
(329,437,o),
(316,460,o),
(281,471,c),
(278,461,l),
(289,463,o),
(302,464,o),
(321,464,cs),
(416,464,o),
(480,417,o),
(480,315,cs),
(480,214,o),
(413,136,o),
(249,136,cs),
(229,136,o),
(189,141,o),
(151,149,c),
(147,127,l),
(294,103,o),
(416,55,o),
(564,-40,c)
);
},
{
closed = 1;
nodes = (
(579,586,l),
(579,607,l),
(-10,607,l),
(-10,586,l)
);
}
);
width = 569;
},
{
anchors = (
{
name = bottom;
pos = (315,10);
},
{
name = nukta;
pos = (317,-118);
},
{
name = top_candrabindu;
pos = (222,635);
},
{
name = top_vedic;
pos = (331,635);
}
);
background = {
anchors = (
{
name = Anchor8;
pos = (345,635);
},
{
name = bottom;
pos = (358,0);
},
{
name = nukta;
pos = (317,-118);
},
{
name = top_candrabindu;
pos = (132,635);
}
);
shapes = (
{
closed = 1;
nodes = (
(677,18,l),
(575,70,o),
(399,108,o),
(257,118,c),
(294,29,l),
(493,29,o),
(618,114,o),
(618,264,cs),
(618,368,o),
(549,469,o),
(361,469,cs),
(335,469,o),
(291,465,o),
(265,465,cs),
(212,465,o),
(194,484,o),
(189,540,c),
(182,451,l),
(185,391,o),
(210,373,o),
(251,368,cs),
(270,366,o),
(276,363,o),
(276,350,cs),
(276,324,o),
(251,289,o),
(224,289,cs),
(208,289,o),
(201,299,o),
(201,324,cs),
(201,372,ls),
(201,382,o),
(200,393,o),
(198,400,c),
(198,479,l),
(198,519,l),
(43,519,l),
(43,370,ls),
(43,239,o),
(102,177,o),
(217,177,cs),
(333,177,o),
(419,272,o),
(419,369,cs),
(419,408,o),
(397,433,o),
(365,446,c),
(296,364,l),
(308,366,o),
(321,367,o),
(330,367,cs),
(413,367,o),
(462,337,o),
(462,272,cs),
(462,193,o),
(399,143,o),
(269,143,cs),
(217,143,o),
(163,147,o),
(132,154,c),
(119,22,l),
(295,12,o),
(446,-24,o),
(631,-112,c)
);
},
{
closed = 1;
nodes = (
(692,505,l),
(692,635,l),
(-15,635,l),
(-15,505,l)
);
}
);
};
layerId = "F455777D-7EDD-47E2-866A-D8A5173CE243";
shapes = (
{
closed = 1;
nodes = (
(677,18,l),
(575,70,o),
(399,108,o),
(257,118,c),
(294,29,l),
(493,29,o),
(618,114,o),
(618,264,cs),
(618,368,o),
(549,469,o),
(361,469,cs),
(335,469,o),
(291,465,o),
(265,465,cs),
(212,465,o),
(194,484,o),
(189,540,c),
(182,451,l),
(185,391,o),
(210,373,o),
(251,368,cs),
(270,366,o),
(276,363,o),
(276,350,cs),
(276,324,o),
(251,289,o),
(224,289,cs),
(208,289,o),
(201,299,o),
(201,324,cs),
(201,372,ls),
(201,382,o),
(200,393,o),
(198,400,c),
(200,402,l),
(200,519,l),
(43,519,l),
(43,370,ls),
(43,239,o),
(102,177,o),
(217,177,cs),
(333,177,o),
(419,272,o),
(419,369,cs),
(419,408,o),
(397,433,o),
(365,446,c),
(296,364,l),
(308,366,o),
(321,367,o),
(330,367,cs),
(413,367,o),
(462,337,o),
(462,272,cs),
(462,193,o),
(399,143,o),
(269,143,cs),
(227,143,o),
(173,147,o),
(142,154,c),
(129,22,l),
(305,12,o),
(446,-24,o),
(631,-112,c)
);
},
{
closed = 1;
nodes = (
(672,505,l),
(672,635,l),
(-10,635,l),
(-10,505,l)
);
}
);
width = 662;
}
);
script = bengali;
subCategory = Spacing;
unicode = 2459;
},
